<svg xmlns="http://www.w3.org/2000/svg" xmlns:xlink="http://www.w3.org/1999/xlink" width="1080" zoomAndPan="magnify" viewBox="0 0 810 809.999993" height="1080" preserveAspectRatio="xMidYMid meet" version="1.0"><defs><clipPath id="aac19fab95"><path d="M 93.308594 79 L 716.558594 79 L 716.558594 731 L 93.308594 731 Z M 93.308594 79 " clip-rule="nonzero"/></clipPath></defs><g clip-path="url(#aac19fab95)"><path fill="#000000" d="M 603.980469 143.894531 L 573.683594 143.894531 L 573.683594 98.660156 C 573.683594 87.777344 564.828125 79.007812 554.023438 79.007812 C 543.140625 79.007812 534.367188 87.859375 534.367188 98.660156 L 534.367188 143.976562 L 264.210938 143.976562 L 264.210938 98.660156 C 264.210938 87.777344 255.355469 79.007812 244.554688 79.007812 C 233.667969 79.007812 224.894531 87.859375 224.894531 98.660156 L 224.894531 143.976562 L 205.808594 143.976562 C 143.667969 143.976562 93.308594 194.328125 93.308594 256.457031 L 93.308594 618.257812 C 93.308594 680.386719 143.667969 730.738281 205.808594 730.738281 L 603.980469 730.738281 C 666.117188 730.738281 716.476562 680.386719 716.476562 618.257812 L 716.476562 256.457031 C 716.558594 194.328125 666.117188 143.894531 603.980469 143.894531 Z M 534.289062 164.6875 L 534.289062 205.535156 C 534.289062 216.417969 543.140625 225.191406 553.945312 225.191406 C 564.828125 225.191406 573.601562 216.335938 573.601562 205.535156 L 573.601562 166.230469 C 586.191406 173.539062 594.71875 187.183594 594.71875 202.773438 C 594.71875 226.082031 575.792969 245.003906 552.480469 245.003906 C 529.171875 245.003906 510.246094 226.082031 510.246094 202.773438 C 510.40625 185.964844 520.152344 171.507812 534.289062 164.6875 Z M 224.816406 165.417969 L 224.816406 205.535156 C 224.816406 216.417969 233.667969 225.191406 244.472656 225.191406 C 255.355469 225.191406 264.128906 216.335938 264.128906 205.535156 L 264.128906 165.417969 C 277.53125 172.484375 286.628906 186.53125 286.628906 202.695312 C 286.628906 226 267.703125 244.925781 244.390625 244.925781 C 221.078125 244.925781 202.152344 226 202.152344 202.695312 C 202.316406 186.53125 211.492188 172.484375 224.816406 165.417969 Z M 677.164062 618.175781 C 677.164062 658.539062 644.347656 691.269531 604.0625 691.269531 L 205.808594 691.269531 C 165.4375 691.269531 132.703125 658.457031 132.703125 618.175781 L 132.703125 318.503906 L 677.164062 318.503906 Z M 677.164062 618.175781 " fill-opacity="1" fill-rule="nonzero"/></g><path fill="#000000" d="M 264.777344 431.957031 L 210.273438 431.957031 C 205.890625 431.957031 202.316406 428.382812 202.316406 423.996094 L 202.316406 369.503906 C 202.316406 365.117188 205.890625 361.546875 210.273438 361.546875 L 264.777344 361.546875 C 269.164062 361.546875 272.738281 365.117188 272.738281 369.503906 L 272.738281 423.996094 C 272.65625 428.382812 269.164062 431.957031 264.777344 431.957031 Z M 264.777344 431.957031 " fill-opacity="1" fill-rule="nonzero"/><path fill="#000000" d="M 264.777344 543.707031 L 210.273438 543.707031 C 205.890625 543.707031 202.316406 540.132812 202.316406 535.746094 L 202.316406 481.253906 C 202.316406 476.867188 205.890625 473.292969 210.273438 473.292969 L 264.777344 473.292969 C 269.164062 473.292969 272.738281 476.867188 272.738281 481.253906 L 272.738281 535.746094 C 272.65625 540.214844 269.164062 543.707031 264.777344 543.707031 Z M 264.777344 543.707031 " fill-opacity="1" fill-rule="nonzero"/><path fill="#000000" d="M 264.777344 655.535156 L 210.273438 655.535156 C 205.890625 655.535156 202.316406 651.960938 202.316406 647.574219 L 202.316406 593.082031 C 202.316406 588.695312 205.890625 585.125 210.273438 585.125 L 264.777344 585.125 C 269.164062 585.125 272.738281 588.695312 272.738281 593.082031 L 272.738281 647.65625 C 272.65625 651.960938 269.164062 655.535156 264.777344 655.535156 Z M 264.777344 655.535156 " fill-opacity="1" fill-rule="nonzero"/><path fill="#000000" d="M 376.546875 431.957031 L 322.042969 431.957031 C 317.65625 431.957031 314.082031 428.382812 314.082031 423.996094 L 314.082031 369.503906 C 314.082031 365.117188 317.65625 361.546875 322.042969 361.546875 L 376.546875 361.546875 C 380.933594 361.546875 384.507812 365.117188 384.507812 369.503906 L 384.507812 423.996094 C 384.507812 428.382812 380.933594 431.957031 376.546875 431.957031 Z M 376.546875 431.957031 " fill-opacity="1" fill-rule="nonzero"/><path fill="#000000" d="M 376.546875 543.707031 L 322.042969 543.707031 C 317.65625 543.707031 314.082031 540.132812 314.082031 535.746094 L 314.082031 481.253906 C 314.082031 476.867188 317.65625 473.292969 322.042969 473.292969 L 376.546875 473.292969 C 380.933594 473.292969 384.507812 476.867188 384.507812 481.253906 L 384.507812 535.746094 C 384.507812 540.214844 380.933594 543.707031 376.546875 543.707031 Z M 376.546875 543.707031 " fill-opacity="1" fill-rule="nonzero"/><path fill="#000000" d="M 376.546875 655.535156 L 322.042969 655.535156 C 317.65625 655.535156 314.082031 651.960938 314.082031 647.574219 L 314.082031 593.082031 C 314.082031 588.695312 317.65625 585.125 322.042969 585.125 L 376.546875 585.125 C 380.933594 585.125 384.507812 588.695312 384.507812 593.082031 L 384.507812 647.65625 C 384.507812 651.960938 380.933594 655.535156 376.546875 655.535156 Z M 376.546875 655.535156 " fill-opacity="1" fill-rule="nonzero"/><path fill="#000000" d="M 488.394531 431.957031 L 433.890625 431.957031 C 429.503906 431.957031 425.929688 428.382812 425.929688 423.996094 L 425.929688 369.503906 C 425.929688 365.117188 429.503906 361.546875 433.890625 361.546875 L 488.394531 361.546875 C 492.78125 361.546875 496.355469 365.117188 496.355469 369.503906 L 496.355469 423.996094 C 496.273438 428.382812 492.78125 431.957031 488.394531 431.957031 Z M 488.394531 431.957031 " fill-opacity="1" fill-rule="nonzero"/><path fill="#000000" d="M 488.394531 543.707031 L 433.890625 543.707031 C 429.503906 543.707031 425.929688 540.132812 425.929688 535.746094 L 425.929688 481.253906 C 425.929688 476.867188 429.503906 473.292969 433.890625 473.292969 L 488.394531 473.292969 C 492.78125 473.292969 496.355469 476.867188 496.355469 481.253906 L 496.355469 535.746094 C 496.273438 540.214844 492.78125 543.707031 488.394531 543.707031 Z M 488.394531 543.707031 " fill-opacity="1" fill-rule="nonzero"/><path fill="#000000" d="M 488.394531 655.535156 L 433.890625 655.535156 C 429.503906 655.535156 425.929688 651.960938 425.929688 647.574219 L 425.929688 593.082031 C 425.929688 588.695312 429.503906 585.125 433.890625 585.125 L 488.394531 585.125 C 492.78125 585.125 496.355469 588.695312 496.355469 593.082031 L 496.355469 647.65625 C 496.273438 651.960938 492.78125 655.535156 488.394531 655.535156 Z M 488.394531 655.535156 " fill-opacity="1" fill-rule="nonzero"/><path fill="#000000" d="M 600.242188 431.957031 L 545.742188 431.957031 C 541.355469 431.957031 537.78125 428.382812 537.78125 423.996094 L 537.78125 369.503906 C 537.78125 365.117188 541.355469 361.546875 545.742188 361.546875 L 600.242188 361.546875 C 604.628906 361.546875 608.203125 365.117188 608.203125 369.503906 L 608.203125 423.996094 C 608.121094 428.382812 604.546875 431.957031 600.242188 431.957031 Z M 600.242188 431.957031 " fill-opacity="1" fill-rule="nonzero"/><path fill="#000000" d="M 600.242188 543.707031 L 545.742188 543.707031 C 541.355469 543.707031 537.78125 540.132812 537.78125 535.746094 L 537.78125 481.253906 C 537.78125 476.867188 541.355469 473.292969 545.742188 473.292969 L 600.242188 473.292969 C 604.628906 473.292969 608.203125 476.867188 608.203125 481.253906 L 608.203125 535.746094 C 608.121094 540.214844 604.546875 543.707031 600.242188 543.707031 Z M 600.242188 543.707031 " fill-opacity="1" fill-rule="nonzero"/></svg>