<svg xmlns="http://www.w3.org/2000/svg" xmlns:xlink="http://www.w3.org/1999/xlink" width="1080" zoomAndPan="magnify" viewBox="0 0 810 809.999993" height="1080" preserveAspectRatio="xMidYMid meet" version="1.0"><path fill="#000000" d="M 79.304688 292.125 L 646.925781 191.917969 L 639.605469 150.441406 C 636.296875 131.476562 618.15625 118.789062 599.140625 122.132812 L 100.269531 210.003906 C 81.355469 213.347656 68.550781 231.496094 71.941406 250.5 Z M 79.304688 292.125 " fill-opacity="1" fill-rule="nonzero"/><path fill="#000000" d="M 270.4375 402.804688 L 307.867188 402.804688 L 307.867188 480.117188 L 270.4375 480.117188 Z M 270.4375 402.804688 " fill-opacity="1" fill-rule="nonzero"/><path fill="#000000" d="M 350.738281 476.332031 L 350.738281 461.425781 L 316.257812 461.425781 L 316.257812 480.117188 L 346.953125 480.117188 C 349.023438 480.117188 350.738281 478.421875 350.738281 476.332031 Z M 350.738281 476.332031 " fill-opacity="1" fill-rule="nonzero"/><path fill="#000000" d="M 316.257812 429.878906 L 350.738281 429.878906 L 350.738281 453.0625 L 316.257812 453.0625 Z M 316.257812 429.878906 " fill-opacity="1" fill-rule="nonzero"/><path fill="#000000" d="M 350.738281 406.566406 C 350.738281 404.476562 349.023438 402.78125 346.933594 402.78125 L 316.238281 402.78125 L 316.238281 421.492188 L 350.71875 421.492188 L 350.71875 406.566406 Z M 350.738281 406.566406 " fill-opacity="1" fill-rule="nonzero"/><path fill="#000000" d="M 262.066406 402.804688 L 231.375 402.804688 C 229.28125 402.804688 227.566406 404.496094 227.566406 406.585938 L 227.566406 421.515625 L 262.046875 421.515625 L 262.046875 402.804688 Z M 262.066406 402.804688 " fill-opacity="1" fill-rule="nonzero"/><path fill="#000000" d="M 706.035156 313.40625 L 199.464844 313.363281 C 180.21875 313.363281 164.523438 329.023438 164.523438 348.320312 L 164.523438 653.996094 C 164.523438 673.273438 180.132812 688.929688 199.550781 688.890625 L 706.035156 688.890625 C 725.367188 688.929688 741.019531 673.230469 740.976562 653.976562 L 740.976562 348.300781 C 740.996094 329.042969 725.347656 313.40625 706.035156 313.40625 Z M 219.195312 406.566406 C 219.195312 399.875 224.679688 394.417969 231.375 394.417969 L 346.933594 394.417969 C 353.628906 394.417969 359.109375 399.875 359.109375 406.566406 L 359.109375 476.332031 C 359.109375 483.023438 353.628906 488.480469 346.933594 488.480469 L 231.375 488.480469 C 224.679688 488.480469 219.195312 483.023438 219.195312 476.332031 Z M 219.195312 569.910156 L 449.558594 569.910156 L 449.558594 590.816406 L 219.195312 590.816406 Z M 337.222656 635.910156 L 219.195312 635.910156 L 219.195312 615.003906 L 337.222656 615.003906 Z M 686.242188 635.910156 L 382.332031 635.910156 L 382.332031 615.003906 L 686.242188 615.003906 Z M 686.242188 590.816406 L 495.191406 590.816406 L 495.191406 569.910156 L 686.242188 569.910156 Z M 636.320312 491.363281 C 624.226562 491.363281 613.261719 486.867188 604.601562 479.71875 C 595.9375 486.867188 584.972656 491.363281 572.878906 491.363281 C 545.261719 491.363281 522.894531 469.035156 522.894531 441.460938 C 522.894531 413.882812 545.242188 391.535156 572.878906 391.535156 C 584.972656 391.535156 595.9375 396.007812 604.601562 403.199219 C 613.261719 396.007812 624.226562 391.535156 636.320312 391.535156 C 663.894531 391.535156 686.261719 413.882812 686.261719 441.460938 C 686.261719 469.035156 663.894531 491.363281 636.320312 491.363281 Z M 636.320312 491.363281 " fill-opacity="1" fill-rule="nonzero"/><path fill="#000000" d="M 227.566406 429.878906 L 262.046875 429.878906 L 262.046875 453.0625 L 227.566406 453.0625 Z M 227.566406 429.878906 " fill-opacity="1" fill-rule="nonzero"/><path fill="#000000" d="M 231.375 480.117188 L 262.066406 480.117188 L 262.066406 461.425781 L 227.566406 461.425781 L 227.566406 476.332031 C 227.566406 478.421875 229.28125 480.117188 231.375 480.117188 Z M 231.375 480.117188 " fill-opacity="1" fill-rule="nonzero"/><path fill="#000000" d="M 664.710938 296.953125 L 656.824219 252.757812 L 406.648438 296.933594 Z M 664.710938 296.953125 " fill-opacity="1" fill-rule="nonzero"/><path fill="#000000" d="M 147.679688 342.65625 L 89.203125 352.984375 L 129.375 578.148438 C 131.339844 589.25 138.414062 598.070312 147.679688 602.921875 Z M 147.679688 342.65625 " fill-opacity="1" fill-rule="nonzero"/></svg>