<svg xmlns="http://www.w3.org/2000/svg" xmlns:xlink="http://www.w3.org/1999/xlink" width="1080" zoomAndPan="magnify" viewBox="0 0 810 809.999993" height="1080" preserveAspectRatio="xMidYMid meet" version="1.0"><defs><clipPath id="b7b40edf2f"><path d="M 62.75 150 L 343 150 L 343 538 L 62.75 538 Z M 62.75 150 " clip-rule="nonzero"/></clipPath></defs><path fill="#000000" d="M 651.949219 127.984375 C 649.910156 127.984375 647.992188 126.863281 647.019531 125.035156 C 645.910156 122.972656 646.199219 120.441406 647.746094 118.683594 C 662.484375 101.90625 678.609375 86.242188 695.824219 71.953125 C 672.671875 72.804688 649.742188 76.492188 627.441406 82.96875 C 624.425781 83.832031 621.367188 82.117188 620.492188 79.160156 C 619.628906 76.179688 621.332031 73.074219 624.300781 72.210938 C 652.835938 63.929688 682.367188 60.042969 712.097656 60.613281 C 714.472656 60.65625 716.570312 62.203125 717.308594 64.46875 C 718.046875 66.730469 717.285156 69.207031 715.390625 70.652344 C 698 84 681.613281 98.769531 666.53125 114.691406 L 720.4375 107.242188 C 723.484375 106.757812 726.320312 108.957031 726.746094 112.027344 C 727.171875 115.097656 725.03125 117.921875 721.960938 118.335938 L 652.699219 127.917969 C 652.441406 127.949219 652.183594 127.972656 651.9375 127.972656 Z M 651.949219 127.984375 " fill-opacity="1" fill-rule="nonzero"/><path fill="#000000" d="M 271.570312 415.71875 C 276.414062 418.007812 282.027344 418.398438 288.257812 417.085938 C 287.25 410.296875 286.363281 403.292969 285.46875 395.910156 L 285.042969 392.390625 C 284.28125 386.25 283.507812 379.75 282.855469 372.9375 C 280.875 369.484375 279.089844 365.988281 277.78125 362.515625 C 276.414062 358.894531 275.503906 355.34375 274.808594 351.855469 C 268.769531 355.0625 261.136719 357.839844 252.777344 358.433594 C 252.363281 364.84375 252.890625 370.796875 253.246094 374.292969 C 254.15625 384.613281 256.261719 408.480469 271.582031 415.71875 Z M 271.570312 415.71875 " fill-opacity="1" fill-rule="nonzero"/><path fill="#000000" d="M 566.597656 346.578125 C 575.316406 344.089844 576.113281 341.558594 576.113281 341.535156 C 576.144531 341.335938 576.246094 339.519531 570.105469 334.441406 C 564.132812 329.5 553.609375 322.8125 536.371094 316.996094 C 538.578125 325.355469 539.441406 333.671875 538.984375 341.683594 C 545.652344 345.347656 556.175781 349.460938 566.597656 346.578125 Z M 566.597656 346.578125 " fill-opacity="1" fill-rule="nonzero"/><path fill="#000000" d="M 537.546875 415.71875 C 552.878906 408.480469 554.976562 384.613281 555.871094 374.414062 C 556.230469 370.808594 556.769531 364.832031 556.34375 358.402344 C 549.113281 357.886719 542.558594 355.78125 537.300781 353.304688 C 535.53125 360.820312 532.480469 367.804688 528.066406 373.957031 C 528.3125 388.421875 527.855469 403.148438 525.644531 417.761719 C 529.972656 418.0625 533.960938 417.402344 537.535156 415.71875 Z M 537.546875 415.71875 " fill-opacity="1" fill-rule="nonzero"/><path fill="#000000" d="M 562.832031 182.601562 C 577.882812 197.515625 585.546875 215.984375 583.84375 233.285156 C 582.746094 244.90625 577.714844 255.171875 572.851562 265.089844 C 570.800781 269.28125 568.738281 273.472656 566.988281 277.761719 C 562.25 289.628906 560.074219 302.472656 560.433594 315.089844 C 566.789062 318.386719 572.558594 321.925781 577.253906 325.804688 C 582.511719 330.152344 588.382812 336.078125 587.160156 343.375 C 586.121094 349.636719 580.257812 354.332031 569.746094 357.324219 C 569.015625 357.527344 568.300781 357.605469 567.570312 357.761719 C 567.976562 363.980469 567.582031 369.875 567.035156 375.390625 C 565.96875 387.515625 563.46875 415.867188 542.332031 425.851562 C 537.785156 428.003906 532.886719 429.089844 527.6875 429.089844 C 526.410156 429.089844 525.039062 428.742188 523.742188 428.609375 C 519.730469 446.894531 512.367188 464.804688 499.175781 481.511719 C 489.648438 493.613281 479.765625 502.601562 469.992188 509.546875 C 468.589844 518.078125 467.683594 526.660156 467.144531 535.265625 C 535.644531 534.929688 604.230469 534.503906 672.714844 534.066406 C 694.894531 533.964844 719.652344 532.542969 732.785156 516.898438 C 742.175781 505.773438 743.566406 489.613281 744.25 472.660156 C 747.511719 382.191406 746.984375 291.34375 742.679688 202.636719 C 741.851562 184.742188 736.695312 173.167969 727.382812 168.203125 C 721.1875 165.007812 713.621094 163.855469 705.789062 162.867188 C 645.4375 155.707031 582.308594 151.449219 513.453125 149.824219 C 515.167969 151.046875 516.859375 152.277344 518.707031 153.265625 C 534.5 161.679688 550.199219 170.0625 562.84375 182.589844 Z M 636.214844 241.949219 C 662.429688 232.15625 691.015625 228.03125 718.898438 230.015625 C 721.1875 230.171875 723.148438 231.71875 723.84375 233.902344 C 724.539062 236.089844 723.832031 238.484375 722.050781 239.941406 C 707.816406 251.585938 693.191406 263.554688 682.308594 278.257812 L 709.015625 275.085938 C 712.097656 274.726562 714.875 276.921875 715.246094 279.992188 C 715.605469 283.0625 713.410156 285.855469 710.339844 286.222656 L 671.730469 290.808594 C 671.503906 290.828125 671.28125 290.839844 671.070312 290.839844 C 669.195312 290.839844 667.449219 289.910156 666.394531 288.332031 C 665.230469 286.570312 665.152344 284.296875 666.195312 282.457031 C 675.628906 265.882812 689.628906 252.527344 703.511719 240.75 C 681.949219 240.953125 660.296875 244.917969 640.136719 252.449219 C 637.234375 253.511719 634.019531 252.054688 632.929688 249.164062 C 631.84375 246.273438 633.324219 243.046875 636.214844 241.960938 Z M 633.175781 379.859375 C 658.730469 372.0625 685.222656 367.320312 711.917969 365.765625 C 714.394531 365.617188 716.636719 367.085938 717.5 369.394531 C 718.363281 371.703125 717.621094 374.292969 715.671875 375.792969 L 665.621094 414.476562 L 696.105469 410.519531 C 699.199219 410.183594 701.988281 412.292969 702.382812 415.363281 C 702.773438 418.421875 700.609375 421.234375 697.539062 421.636719 L 646.558594 428.238281 C 646.3125 428.269531 646.078125 428.28125 645.832031 428.28125 C 643.589844 428.28125 641.539062 426.9375 640.664062 424.832031 C 639.699219 422.5 640.417969 419.800781 642.414062 418.253906 L 693.71875 378.59375 C 674.320312 380.871094 655.132812 384.882812 636.460938 390.574219 C 633.46875 391.492188 630.375 389.8125 629.46875 386.855469 C 628.558594 383.894531 630.230469 380.769531 633.1875 379.859375 Z M 633.175781 379.859375 " fill-opacity="1" fill-rule="nonzero"/><path fill="#000000" d="M 493.292969 258.097656 C 493.011719 256.796875 492.652344 255.082031 492.203125 254.523438 C 491.351562 253.480469 488.101562 253.289062 485.726562 253.144531 C 463.414062 251.945312 441.257812 244.132812 422.652344 231.179688 C 415.941406 237.253906 408.039062 242.273438 399.800781 245.757812 C 391.105469 249.410156 382.027344 252.066406 373.253906 254.632812 C 359.234375 258.734375 345.984375 262.601562 334.464844 270.152344 C 329.164062 273.59375 324.15625 278.007812 319.179688 283.378906 C 347.230469 277.371094 375.808594 274.097656 404.496094 273.671875 C 435.6875 273.125 466.886719 276.195312 497.515625 282.378906 C 496.09375 274.289062 494.648438 266.1875 493.300781 258.097656 Z M 493.292969 258.097656 " fill-opacity="1" fill-rule="nonzero"/><path fill="#000000" d="M 330.488281 395.179688 C 343.699219 396.660156 352.441406 390.203125 362.539062 382.753906 C 373.34375 374.785156 385.714844 365.953125 404.722656 366.28125 C 418.71875 366.683594 426.777344 371.917969 434.566406 376.992188 C 442.277344 382.011719 449.539062 386.742188 463.671875 387.863281 C 472.402344 388.566406 502.113281 389.21875 518.023438 368.980469 C 531.921875 351.308594 531.160156 322.398438 516.34375 298.011719 C 479.855469 288.734375 442.289062 284.320312 404.667969 284.878906 C 368.558594 285.40625 332.605469 290.527344 297.75 300.097656 C 293.503906 306.003906 277.746094 330.667969 288.28125 358.535156 C 295.710938 378.191406 313.070312 393.253906 330.507812 395.167969 Z M 330.488281 395.179688 " fill-opacity="1" fill-rule="nonzero"/><path fill="#000000" d="M 456.597656 578.667969 C 454.582031 558.273438 455.03125 537.710938 457.628906 517.359375 C 442.601562 525.472656 428.390625 528.914062 416.992188 530.023438 C 413.609375 530.347656 410.28125 530.492188 407.03125 530.492188 C 384.988281 530.492188 366.148438 523.464844 351.207031 514.769531 C 354.121094 535.792969 354.671875 557.21875 352.542969 578.679688 C 352.363281 580.503906 351.296875 582.128906 349.695312 583.027344 C 336.617188 590.300781 323.605469 597.089844 310.550781 603.601562 C 312.554688 609.4375 314.550781 615.3125 316.546875 621.261719 L 319.671875 630.574219 C 323.246094 641.296875 333.367188 648.671875 344.875 648.953125 C 364.367188 649.410156 444.585938 649.410156 464.074219 648.953125 C 475.5625 648.671875 485.691406 641.296875 489.257812 630.597656 L 492.394531 621.261719 C 494.402344 615.277344 496.40625 609.371094 498.425781 603.5 C 485.433594 597.023438 472.492188 590.265625 459.46875 583.027344 C 457.867188 582.128906 456.800781 580.503906 456.621094 578.679688 Z M 456.597656 578.667969 " fill-opacity="1" fill-rule="nonzero"/><path fill="#000000" d="M 277.410156 315.617188 C 261.484375 320.558594 248.25 326.945312 239.046875 334.511719 C 232.816406 339.621094 233.042969 341.445312 233.054688 341.527344 C 233.054688 341.546875 233.871094 344.179688 242.566406 346.589844 C 254.277344 349.808594 266.191406 344.339844 273.5 339.765625 C 273.386719 330.789062 275.046875 322.609375 277.398438 315.628906 Z M 277.410156 315.617188 " fill-opacity="1" fill-rule="nonzero"/><path fill="#000000" d="M 464.320312 660.144531 C 454.246094 660.371094 429.34375 660.484375 404.441406 660.484375 C 379.539062 660.484375 354.660156 660.371094 344.597656 660.144531 C 328.378906 659.753906 314.089844 649.300781 309.035156 634.125 L 305.910156 624.8125 C 304.070312 619.335938 302.246094 613.945312 300.394531 608.566406 C 287.429688 614.828125 274.382812 620.835938 261.082031 626.515625 C 253.203125 629.890625 246.480469 632.625 240.292969 635.078125 C 248.777344 673.011719 252.351562 711.683594 250.996094 750.230469 L 558.148438 750.230469 C 556.777344 711.671875 560.367188 673 568.847656 635.078125 C 562.664062 632.625 555.9375 629.890625 548.058594 626.515625 C 534.691406 620.800781 521.578125 614.773438 508.542969 608.464844 C 506.695312 613.875 504.847656 619.289062 503.007812 624.800781 L 499.871094 634.136719 C 494.828125 649.289062 480.539062 659.742188 464.332031 660.136719 Z M 464.320312 660.144531 " fill-opacity="1" fill-rule="nonzero"/><path fill="#000000" d="M 667.113281 750.242188 C 669.410156 750.242188 670.8125 748.941406 671.4375 748.167969 C 672.546875 746.8125 672.972656 745.042969 672.613281 743.328125 C 664.378906 703.972656 648.519531 675.800781 625.476562 659.5625 C 615.964844 652.863281 607.445312 649.703125 591.992188 643.941406 C 588.226562 642.542969 583.96875 640.9375 579.441406 639.214844 C 571.40625 675.800781 567.996094 713.074219 569.34375 750.230469 L 667.113281 750.230469 Z M 667.113281 750.242188 " fill-opacity="1" fill-rule="nonzero"/><path fill="#000000" d="M 490.378906 474.585938 C 510.964844 448.507812 516.5 419.6875 516.90625 385.375 C 497.347656 400.121094 471.335938 399.671875 462.796875 399.035156 C 445.828125 397.691406 436.605469 391.683594 428.46875 386.382812 C 422.136719 382.269531 416.757812 379.03125 408.566406 377.96875 C 407.457031 381.082031 406.210938 384.109375 404.890625 386.933594 C 401.886719 393.351562 399.332031 398.800781 398.9375 404.378906 C 398.625 408.761719 400.148438 414.421875 404.261719 416.515625 C 407.019531 417.917969 408.117188 421.289062 406.707031 424.046875 C 405.71875 425.984375 403.746094 427.105469 401.707031 427.105469 C 400.855469 427.105469 399.980469 426.902344 399.164062 426.488281 C 390.46875 422.050781 387.171875 411.789062 387.753906 403.574219 C 388.292969 395.929688 391.417969 389.273438 394.433594 382.832031 C 395.21875 381.160156 395.914062 379.59375 396.574219 378.023438 C 385.59375 379.726562 377.589844 385.597656 369.207031 391.773438 C 359.300781 399.078125 349.101562 406.609375 334.296875 406.609375 C 332.671875 406.609375 331.003906 406.519531 329.265625 406.328125 C 316.253906 404.894531 304.980469 398.484375 296.046875 389.933594 C 296.09375 390.292969 296.125 390.675781 296.171875 391.035156 L 296.609375 394.574219 C 300.699219 428.292969 303.65625 452.65625 322.855469 476.445312 C 329.308594 484.378906 364.253906 523.792969 415.917969 518.882812 C 435.484375 516.988281 464.300781 507.753906 490.378906 474.597656 Z M 428.023438 459.871094 C 419.808594 462.910156 411.078125 464.457031 402.335938 464.457031 C 398.839844 464.457031 395.332031 464.210938 391.855469 463.714844 C 388.796875 463.269531 386.667969 460.433594 387.105469 457.375 C 387.554688 454.324219 390.34375 452.230469 393.449219 452.621094 C 403.734375 454.113281 414.359375 452.980469 424.121094 449.371094 C 427 448.285156 430.25 449.785156 431.316406 452.679688 C 432.390625 455.582031 430.914062 458.796875 428.011719 459.871094 Z M 428.023438 459.871094 " fill-opacity="1" fill-rule="nonzero"/><g clip-path="url(#b7b40edf2f)"><path fill="#000000" d="M 135.238281 537.328125 C 204.183594 536.890625 273.152344 536.464844 342.121094 536.128906 C 341.527344 526.167969 340.371094 516.273438 338.625 506.5 C 325.589844 496.851562 317.117188 487.136719 314.136719 483.484375 C 300.027344 466 293.894531 448.152344 290.117188 428.136719 C 287.25 428.707031 284.414062 429.078125 281.679688 429.078125 C 276.355469 429.078125 271.335938 428.003906 266.773438 425.851562 C 245.636719 415.867188 243.140625 387.515625 242.074219 375.402344 C 241.523438 369.886719 241.132812 363.992188 241.535156 357.773438 C 240.886719 357.628906 240.246094 357.5625 239.609375 357.382812 C 228.972656 354.445312 223.042969 349.726562 221.992188 343.351562 C 220.78125 336.058594 226.664062 330.164062 231.921875 325.835938 C 233.109375 324.863281 234.566406 324.011719 235.84375 323.082031 C 229.734375 306.988281 226.585938 293.753906 226.027344 280.945312 C 224.960938 257.535156 239.910156 228.746094 259.175781 216.1875 C 259.613281 202.648438 260.261719 188.789062 263.738281 175.304688 C 265.574219 168.191406 268.792969 159.417969 274.226562 151.15625 C 244.226562 151.257812 214.023438 150.957031 184.671875 150.609375 L 154.570312 150.261719 C 126.214844 149.945312 95.53125 152.433594 82.519531 173.59375 C 75.894531 184.261719 75.335938 197.929688 74.832031 210 C 73.464844 240.882812 71.546875 272.203125 69.675781 302.496094 C 66.640625 351.9375 63.492188 403.070312 62.726562 453.363281 L 62.726562 486.890625 C 62.90625 495.183594 63.738281 507.328125 68.847656 515.679688 C 80.683594 534.941406 109.113281 537.261719 135.214844 537.316406 Z M 135.238281 537.328125 " fill-opacity="1" fill-rule="nonzero"/></g><path fill="#000000" d="M 267.4375 224.300781 C 250.414062 233.800781 236.3125 260.035156 237.246094 280.453125 C 237.726562 291.433594 240.414062 302.964844 245.515625 316.859375 C 255.949219 310.988281 268.511719 306.082031 283.226562 302.257812 C 286.644531 295.960938 289.726562 292.085938 290.097656 291.648438 C 290.824219 290.761719 291.8125 290.113281 292.910156 289.808594 C 295.589844 289.058594 298.300781 288.519531 300.988281 287.824219 C 309.933594 275.746094 318.664062 267.050781 328.347656 260.761719 C 341.246094 252.3125 355.914062 248.023438 370.113281 243.863281 C 378.597656 241.386719 387.363281 238.820312 395.453125 235.414062 C 415.683594 226.867188 433.984375 207.972656 429.804688 188.40625 C 429.152344 185.378906 431.082031 182.398438 434.105469 181.761719 C 437.089844 181.066406 440.113281 183.039062 440.753906 186.0625 C 443.597656 199.378906 438.949219 212.207031 430.410156 222.933594 C 447.039062 234.136719 466.617188 240.882812 486.230469 241.9375 C 490.835938 242.207031 496.933594 242.566406 500.921875 247.472656 C 503.074219 250.152344 503.726562 253.253906 504.242188 255.742188 C 505.933594 265.816406 507.636719 275.433594 509.328125 285.023438 C 513.316406 285.945312 517.332031 286.683594 521.296875 287.714844 C 522.664062 288.074219 523.839844 288.925781 524.605469 290.101562 C 527.484375 294.582031 529.804688 299.210938 531.84375 303.882812 C 538.03125 305.667969 543.777344 307.71875 549.226562 309.9375 C 549.539062 297.574219 551.960938 285.171875 556.601562 273.570312 C 558.460938 269 560.625 264.5625 562.796875 260.148438 C 567.425781 250.710938 571.796875 241.804688 572.703125 232.199219 C 574.070312 218.246094 567.59375 203.074219 554.953125 190.546875 C 543.488281 179.183594 528.515625 171.195312 514.046875 163.472656 C 501.5625 156.839844 492.71875 146.371094 484.179688 136.253906 C 476.234375 126.839844 468.726562 117.953125 459.199219 112.554688 C 437.378906 100.191406 413.753906 95.039062 392.707031 98.097656 C 369.195312 101.378906 348.710938 115.410156 339.226562 134.695312 C 338.039062 137.117188 335.273438 138.328125 332.695312 137.621094 C 320.558594 134.226562 305.304688 137.296875 294.734375 145.21875 C 285.421875 152.246094 278.273438 163.933594 274.609375 178.109375 C 271.191406 191.386719 270.742188 205.6875 270.304688 219.527344 C 270.25 221.496094 269.152344 223.335938 267.4375 224.289062 Z M 267.4375 224.300781 " fill-opacity="1" fill-rule="nonzero"/><path fill="#000000" d="M 217.140625 643.953125 C 201.683594 649.703125 193.167969 652.875 183.640625 659.574219 C 160.609375 675.800781 144.753906 703.984375 136.503906 743.339844 C 136.144531 745.042969 136.570312 746.8125 137.679688 748.167969 C 138.308594 748.941406 139.710938 750.242188 142.007812 750.242188 L 239.777344 750.242188 C 241.121094 713.082031 237.714844 675.8125 229.679688 639.226562 C 225.152344 640.949219 220.894531 642.554688 217.128906 643.953125 Z M 217.140625 643.953125 " fill-opacity="1" fill-rule="nonzero"/></svg>