<svg xmlns="http://www.w3.org/2000/svg" xmlns:xlink="http://www.w3.org/1999/xlink" width="500" zoomAndPan="magnify" viewBox="0 0 375 374.999991" height="500" preserveAspectRatio="xMidYMid meet" version="1.0"><defs><g/></defs><g fill="#ffa500" fill-opacity="0.4"><g transform="translate(19.312027, 202.595033)"><g><path d="M 16.6875 -29.984375 C 18.351562 -29.984375 19.890625 -29.78125 21.296875 -29.375 C 22.710938 -28.96875 24.148438 -28.335938 25.609375 -27.484375 L 26.625 -28.328125 C 27.34375 -28.890625 27.929688 -29.273438 28.390625 -29.484375 C 28.847656 -29.691406 29.378906 -29.796875 29.984375 -29.796875 C 30.691406 -29.796875 31.253906 -29.640625 31.671875 -29.328125 C 32.085938 -29.015625 32.296875 -28.5625 32.296875 -27.96875 C 32.296875 -27.726562 32.25 -27.476562 32.15625 -27.21875 L 30.296875 -21.0625 C 30.085938 -20.34375 29.828125 -19.832031 29.515625 -19.53125 C 29.203125 -19.238281 28.734375 -19.09375 28.109375 -19.09375 C 27.453125 -19.09375 26.878906 -19.289062 26.390625 -19.6875 C 25.898438 -20.09375 25.132812 -20.921875 24.09375 -22.171875 C 23.050781 -23.359375 22.101562 -24.195312 21.25 -24.6875 C 20.40625 -25.175781 19.535156 -25.421875 18.640625 -25.421875 C 17.992188 -25.421875 17.445312 -25.207031 17 -24.78125 C 16.550781 -24.351562 16.328125 -23.828125 16.328125 -23.203125 C 16.328125 -22.484375 16.679688 -21.816406 17.390625 -21.203125 C 18.109375 -20.597656 19.226562 -19.835938 20.75 -18.921875 C 22.289062 -17.992188 23.566406 -17.15625 24.578125 -16.40625 C 25.585938 -15.664062 26.445312 -14.742188 27.15625 -13.640625 C 27.875 -12.546875 28.234375 -11.285156 28.234375 -9.859375 C 28.234375 -8.929688 28.085938 -8.007812 27.796875 -7.09375 C 27.078125 -4.71875 25.691406 -2.910156 23.640625 -1.671875 C 21.585938 -0.441406 19.191406 0.171875 16.453125 0.171875 C 14.398438 0.171875 12.675781 -0.0625 11.28125 -0.53125 C 9.882812 -1.007812 8.457031 -1.8125 7 -2.9375 L 5.390625 -1.609375 C 4.648438 -0.984375 4.039062 -0.554688 3.5625 -0.328125 C 3.09375 -0.109375 2.5625 0 1.96875 0 C 1.28125 0 0.734375 -0.160156 0.328125 -0.484375 C -0.0664062 -0.816406 -0.265625 -1.265625 -0.265625 -1.828125 C -0.265625 -2.128906 -0.207031 -2.441406 -0.09375 -2.765625 L 2.09375 -9.40625 C 2.332031 -10.1875 2.660156 -10.738281 3.078125 -11.0625 C 3.492188 -11.382812 4.03125 -11.546875 4.6875 -11.546875 C 5.363281 -11.546875 5.976562 -11.304688 6.53125 -10.828125 C 7.082031 -10.359375 7.804688 -9.5 8.703125 -8.25 C 9.648438 -6.882812 10.53125 -5.929688 11.34375 -5.390625 C 12.164062 -4.859375 13.144531 -4.59375 14.28125 -4.59375 C 15.082031 -4.59375 15.695312 -4.71875 16.125 -4.96875 C 16.550781 -5.226562 16.859375 -5.640625 17.046875 -6.203125 C 17.097656 -6.347656 17.125 -6.570312 17.125 -6.875 C 17.125 -7.582031 16.78125 -8.234375 16.09375 -8.828125 C 15.414062 -9.421875 14.363281 -10.132812 12.9375 -10.96875 C 11.414062 -11.894531 10.179688 -12.722656 9.234375 -13.453125 C 8.285156 -14.179688 7.457031 -15.09375 6.75 -16.1875 C 6.050781 -17.289062 5.703125 -18.585938 5.703125 -20.078125 C 5.703125 -21.117188 5.867188 -22.144531 6.203125 -23.15625 C 6.828125 -25.207031 8.101562 -26.859375 10.03125 -28.109375 C 11.96875 -29.359375 14.1875 -29.984375 16.6875 -29.984375 Z M 16.6875 -29.984375 "/></g></g></g><g fill="#ffa500" fill-opacity="0.4"><g transform="translate(50.047051, 202.595033)"><g><path d="M 27.609375 -6.15625 C 27.554688 -6.039062 27.53125 -5.863281 27.53125 -5.625 C 27.53125 -5.414062 27.582031 -5.25 27.6875 -5.125 C 27.789062 -5.007812 27.929688 -4.953125 28.109375 -4.953125 C 28.460938 -4.953125 28.765625 -5.109375 29.015625 -5.421875 C 29.265625 -5.734375 29.4375 -5.890625 29.53125 -5.890625 C 29.675781 -5.890625 29.789062 -5.789062 29.875 -5.59375 C 29.96875 -5.40625 30.015625 -5.175781 30.015625 -4.90625 C 30.046875 -4.039062 29.765625 -3.195312 29.171875 -2.375 C 28.578125 -1.5625 27.707031 -0.894531 26.5625 -0.375 C 25.414062 0.144531 24.039062 0.40625 22.4375 0.40625 C 20.476562 0.40625 18.914062 -0.046875 17.75 -0.953125 C 16.59375 -1.859375 16 -3.070312 15.96875 -4.59375 C 15.96875 -5.695312 16.234375 -6.929688 16.765625 -8.296875 L 19.234375 -14.71875 C 19.378906 -15.101562 19.453125 -15.414062 19.453125 -15.65625 C 19.453125 -16.039062 19.320312 -16.34375 19.0625 -16.5625 C 18.8125 -16.789062 18.507812 -16.90625 18.15625 -16.90625 C 17.5 -16.90625 16.875 -16.597656 16.28125 -15.984375 C 15.6875 -15.378906 15.253906 -14.628906 14.984375 -13.734375 L 12.21875 -4.640625 C 12.101562 -4.316406 12.046875 -4.003906 12.046875 -3.703125 C 12.046875 -3.347656 12.117188 -3.054688 12.265625 -2.828125 C 12.410156 -2.609375 12.617188 -2.378906 12.890625 -2.140625 C 13.097656 -1.960938 13.242188 -1.796875 13.328125 -1.640625 C 13.421875 -1.492188 13.4375 -1.316406 13.375 -1.109375 C 13.257812 -0.722656 12.976562 -0.441406 12.53125 -0.265625 C 12.082031 -0.0859375 11.382812 0 10.4375 0 L 0.265625 0 C -0.503906 0 -1.0625 -0.125 -1.40625 -0.375 C -1.75 -0.632812 -1.875 -0.972656 -1.78125 -1.390625 C -1.664062 -1.742188 -1.351562 -2.050781 -0.84375 -2.3125 C -0.394531 -2.550781 -0.0234375 -2.832031 0.265625 -3.15625 C 0.566406 -3.488281 0.820312 -4.015625 1.03125 -4.734375 L 5 -17.625 C 5.050781 -17.769531 5.078125 -17.976562 5.078125 -18.25 C 5.078125 -18.570312 5.007812 -18.820312 4.875 -19 C 4.75 -19.175781 4.535156 -19.398438 4.234375 -19.671875 C 3.941406 -19.910156 3.734375 -20.117188 3.609375 -20.296875 C 3.492188 -20.472656 3.476562 -20.710938 3.5625 -21.015625 C 3.75 -21.691406 4.6875 -22.289062 6.375 -22.8125 C 8.070312 -23.332031 9.84375 -23.59375 11.6875 -23.59375 C 13.175781 -23.59375 14.347656 -23.179688 15.203125 -22.359375 C 16.066406 -21.546875 16.457031 -20.410156 16.375 -18.953125 C 17.59375 -20.710938 18.882812 -21.925781 20.25 -22.59375 C 21.613281 -23.257812 23.101562 -23.59375 24.71875 -23.59375 C 26.53125 -23.59375 27.992188 -23.039062 29.109375 -21.9375 C 30.222656 -20.84375 30.78125 -19.421875 30.78125 -17.671875 C 30.78125 -16.742188 30.628906 -15.832031 30.328125 -14.9375 Z M 27.609375 -6.15625 "/></g></g></g><g fill="#ffa500" fill-opacity="0.4"><g transform="translate(81.986496, 202.595033)"><g><path d="M 15.921875 -23.59375 C 19.347656 -23.59375 22.085938 -22.960938 24.140625 -21.703125 C 26.191406 -20.441406 27.21875 -18.515625 27.21875 -15.921875 C 27.21875 -14.941406 27.035156 -13.828125 26.671875 -12.578125 L 24.84375 -6.421875 C 24.8125 -6.304688 24.796875 -6.160156 24.796875 -5.984375 C 24.796875 -5.503906 24.988281 -5.265625 25.375 -5.265625 C 25.738281 -5.265625 26.046875 -5.421875 26.296875 -5.734375 C 26.546875 -6.046875 26.71875 -6.203125 26.8125 -6.203125 C 26.957031 -6.203125 27.082031 -6.097656 27.1875 -5.890625 C 27.289062 -5.679688 27.34375 -5.441406 27.34375 -5.171875 C 27.375 -4.367188 27.066406 -3.550781 26.421875 -2.71875 C 25.785156 -1.882812 24.929688 -1.195312 23.859375 -0.65625 C 22.796875 -0.125 21.625 0.140625 20.34375 0.140625 C 18.789062 0.140625 17.460938 -0.140625 16.359375 -0.703125 C 15.265625 -1.273438 14.507812 -2.113281 14.09375 -3.21875 C 13.207031 -2.144531 12.148438 -1.316406 10.921875 -0.734375 C 9.703125 -0.148438 8.394531 0.140625 7 0.140625 C 5.425781 0.140625 4.101562 -0.160156 3.03125 -0.765625 C 1.957031 -1.378906 1.160156 -2.171875 0.640625 -3.140625 C 0.117188 -4.109375 -0.140625 -5.128906 -0.140625 -6.203125 C -0.140625 -6.679688 -0.09375 -7.140625 0 -7.578125 C 0.476562 -9.628906 1.507812 -11.175781 3.09375 -12.21875 C 4.6875 -13.257812 6.582031 -13.78125 8.78125 -13.78125 C 11.25 -13.78125 13.675781 -13.394531 16.0625 -12.625 L 17.171875 -15.5625 C 17.554688 -16.8125 17.75 -17.78125 17.75 -18.46875 C 17.71875 -19.175781 17.476562 -19.707031 17.03125 -20.0625 C 16.59375 -20.425781 15.910156 -20.609375 14.984375 -20.609375 C 15.160156 -20.128906 15.25 -19.640625 15.25 -19.140625 C 15.25 -18.035156 14.832031 -17.082031 14 -16.28125 C 13.175781 -15.476562 11.988281 -15.078125 10.4375 -15.078125 C 8.976562 -15.078125 7.835938 -15.394531 7.015625 -16.03125 C 6.203125 -16.675781 5.796875 -17.472656 5.796875 -18.421875 C 5.796875 -19.910156 6.628906 -21.144531 8.296875 -22.125 C 9.960938 -23.101562 12.503906 -23.59375 15.921875 -23.59375 Z M 13.421875 -10.078125 C 12.585938 -10.078125 11.910156 -9.753906 11.390625 -9.109375 C 10.867188 -8.472656 10.609375 -7.785156 10.609375 -7.046875 C 10.609375 -6.566406 10.71875 -6.175781 10.9375 -5.875 C 11.164062 -5.582031 11.488281 -5.4375 11.90625 -5.4375 C 12.289062 -5.4375 12.710938 -5.59375 13.171875 -5.90625 C 13.640625 -6.21875 13.976562 -6.6875 14.1875 -7.3125 L 15.125 -9.953125 C 14.613281 -10.035156 14.046875 -10.078125 13.421875 -10.078125 Z M 13.421875 -10.078125 "/></g></g></g><g fill="#ffa500" fill-opacity="0.4"><g transform="translate(111.160233, 202.595033)"><g><path d="M 16.1875 -23.828125 C 18.007812 -23.828125 19.601562 -23.566406 20.96875 -23.046875 C 22.332031 -22.523438 23.394531 -21.804688 24.15625 -20.890625 C 24.914062 -19.984375 25.296875 -18.984375 25.296875 -17.890625 C 25.296875 -16.703125 24.882812 -15.71875 24.0625 -14.9375 C 23.25 -14.164062 22.144531 -13.78125 20.75 -13.78125 C 19.320312 -13.78125 18.203125 -14.144531 17.390625 -14.875 C 16.585938 -15.601562 16.1875 -16.59375 16.1875 -17.84375 C 16.1875 -18.4375 16.273438 -19.0625 16.453125 -19.71875 C 15.210938 -19.394531 14.109375 -18.75 13.140625 -17.78125 C 12.171875 -16.8125 11.523438 -15.539062 11.203125 -13.96875 C 11.015625 -13.070312 10.921875 -12.265625 10.921875 -11.546875 C 10.921875 -9.941406 11.367188 -8.722656 12.265625 -7.890625 C 13.160156 -7.054688 14.441406 -6.640625 16.109375 -6.640625 C 17.054688 -6.640625 17.867188 -6.738281 18.546875 -6.9375 C 19.234375 -7.132812 19.9375 -7.394531 20.65625 -7.71875 C 21.25 -8.007812 21.679688 -8.15625 21.953125 -8.15625 C 22.128906 -8.15625 22.242188 -8.117188 22.296875 -8.046875 C 22.359375 -7.972656 22.390625 -7.816406 22.390625 -7.578125 C 22.421875 -6.484375 21.96875 -5.332031 21.03125 -4.125 C 20.09375 -2.914062 18.796875 -1.898438 17.140625 -1.078125 C 15.492188 -0.265625 13.644531 0.140625 11.59375 0.140625 C 9.457031 0.140625 7.5625 -0.253906 5.90625 -1.046875 C 4.257812 -1.835938 2.984375 -2.96875 2.078125 -4.4375 C 1.171875 -5.90625 0.71875 -7.625 0.71875 -9.59375 C 0.71875 -10.507812 0.835938 -11.535156 1.078125 -12.671875 C 1.878906 -16.359375 3.65625 -19.140625 6.40625 -21.015625 C 9.15625 -22.890625 12.414062 -23.828125 16.1875 -23.828125 Z M 16.1875 -23.828125 "/></g></g></g><g fill="#ffa500" fill-opacity="0.4"><g transform="translate(135.337853, 202.595033)"><g><path d="M 26.453125 -23.59375 C 28.148438 -23.59375 29.507812 -23.125 30.53125 -22.1875 C 31.5625 -21.25 32.078125 -20.113281 32.078125 -18.78125 C 32.078125 -17.351562 31.644531 -16.238281 30.78125 -15.4375 C 29.914062 -14.632812 28.785156 -14.234375 27.390625 -14.234375 C 26.140625 -14.234375 25.171875 -14.550781 24.484375 -15.1875 C 23.804688 -15.832031 23.484375 -16.554688 23.515625 -17.359375 C 23.210938 -17.410156 22.957031 -17.285156 22.75 -16.984375 C 22.539062 -16.691406 22.316406 -16.113281 22.078125 -15.25 C 21.929688 -14.6875 21.648438 -14.164062 21.234375 -13.6875 C 23.253906 -13.539062 24.753906 -13.082031 25.734375 -12.3125 C 26.722656 -11.539062 27.21875 -10.546875 27.21875 -9.328125 C 27.21875 -8.734375 27.113281 -8.132812 26.90625 -7.53125 L 26.546875 -6.15625 C 26.484375 -6.007812 26.453125 -5.816406 26.453125 -5.578125 C 26.453125 -5.160156 26.644531 -4.953125 27.03125 -4.953125 C 27.382812 -4.953125 27.6875 -5.109375 27.9375 -5.421875 C 28.195312 -5.734375 28.367188 -5.890625 28.453125 -5.890625 C 28.609375 -5.890625 28.726562 -5.789062 28.8125 -5.59375 C 28.90625 -5.40625 28.953125 -5.175781 28.953125 -4.90625 C 28.984375 -4.039062 28.722656 -3.195312 28.171875 -2.375 C 27.617188 -1.5625 26.785156 -0.894531 25.671875 -0.375 C 24.554688 0.144531 23.210938 0.40625 21.640625 0.40625 C 19.734375 0.40625 18.144531 -0.0664062 16.875 -1.015625 C 15.613281 -1.972656 14.984375 -3.222656 14.984375 -4.765625 C 14.984375 -5.335938 15.101562 -5.976562 15.34375 -6.6875 L 16.1875 -8.921875 C 16.34375 -9.453125 16.421875 -9.835938 16.421875 -10.078125 C 16.421875 -10.460938 16.289062 -10.742188 16.03125 -10.921875 C 15.78125 -11.109375 15.390625 -11.203125 14.859375 -11.203125 L 13.96875 -11.203125 L 11.953125 -4.640625 C 11.867188 -4.285156 11.828125 -3.972656 11.828125 -3.703125 C 11.828125 -3.316406 11.898438 -3.007812 12.046875 -2.78125 C 12.191406 -2.5625 12.398438 -2.347656 12.671875 -2.140625 C 12.878906 -1.929688 13.023438 -1.757812 13.109375 -1.625 C 13.203125 -1.488281 13.21875 -1.316406 13.15625 -1.109375 C 13.007812 -0.722656 12.710938 -0.441406 12.265625 -0.265625 C 11.816406 -0.0859375 11.132812 0 10.21875 0 L 0.046875 0 C -0.722656 0 -1.285156 -0.125 -1.640625 -0.375 C -2.003906 -0.632812 -2.125 -0.972656 -2 -1.390625 C -1.882812 -1.742188 -1.578125 -2.050781 -1.078125 -2.3125 C -0.628906 -2.550781 -0.257812 -2.832031 0.03125 -3.15625 C 0.332031 -3.488281 0.585938 -4.015625 0.796875 -4.734375 L 7.578125 -26.984375 C 7.671875 -27.253906 7.71875 -27.476562 7.71875 -27.65625 C 7.71875 -27.988281 7.632812 -28.253906 7.46875 -28.453125 C 7.3125 -28.660156 7.097656 -28.867188 6.828125 -29.078125 C 6.523438 -29.316406 6.304688 -29.523438 6.171875 -29.703125 C 6.046875 -29.890625 6.023438 -30.128906 6.109375 -30.421875 C 6.285156 -31.109375 7.222656 -31.703125 8.921875 -32.203125 C 10.617188 -32.710938 12.390625 -32.96875 14.234375 -32.96875 C 15.953125 -32.96875 17.210938 -32.644531 18.015625 -32 C 18.828125 -31.363281 19.234375 -30.484375 19.234375 -29.359375 C 19.234375 -28.671875 19.128906 -28.015625 18.921875 -27.390625 L 15.03125 -14.71875 L 16.5 -14.71875 C 17.09375 -14.71875 17.578125 -14.894531 17.953125 -15.25 C 18.328125 -15.613281 18.617188 -16.132812 18.828125 -16.8125 C 19.566406 -19.019531 20.53125 -20.703125 21.71875 -21.859375 C 22.914062 -23.015625 24.492188 -23.59375 26.453125 -23.59375 Z M 26.453125 -23.59375 "/></g></g></g><g fill="#ffa500" fill-opacity="0.4"><g transform="translate(166.518954, 202.595033)"><g><path d="M 17.625 -29.703125 C 20.59375 -29.703125 23.171875 -29.28125 25.359375 -28.4375 C 27.546875 -27.59375 29.210938 -26.484375 30.359375 -25.109375 C 31.503906 -23.742188 32.078125 -22.289062 32.078125 -20.75 C 32.078125 -20.175781 31.988281 -19.59375 31.8125 -19 C 31.394531 -17.75 30.691406 -16.765625 29.703125 -16.046875 C 28.722656 -15.335938 27.222656 -14.691406 25.203125 -14.109375 C 23.179688 -13.535156 20.070312 -12.847656 15.875 -12.046875 C 13.351562 -11.566406 11.457031 -11.140625 10.1875 -10.765625 C 8.925781 -10.398438 8.050781 -10.007812 7.5625 -9.59375 C 7.070312 -9.175781 6.796875 -8.640625 6.734375 -7.984375 L 19.578125 -7.984375 C 21.367188 -7.984375 22.722656 -8.21875 23.640625 -8.6875 C 24.566406 -9.164062 25.429688 -9.804688 26.234375 -10.609375 C 26.585938 -11.003906 26.875 -11.28125 27.09375 -11.4375 C 27.320312 -11.601562 27.582031 -11.6875 27.875 -11.6875 C 28.414062 -11.6875 28.90625 -11.320312 29.34375 -10.59375 C 29.789062 -9.863281 30.015625 -8.9375 30.015625 -7.8125 C 30.015625 -7.0625 29.882812 -6.210938 29.625 -5.265625 C 29.03125 -3.359375 27.957031 -2.003906 26.40625 -1.203125 C 24.863281 -0.398438 22.53125 0 19.40625 0 L 3.65625 0 C 2.707031 0 1.941406 -0.398438 1.359375 -1.203125 C 0.773438 -2.003906 0.484375 -3.085938 0.484375 -4.453125 C 0.484375 -5.472656 0.664062 -6.578125 1.03125 -7.765625 C 1.65625 -9.816406 2.796875 -11.472656 4.453125 -12.734375 C 6.117188 -13.992188 8.472656 -15.054688 11.515625 -15.921875 C 13.535156 -16.515625 15.09375 -17.101562 16.1875 -17.6875 C 17.289062 -18.269531 18.078125 -18.847656 18.546875 -19.421875 C 19.023438 -20.003906 19.398438 -20.726562 19.671875 -21.59375 C 19.816406 -22.1875 19.890625 -22.675781 19.890625 -23.0625 C 19.890625 -23.894531 19.632812 -24.5625 19.125 -25.0625 C 18.625 -25.570312 17.941406 -25.828125 17.078125 -25.828125 C 16.847656 -25.828125 16.4375 -25.769531 15.84375 -25.65625 C 15.863281 -25.46875 15.875 -25.195312 15.875 -24.84375 C 15.875 -22.820312 15.265625 -21.304688 14.046875 -20.296875 C 12.828125 -19.285156 11.296875 -18.78125 9.453125 -18.78125 C 8.085938 -18.78125 7.003906 -19.132812 6.203125 -19.84375 C 5.398438 -20.5625 5 -21.53125 5 -22.75 C 5 -23.34375 5.070312 -23.878906 5.21875 -24.359375 C 5.75 -26.109375 7.097656 -27.4375 9.265625 -28.34375 C 11.441406 -29.25 14.226562 -29.703125 17.625 -29.703125 Z M 17.625 -29.703125 "/></g></g></g><g fill="#ffa500" fill-opacity="0.4"><g transform="translate(198.190768, 202.595033)"><g><path d="M 16.6875 -29.984375 C 18.351562 -29.984375 19.890625 -29.78125 21.296875 -29.375 C 22.710938 -28.96875 24.148438 -28.335938 25.609375 -27.484375 L 26.625 -28.328125 C 27.34375 -28.890625 27.929688 -29.273438 28.390625 -29.484375 C 28.847656 -29.691406 29.378906 -29.796875 29.984375 -29.796875 C 30.691406 -29.796875 31.253906 -29.640625 31.671875 -29.328125 C 32.085938 -29.015625 32.296875 -28.5625 32.296875 -27.96875 C 32.296875 -27.726562 32.25 -27.476562 32.15625 -27.21875 L 30.296875 -21.0625 C 30.085938 -20.34375 29.828125 -19.832031 29.515625 -19.53125 C 29.203125 -19.238281 28.734375 -19.09375 28.109375 -19.09375 C 27.453125 -19.09375 26.878906 -19.289062 26.390625 -19.6875 C 25.898438 -20.09375 25.132812 -20.921875 24.09375 -22.171875 C 23.050781 -23.359375 22.101562 -24.195312 21.25 -24.6875 C 20.40625 -25.175781 19.535156 -25.421875 18.640625 -25.421875 C 17.992188 -25.421875 17.445312 -25.207031 17 -24.78125 C 16.550781 -24.351562 16.328125 -23.828125 16.328125 -23.203125 C 16.328125 -22.484375 16.679688 -21.816406 17.390625 -21.203125 C 18.109375 -20.597656 19.226562 -19.835938 20.75 -18.921875 C 22.289062 -17.992188 23.566406 -17.15625 24.578125 -16.40625 C 25.585938 -15.664062 26.445312 -14.742188 27.15625 -13.640625 C 27.875 -12.546875 28.234375 -11.285156 28.234375 -9.859375 C 28.234375 -8.929688 28.085938 -8.007812 27.796875 -7.09375 C 27.078125 -4.71875 25.691406 -2.910156 23.640625 -1.671875 C 21.585938 -0.441406 19.191406 0.171875 16.453125 0.171875 C 14.398438 0.171875 12.675781 -0.0625 11.28125 -0.53125 C 9.882812 -1.007812 8.457031 -1.8125 7 -2.9375 L 5.390625 -1.609375 C 4.648438 -0.984375 4.039062 -0.554688 3.5625 -0.328125 C 3.09375 -0.109375 2.5625 0 1.96875 0 C 1.28125 0 0.734375 -0.160156 0.328125 -0.484375 C -0.0664062 -0.816406 -0.265625 -1.265625 -0.265625 -1.828125 C -0.265625 -2.128906 -0.207031 -2.441406 -0.09375 -2.765625 L 2.09375 -9.40625 C 2.332031 -10.1875 2.660156 -10.738281 3.078125 -11.0625 C 3.492188 -11.382812 4.03125 -11.546875 4.6875 -11.546875 C 5.363281 -11.546875 5.976562 -11.304688 6.53125 -10.828125 C 7.082031 -10.359375 7.804688 -9.5 8.703125 -8.25 C 9.648438 -6.882812 10.53125 -5.929688 11.34375 -5.390625 C 12.164062 -4.859375 13.144531 -4.59375 14.28125 -4.59375 C 15.082031 -4.59375 15.695312 -4.71875 16.125 -4.96875 C 16.550781 -5.226562 16.859375 -5.640625 17.046875 -6.203125 C 17.097656 -6.347656 17.125 -6.570312 17.125 -6.875 C 17.125 -7.582031 16.78125 -8.234375 16.09375 -8.828125 C 15.414062 -9.421875 14.363281 -10.132812 12.9375 -10.96875 C 11.414062 -11.894531 10.179688 -12.722656 9.234375 -13.453125 C 8.285156 -14.179688 7.457031 -15.09375 6.75 -16.1875 C 6.050781 -17.289062 5.703125 -18.585938 5.703125 -20.078125 C 5.703125 -21.117188 5.867188 -22.144531 6.203125 -23.15625 C 6.828125 -25.207031 8.101562 -26.859375 10.03125 -28.109375 C 11.96875 -29.359375 14.1875 -29.984375 16.6875 -29.984375 Z M 16.6875 -29.984375 "/></g></g></g><g fill="#ffa500" fill-opacity="0.4"><g transform="translate(228.925787, 202.595033)"><g><path d="M 16.1875 -23.828125 C 18.007812 -23.828125 19.601562 -23.566406 20.96875 -23.046875 C 22.332031 -22.523438 23.394531 -21.804688 24.15625 -20.890625 C 24.914062 -19.984375 25.296875 -18.984375 25.296875 -17.890625 C 25.296875 -16.703125 24.882812 -15.71875 24.0625 -14.9375 C 23.25 -14.164062 22.144531 -13.78125 20.75 -13.78125 C 19.320312 -13.78125 18.203125 -14.144531 17.390625 -14.875 C 16.585938 -15.601562 16.1875 -16.59375 16.1875 -17.84375 C 16.1875 -18.4375 16.273438 -19.0625 16.453125 -19.71875 C 15.210938 -19.394531 14.109375 -18.75 13.140625 -17.78125 C 12.171875 -16.8125 11.523438 -15.539062 11.203125 -13.96875 C 11.015625 -13.070312 10.921875 -12.265625 10.921875 -11.546875 C 10.921875 -9.941406 11.367188 -8.722656 12.265625 -7.890625 C 13.160156 -7.054688 14.441406 -6.640625 16.109375 -6.640625 C 17.054688 -6.640625 17.867188 -6.738281 18.546875 -6.9375 C 19.234375 -7.132812 19.9375 -7.394531 20.65625 -7.71875 C 21.25 -8.007812 21.679688 -8.15625 21.953125 -8.15625 C 22.128906 -8.15625 22.242188 -8.117188 22.296875 -8.046875 C 22.359375 -7.972656 22.390625 -7.816406 22.390625 -7.578125 C 22.421875 -6.484375 21.96875 -5.332031 21.03125 -4.125 C 20.09375 -2.914062 18.796875 -1.898438 17.140625 -1.078125 C 15.492188 -0.265625 13.644531 0.140625 11.59375 0.140625 C 9.457031 0.140625 7.5625 -0.253906 5.90625 -1.046875 C 4.257812 -1.835938 2.984375 -2.96875 2.078125 -4.4375 C 1.171875 -5.90625 0.71875 -7.625 0.71875 -9.59375 C 0.71875 -10.507812 0.835938 -11.535156 1.078125 -12.671875 C 1.878906 -16.359375 3.65625 -19.140625 6.40625 -21.015625 C 9.15625 -22.890625 12.414062 -23.828125 16.1875 -23.828125 Z M 16.1875 -23.828125 "/></g></g></g><g fill="#ffa500" fill-opacity="0.4"><g transform="translate(253.103398, 202.595033)"><g><path d="M 27.34375 -6.15625 C 27.28125 -6.039062 27.25 -5.863281 27.25 -5.625 C 27.25 -5.414062 27.300781 -5.25 27.40625 -5.125 C 27.507812 -5.007812 27.65625 -4.953125 27.84375 -4.953125 C 28.195312 -4.953125 28.5 -5.109375 28.75 -5.421875 C 29 -5.734375 29.171875 -5.890625 29.265625 -5.890625 C 29.410156 -5.890625 29.523438 -5.789062 29.609375 -5.59375 C 29.703125 -5.40625 29.75 -5.175781 29.75 -4.90625 C 29.78125 -4.039062 29.5 -3.195312 28.90625 -2.375 C 28.3125 -1.5625 27.441406 -0.894531 26.296875 -0.375 C 25.148438 0.144531 23.773438 0.40625 22.171875 0.40625 C 20.210938 0.40625 18.648438 -0.046875 17.484375 -0.953125 C 16.328125 -1.859375 15.734375 -3.070312 15.703125 -4.59375 C 15.703125 -5.695312 15.96875 -6.929688 16.5 -8.296875 L 18.953125 -14.71875 C 19.109375 -15.101562 19.1875 -15.414062 19.1875 -15.65625 C 19.1875 -16.039062 19.054688 -16.34375 18.796875 -16.5625 C 18.546875 -16.789062 18.242188 -16.90625 17.890625 -16.90625 C 17.328125 -16.90625 16.753906 -16.644531 16.171875 -16.125 C 15.585938 -15.601562 15.117188 -14.765625 14.765625 -13.609375 L 14.765625 -13.6875 L 11.953125 -4.640625 C 11.867188 -4.285156 11.828125 -3.972656 11.828125 -3.703125 C 11.828125 -3.316406 11.898438 -3.007812 12.046875 -2.78125 C 12.191406 -2.5625 12.398438 -2.347656 12.671875 -2.140625 C 12.878906 -1.929688 13.023438 -1.757812 13.109375 -1.625 C 13.203125 -1.488281 13.21875 -1.316406 13.15625 -1.109375 C 13.007812 -0.722656 12.710938 -0.441406 12.265625 -0.265625 C 11.816406 -0.0859375 11.132812 0 10.21875 0 L 0.046875 0 C -0.722656 0 -1.285156 -0.125 -1.640625 -0.375 C -2.003906 -0.632812 -2.125 -0.972656 -2 -1.390625 C -1.882812 -1.742188 -1.578125 -2.050781 -1.078125 -2.3125 C -0.628906 -2.550781 -0.257812 -2.832031 0.03125 -3.15625 C 0.332031 -3.488281 0.585938 -4.015625 0.796875 -4.734375 L 7.578125 -26.984375 C 7.671875 -27.253906 7.71875 -27.476562 7.71875 -27.65625 C 7.71875 -27.988281 7.632812 -28.253906 7.46875 -28.453125 C 7.3125 -28.660156 7.097656 -28.867188 6.828125 -29.078125 C 6.523438 -29.316406 6.304688 -29.523438 6.171875 -29.703125 C 6.046875 -29.890625 6.023438 -30.128906 6.109375 -30.421875 C 6.285156 -31.109375 7.222656 -31.703125 8.921875 -32.203125 C 10.617188 -32.710938 12.390625 -32.96875 14.234375 -32.96875 C 15.953125 -32.96875 17.21875 -32.640625 18.03125 -31.984375 C 18.851562 -31.328125 19.265625 -30.4375 19.265625 -29.3125 C 19.265625 -28.65625 19.160156 -28.015625 18.953125 -27.390625 L 16.546875 -19.53125 C 17.710938 -21.050781 18.941406 -22.109375 20.234375 -22.703125 C 21.523438 -23.296875 22.929688 -23.59375 24.453125 -23.59375 C 26.265625 -23.59375 27.726562 -23.039062 28.84375 -21.9375 C 29.957031 -20.84375 30.515625 -19.421875 30.515625 -17.671875 C 30.515625 -16.742188 30.363281 -15.832031 30.0625 -14.9375 Z M 27.34375 -6.15625 "/></g></g></g><g fill="#ffa500" fill-opacity="0.4"><g transform="translate(284.775211, 202.595033)"><g><path d="M 17.265625 -23.59375 C 21.304688 -23.59375 24.285156 -22.773438 26.203125 -21.140625 C 28.117188 -19.503906 29.078125 -17.363281 29.078125 -14.71875 C 29.078125 -13.820312 28.960938 -12.828125 28.734375 -11.734375 C 28.160156 -9.296875 27.097656 -7.160156 25.546875 -5.328125 C 24.003906 -3.503906 22.109375 -2.09375 19.859375 -1.09375 C 17.617188 -0.09375 15.191406 0.40625 12.578125 0.40625 C 8.441406 0.40625 5.382812 -0.414062 3.40625 -2.0625 C 1.4375 -3.71875 0.453125 -5.914062 0.453125 -8.65625 C 0.453125 -9.570312 0.566406 -10.597656 0.796875 -11.734375 C 1.367188 -14.054688 2.445312 -16.113281 4.03125 -17.90625 C 5.625 -19.707031 7.570312 -21.101562 9.875 -22.09375 C 12.1875 -23.09375 14.648438 -23.59375 17.265625 -23.59375 Z M 17.125 -19.625 C 16.5 -19.625 15.835938 -19.066406 15.140625 -17.953125 C 14.441406 -16.835938 13.617188 -14.734375 12.671875 -11.640625 C 11.710938 -8.546875 11.234375 -6.375 11.234375 -5.125 C 11.234375 -4.476562 11.335938 -4.039062 11.546875 -3.8125 C 11.753906 -3.59375 12.039062 -3.484375 12.40625 -3.484375 C 13.03125 -3.421875 13.675781 -3.953125 14.34375 -5.078125 C 15.007812 -6.210938 15.847656 -8.414062 16.859375 -11.6875 C 17.785156 -14.570312 18.25 -16.671875 18.25 -17.984375 C 18.25 -18.609375 18.148438 -19.035156 17.953125 -19.265625 C 17.765625 -19.503906 17.488281 -19.625 17.125 -19.625 Z M 17.125 -19.625 "/></g></g></g><g fill="#ffa500" fill-opacity="0.4"><g transform="translate(314.038163, 202.595033)"><g><path d="M 17.265625 -23.59375 C 21.304688 -23.59375 24.285156 -22.773438 26.203125 -21.140625 C 28.117188 -19.503906 29.078125 -17.363281 29.078125 -14.71875 C 29.078125 -13.820312 28.960938 -12.828125 28.734375 -11.734375 C 28.160156 -9.296875 27.097656 -7.160156 25.546875 -5.328125 C 24.003906 -3.503906 22.109375 -2.09375 19.859375 -1.09375 C 17.617188 -0.09375 15.191406 0.40625 12.578125 0.40625 C 8.441406 0.40625 5.382812 -0.414062 3.40625 -2.0625 C 1.4375 -3.71875 0.453125 -5.914062 0.453125 -8.65625 C 0.453125 -9.570312 0.566406 -10.597656 0.796875 -11.734375 C 1.367188 -14.054688 2.445312 -16.113281 4.03125 -17.90625 C 5.625 -19.707031 7.570312 -21.101562 9.875 -22.09375 C 12.1875 -23.09375 14.648438 -23.59375 17.265625 -23.59375 Z M 17.125 -19.625 C 16.5 -19.625 15.835938 -19.066406 15.140625 -17.953125 C 14.441406 -16.835938 13.617188 -14.734375 12.671875 -11.640625 C 11.710938 -8.546875 11.234375 -6.375 11.234375 -5.125 C 11.234375 -4.476562 11.335938 -4.039062 11.546875 -3.8125 C 11.753906 -3.59375 12.039062 -3.484375 12.40625 -3.484375 C 13.03125 -3.421875 13.675781 -3.953125 14.34375 -5.078125 C 15.007812 -6.210938 15.847656 -8.414062 16.859375 -11.6875 C 17.785156 -14.570312 18.25 -16.671875 18.25 -17.984375 C 18.25 -18.609375 18.148438 -19.035156 17.953125 -19.265625 C 17.765625 -19.503906 17.488281 -19.625 17.125 -19.625 Z M 17.125 -19.625 "/></g></g></g><g fill="#ffa500" fill-opacity="0.4"><g transform="translate(343.301115, 202.595033)"><g><path d="M 14.234375 -32.96875 C 15.953125 -32.96875 17.21875 -32.640625 18.03125 -31.984375 C 18.851562 -31.328125 19.265625 -30.4375 19.265625 -29.3125 C 19.265625 -28.65625 19.160156 -28.015625 18.953125 -27.390625 L 11.953125 -4.640625 C 11.867188 -4.285156 11.828125 -3.972656 11.828125 -3.703125 C 11.828125 -3.316406 11.898438 -3.007812 12.046875 -2.78125 C 12.191406 -2.5625 12.398438 -2.347656 12.671875 -2.140625 C 12.878906 -1.929688 13.023438 -1.757812 13.109375 -1.625 C 13.203125 -1.488281 13.21875 -1.316406 13.15625 -1.109375 C 13.007812 -0.722656 12.710938 -0.441406 12.265625 -0.265625 C 11.816406 -0.0859375 11.132812 0 10.21875 0 L 0.046875 0 C -0.722656 0 -1.285156 -0.125 -1.640625 -0.375 C -2.003906 -0.632812 -2.125 -0.972656 -2 -1.390625 C -1.882812 -1.742188 -1.578125 -2.050781 -1.078125 -2.3125 C -0.628906 -2.550781 -0.257812 -2.832031 0.03125 -3.15625 C 0.332031 -3.488281 0.585938 -4.015625 0.796875 -4.734375 L 7.578125 -26.984375 C 7.671875 -27.253906 7.71875 -27.476562 7.71875 -27.65625 C 7.71875 -27.988281 7.632812 -28.253906 7.46875 -28.453125 C 7.3125 -28.660156 7.097656 -28.867188 6.828125 -29.078125 C 6.523438 -29.316406 6.304688 -29.523438 6.171875 -29.703125 C 6.046875 -29.890625 6.023438 -30.128906 6.109375 -30.421875 C 6.285156 -31.109375 7.222656 -31.703125 8.921875 -32.203125 C 10.617188 -32.710938 12.390625 -32.96875 14.234375 -32.96875 Z M 14.234375 -32.96875 "/></g></g></g><g fill="#ffa500" fill-opacity="1"><g transform="translate(17.340435, 200.623443)"><g><path d="M 16.6875 -29.984375 C 18.351562 -29.984375 19.890625 -29.78125 21.296875 -29.375 C 22.710938 -28.96875 24.148438 -28.335938 25.609375 -27.484375 L 26.625 -28.328125 C 27.34375 -28.890625 27.929688 -29.273438 28.390625 -29.484375 C 28.847656 -29.691406 29.378906 -29.796875 29.984375 -29.796875 C 30.691406 -29.796875 31.253906 -29.640625 31.671875 -29.328125 C 32.085938 -29.015625 32.296875 -28.5625 32.296875 -27.96875 C 32.296875 -27.726562 32.25 -27.476562 32.15625 -27.21875 L 30.296875 -21.0625 C 30.085938 -20.34375 29.828125 -19.832031 29.515625 -19.53125 C 29.203125 -19.238281 28.734375 -19.09375 28.109375 -19.09375 C 27.453125 -19.09375 26.878906 -19.289062 26.390625 -19.6875 C 25.898438 -20.09375 25.132812 -20.921875 24.09375 -22.171875 C 23.050781 -23.359375 22.101562 -24.195312 21.25 -24.6875 C 20.40625 -25.175781 19.535156 -25.421875 18.640625 -25.421875 C 17.992188 -25.421875 17.445312 -25.207031 17 -24.78125 C 16.550781 -24.351562 16.328125 -23.828125 16.328125 -23.203125 C 16.328125 -22.484375 16.679688 -21.816406 17.390625 -21.203125 C 18.109375 -20.597656 19.226562 -19.835938 20.75 -18.921875 C 22.289062 -17.992188 23.566406 -17.15625 24.578125 -16.40625 C 25.585938 -15.664062 26.445312 -14.742188 27.15625 -13.640625 C 27.875 -12.546875 28.234375 -11.285156 28.234375 -9.859375 C 28.234375 -8.929688 28.085938 -8.007812 27.796875 -7.09375 C 27.078125 -4.71875 25.691406 -2.910156 23.640625 -1.671875 C 21.585938 -0.441406 19.191406 0.171875 16.453125 0.171875 C 14.398438 0.171875 12.675781 -0.0625 11.28125 -0.53125 C 9.882812 -1.007812 8.457031 -1.8125 7 -2.9375 L 5.390625 -1.609375 C 4.648438 -0.984375 4.039062 -0.554688 3.5625 -0.328125 C 3.09375 -0.109375 2.5625 0 1.96875 0 C 1.28125 0 0.734375 -0.160156 0.328125 -0.484375 C -0.0664062 -0.816406 -0.265625 -1.265625 -0.265625 -1.828125 C -0.265625 -2.128906 -0.207031 -2.441406 -0.09375 -2.765625 L 2.09375 -9.40625 C 2.332031 -10.1875 2.660156 -10.738281 3.078125 -11.0625 C 3.492188 -11.382812 4.03125 -11.546875 4.6875 -11.546875 C 5.363281 -11.546875 5.976562 -11.304688 6.53125 -10.828125 C 7.082031 -10.359375 7.804688 -9.5 8.703125 -8.25 C 9.648438 -6.882812 10.53125 -5.929688 11.34375 -5.390625 C 12.164062 -4.859375 13.144531 -4.59375 14.28125 -4.59375 C 15.082031 -4.59375 15.695312 -4.71875 16.125 -4.96875 C 16.550781 -5.226562 16.859375 -5.640625 17.046875 -6.203125 C 17.097656 -6.347656 17.125 -6.570312 17.125 -6.875 C 17.125 -7.582031 16.78125 -8.234375 16.09375 -8.828125 C 15.414062 -9.421875 14.363281 -10.132812 12.9375 -10.96875 C 11.414062 -11.894531 10.179688 -12.722656 9.234375 -13.453125 C 8.285156 -14.179688 7.457031 -15.09375 6.75 -16.1875 C 6.050781 -17.289062 5.703125 -18.585938 5.703125 -20.078125 C 5.703125 -21.117188 5.867188 -22.144531 6.203125 -23.15625 C 6.828125 -25.207031 8.101562 -26.859375 10.03125 -28.109375 C 11.96875 -29.359375 14.1875 -29.984375 16.6875 -29.984375 Z M 16.6875 -29.984375 "/></g></g></g><g fill="#ffa500" fill-opacity="1"><g transform="translate(48.075458, 200.623443)"><g><path d="M 27.609375 -6.15625 C 27.554688 -6.039062 27.53125 -5.863281 27.53125 -5.625 C 27.53125 -5.414062 27.582031 -5.25 27.6875 -5.125 C 27.789062 -5.007812 27.929688 -4.953125 28.109375 -4.953125 C 28.460938 -4.953125 28.765625 -5.109375 29.015625 -5.421875 C 29.265625 -5.734375 29.4375 -5.890625 29.53125 -5.890625 C 29.675781 -5.890625 29.789062 -5.789062 29.875 -5.59375 C 29.96875 -5.40625 30.015625 -5.175781 30.015625 -4.90625 C 30.046875 -4.039062 29.765625 -3.195312 29.171875 -2.375 C 28.578125 -1.5625 27.707031 -0.894531 26.5625 -0.375 C 25.414062 0.144531 24.039062 0.40625 22.4375 0.40625 C 20.476562 0.40625 18.914062 -0.046875 17.75 -0.953125 C 16.59375 -1.859375 16 -3.070312 15.96875 -4.59375 C 15.96875 -5.695312 16.234375 -6.929688 16.765625 -8.296875 L 19.234375 -14.71875 C 19.378906 -15.101562 19.453125 -15.414062 19.453125 -15.65625 C 19.453125 -16.039062 19.320312 -16.34375 19.0625 -16.5625 C 18.8125 -16.789062 18.507812 -16.90625 18.15625 -16.90625 C 17.5 -16.90625 16.875 -16.597656 16.28125 -15.984375 C 15.6875 -15.378906 15.253906 -14.628906 14.984375 -13.734375 L 12.21875 -4.640625 C 12.101562 -4.316406 12.046875 -4.003906 12.046875 -3.703125 C 12.046875 -3.347656 12.117188 -3.054688 12.265625 -2.828125 C 12.410156 -2.609375 12.617188 -2.378906 12.890625 -2.140625 C 13.097656 -1.960938 13.242188 -1.796875 13.328125 -1.640625 C 13.421875 -1.492188 13.4375 -1.316406 13.375 -1.109375 C 13.257812 -0.722656 12.976562 -0.441406 12.53125 -0.265625 C 12.082031 -0.0859375 11.382812 0 10.4375 0 L 0.265625 0 C -0.503906 0 -1.0625 -0.125 -1.40625 -0.375 C -1.75 -0.632812 -1.875 -0.972656 -1.78125 -1.390625 C -1.664062 -1.742188 -1.351562 -2.050781 -0.84375 -2.3125 C -0.394531 -2.550781 -0.0234375 -2.832031 0.265625 -3.15625 C 0.566406 -3.488281 0.820312 -4.015625 1.03125 -4.734375 L 5 -17.625 C 5.050781 -17.769531 5.078125 -17.976562 5.078125 -18.25 C 5.078125 -18.570312 5.007812 -18.820312 4.875 -19 C 4.75 -19.175781 4.535156 -19.398438 4.234375 -19.671875 C 3.941406 -19.910156 3.734375 -20.117188 3.609375 -20.296875 C 3.492188 -20.472656 3.476562 -20.710938 3.5625 -21.015625 C 3.75 -21.691406 4.6875 -22.289062 6.375 -22.8125 C 8.070312 -23.332031 9.84375 -23.59375 11.6875 -23.59375 C 13.175781 -23.59375 14.347656 -23.179688 15.203125 -22.359375 C 16.066406 -21.546875 16.457031 -20.410156 16.375 -18.953125 C 17.59375 -20.710938 18.882812 -21.925781 20.25 -22.59375 C 21.613281 -23.257812 23.101562 -23.59375 24.71875 -23.59375 C 26.53125 -23.59375 27.992188 -23.039062 29.109375 -21.9375 C 30.222656 -20.84375 30.78125 -19.421875 30.78125 -17.671875 C 30.78125 -16.742188 30.628906 -15.832031 30.328125 -14.9375 Z M 27.609375 -6.15625 "/></g></g></g><g fill="#ffa500" fill-opacity="1"><g transform="translate(80.014904, 200.623443)"><g><path d="M 15.921875 -23.59375 C 19.347656 -23.59375 22.085938 -22.960938 24.140625 -21.703125 C 26.191406 -20.441406 27.21875 -18.515625 27.21875 -15.921875 C 27.21875 -14.941406 27.035156 -13.828125 26.671875 -12.578125 L 24.84375 -6.421875 C 24.8125 -6.304688 24.796875 -6.160156 24.796875 -5.984375 C 24.796875 -5.503906 24.988281 -5.265625 25.375 -5.265625 C 25.738281 -5.265625 26.046875 -5.421875 26.296875 -5.734375 C 26.546875 -6.046875 26.71875 -6.203125 26.8125 -6.203125 C 26.957031 -6.203125 27.082031 -6.097656 27.1875 -5.890625 C 27.289062 -5.679688 27.34375 -5.441406 27.34375 -5.171875 C 27.375 -4.367188 27.066406 -3.550781 26.421875 -2.71875 C 25.785156 -1.882812 24.929688 -1.195312 23.859375 -0.65625 C 22.796875 -0.125 21.625 0.140625 20.34375 0.140625 C 18.789062 0.140625 17.460938 -0.140625 16.359375 -0.703125 C 15.265625 -1.273438 14.507812 -2.113281 14.09375 -3.21875 C 13.207031 -2.144531 12.148438 -1.316406 10.921875 -0.734375 C 9.703125 -0.148438 8.394531 0.140625 7 0.140625 C 5.425781 0.140625 4.101562 -0.160156 3.03125 -0.765625 C 1.957031 -1.378906 1.160156 -2.171875 0.640625 -3.140625 C 0.117188 -4.109375 -0.140625 -5.128906 -0.140625 -6.203125 C -0.140625 -6.679688 -0.09375 -7.140625 0 -7.578125 C 0.476562 -9.628906 1.507812 -11.175781 3.09375 -12.21875 C 4.6875 -13.257812 6.582031 -13.78125 8.78125 -13.78125 C 11.25 -13.78125 13.675781 -13.394531 16.0625 -12.625 L 17.171875 -15.5625 C 17.554688 -16.8125 17.75 -17.78125 17.75 -18.46875 C 17.71875 -19.175781 17.476562 -19.707031 17.03125 -20.0625 C 16.59375 -20.425781 15.910156 -20.609375 14.984375 -20.609375 C 15.160156 -20.128906 15.25 -19.640625 15.25 -19.140625 C 15.25 -18.035156 14.832031 -17.082031 14 -16.28125 C 13.175781 -15.476562 11.988281 -15.078125 10.4375 -15.078125 C 8.976562 -15.078125 7.835938 -15.394531 7.015625 -16.03125 C 6.203125 -16.675781 5.796875 -17.472656 5.796875 -18.421875 C 5.796875 -19.910156 6.628906 -21.144531 8.296875 -22.125 C 9.960938 -23.101562 12.503906 -23.59375 15.921875 -23.59375 Z M 13.421875 -10.078125 C 12.585938 -10.078125 11.910156 -9.753906 11.390625 -9.109375 C 10.867188 -8.472656 10.609375 -7.785156 10.609375 -7.046875 C 10.609375 -6.566406 10.71875 -6.175781 10.9375 -5.875 C 11.164062 -5.582031 11.488281 -5.4375 11.90625 -5.4375 C 12.289062 -5.4375 12.710938 -5.59375 13.171875 -5.90625 C 13.640625 -6.21875 13.976562 -6.6875 14.1875 -7.3125 L 15.125 -9.953125 C 14.613281 -10.035156 14.046875 -10.078125 13.421875 -10.078125 Z M 13.421875 -10.078125 "/></g></g></g><g fill="#ffa500" fill-opacity="1"><g transform="translate(109.188641, 200.623443)"><g><path d="M 16.1875 -23.828125 C 18.007812 -23.828125 19.601562 -23.566406 20.96875 -23.046875 C 22.332031 -22.523438 23.394531 -21.804688 24.15625 -20.890625 C 24.914062 -19.984375 25.296875 -18.984375 25.296875 -17.890625 C 25.296875 -16.703125 24.882812 -15.71875 24.0625 -14.9375 C 23.25 -14.164062 22.144531 -13.78125 20.75 -13.78125 C 19.320312 -13.78125 18.203125 -14.144531 17.390625 -14.875 C 16.585938 -15.601562 16.1875 -16.59375 16.1875 -17.84375 C 16.1875 -18.4375 16.273438 -19.0625 16.453125 -19.71875 C 15.210938 -19.394531 14.109375 -18.75 13.140625 -17.78125 C 12.171875 -16.8125 11.523438 -15.539062 11.203125 -13.96875 C 11.015625 -13.070312 10.921875 -12.265625 10.921875 -11.546875 C 10.921875 -9.941406 11.367188 -8.722656 12.265625 -7.890625 C 13.160156 -7.054688 14.441406 -6.640625 16.109375 -6.640625 C 17.054688 -6.640625 17.867188 -6.738281 18.546875 -6.9375 C 19.234375 -7.132812 19.9375 -7.394531 20.65625 -7.71875 C 21.25 -8.007812 21.679688 -8.15625 21.953125 -8.15625 C 22.128906 -8.15625 22.242188 -8.117188 22.296875 -8.046875 C 22.359375 -7.972656 22.390625 -7.816406 22.390625 -7.578125 C 22.421875 -6.484375 21.96875 -5.332031 21.03125 -4.125 C 20.09375 -2.914062 18.796875 -1.898438 17.140625 -1.078125 C 15.492188 -0.265625 13.644531 0.140625 11.59375 0.140625 C 9.457031 0.140625 7.5625 -0.253906 5.90625 -1.046875 C 4.257812 -1.835938 2.984375 -2.96875 2.078125 -4.4375 C 1.171875 -5.90625 0.71875 -7.625 0.71875 -9.59375 C 0.71875 -10.507812 0.835938 -11.535156 1.078125 -12.671875 C 1.878906 -16.359375 3.65625 -19.140625 6.40625 -21.015625 C 9.15625 -22.890625 12.414062 -23.828125 16.1875 -23.828125 Z M 16.1875 -23.828125 "/></g></g></g><g fill="#ffa500" fill-opacity="1"><g transform="translate(133.366261, 200.623443)"><g><path d="M 26.453125 -23.59375 C 28.148438 -23.59375 29.507812 -23.125 30.53125 -22.1875 C 31.5625 -21.25 32.078125 -20.113281 32.078125 -18.78125 C 32.078125 -17.351562 31.644531 -16.238281 30.78125 -15.4375 C 29.914062 -14.632812 28.785156 -14.234375 27.390625 -14.234375 C 26.140625 -14.234375 25.171875 -14.550781 24.484375 -15.1875 C 23.804688 -15.832031 23.484375 -16.554688 23.515625 -17.359375 C 23.210938 -17.410156 22.957031 -17.285156 22.75 -16.984375 C 22.539062 -16.691406 22.316406 -16.113281 22.078125 -15.25 C 21.929688 -14.6875 21.648438 -14.164062 21.234375 -13.6875 C 23.253906 -13.539062 24.753906 -13.082031 25.734375 -12.3125 C 26.722656 -11.539062 27.21875 -10.546875 27.21875 -9.328125 C 27.21875 -8.734375 27.113281 -8.132812 26.90625 -7.53125 L 26.546875 -6.15625 C 26.484375 -6.007812 26.453125 -5.816406 26.453125 -5.578125 C 26.453125 -5.160156 26.644531 -4.953125 27.03125 -4.953125 C 27.382812 -4.953125 27.6875 -5.109375 27.9375 -5.421875 C 28.195312 -5.734375 28.367188 -5.890625 28.453125 -5.890625 C 28.609375 -5.890625 28.726562 -5.789062 28.8125 -5.59375 C 28.90625 -5.40625 28.953125 -5.175781 28.953125 -4.90625 C 28.984375 -4.039062 28.722656 -3.195312 28.171875 -2.375 C 27.617188 -1.5625 26.785156 -0.894531 25.671875 -0.375 C 24.554688 0.144531 23.210938 0.40625 21.640625 0.40625 C 19.734375 0.40625 18.144531 -0.0664062 16.875 -1.015625 C 15.613281 -1.972656 14.984375 -3.222656 14.984375 -4.765625 C 14.984375 -5.335938 15.101562 -5.976562 15.34375 -6.6875 L 16.1875 -8.921875 C 16.34375 -9.453125 16.421875 -9.835938 16.421875 -10.078125 C 16.421875 -10.460938 16.289062 -10.742188 16.03125 -10.921875 C 15.78125 -11.109375 15.390625 -11.203125 14.859375 -11.203125 L 13.96875 -11.203125 L 11.953125 -4.640625 C 11.867188 -4.285156 11.828125 -3.972656 11.828125 -3.703125 C 11.828125 -3.316406 11.898438 -3.007812 12.046875 -2.78125 C 12.191406 -2.5625 12.398438 -2.347656 12.671875 -2.140625 C 12.878906 -1.929688 13.023438 -1.757812 13.109375 -1.625 C 13.203125 -1.488281 13.21875 -1.316406 13.15625 -1.109375 C 13.007812 -0.722656 12.710938 -0.441406 12.265625 -0.265625 C 11.816406 -0.0859375 11.132812 0 10.21875 0 L 0.046875 0 C -0.722656 0 -1.285156 -0.125 -1.640625 -0.375 C -2.003906 -0.632812 -2.125 -0.972656 -2 -1.390625 C -1.882812 -1.742188 -1.578125 -2.050781 -1.078125 -2.3125 C -0.628906 -2.550781 -0.257812 -2.832031 0.03125 -3.15625 C 0.332031 -3.488281 0.585938 -4.015625 0.796875 -4.734375 L 7.578125 -26.984375 C 7.671875 -27.253906 7.71875 -27.476562 7.71875 -27.65625 C 7.71875 -27.988281 7.632812 -28.253906 7.46875 -28.453125 C 7.3125 -28.660156 7.097656 -28.867188 6.828125 -29.078125 C 6.523438 -29.316406 6.304688 -29.523438 6.171875 -29.703125 C 6.046875 -29.890625 6.023438 -30.128906 6.109375 -30.421875 C 6.285156 -31.109375 7.222656 -31.703125 8.921875 -32.203125 C 10.617188 -32.710938 12.390625 -32.96875 14.234375 -32.96875 C 15.953125 -32.96875 17.210938 -32.644531 18.015625 -32 C 18.828125 -31.363281 19.234375 -30.484375 19.234375 -29.359375 C 19.234375 -28.671875 19.128906 -28.015625 18.921875 -27.390625 L 15.03125 -14.71875 L 16.5 -14.71875 C 17.09375 -14.71875 17.578125 -14.894531 17.953125 -15.25 C 18.328125 -15.613281 18.617188 -16.132812 18.828125 -16.8125 C 19.566406 -19.019531 20.53125 -20.703125 21.71875 -21.859375 C 22.914062 -23.015625 24.492188 -23.59375 26.453125 -23.59375 Z M 26.453125 -23.59375 "/></g></g></g><g fill="#ffa500" fill-opacity="1"><g transform="translate(164.547362, 200.623443)"><g><path d="M 17.625 -29.703125 C 20.59375 -29.703125 23.171875 -29.28125 25.359375 -28.4375 C 27.546875 -27.59375 29.210938 -26.484375 30.359375 -25.109375 C 31.503906 -23.742188 32.078125 -22.289062 32.078125 -20.75 C 32.078125 -20.175781 31.988281 -19.59375 31.8125 -19 C 31.394531 -17.75 30.691406 -16.765625 29.703125 -16.046875 C 28.722656 -15.335938 27.222656 -14.691406 25.203125 -14.109375 C 23.179688 -13.535156 20.070312 -12.847656 15.875 -12.046875 C 13.351562 -11.566406 11.457031 -11.140625 10.1875 -10.765625 C 8.925781 -10.398438 8.050781 -10.007812 7.5625 -9.59375 C 7.070312 -9.175781 6.796875 -8.640625 6.734375 -7.984375 L 19.578125 -7.984375 C 21.367188 -7.984375 22.722656 -8.21875 23.640625 -8.6875 C 24.566406 -9.164062 25.429688 -9.804688 26.234375 -10.609375 C 26.585938 -11.003906 26.875 -11.28125 27.09375 -11.4375 C 27.320312 -11.601562 27.582031 -11.6875 27.875 -11.6875 C 28.414062 -11.6875 28.90625 -11.320312 29.34375 -10.59375 C 29.789062 -9.863281 30.015625 -8.9375 30.015625 -7.8125 C 30.015625 -7.0625 29.882812 -6.210938 29.625 -5.265625 C 29.03125 -3.359375 27.957031 -2.003906 26.40625 -1.203125 C 24.863281 -0.398438 22.53125 0 19.40625 0 L 3.65625 0 C 2.707031 0 1.941406 -0.398438 1.359375 -1.203125 C 0.773438 -2.003906 0.484375 -3.085938 0.484375 -4.453125 C 0.484375 -5.472656 0.664062 -6.578125 1.03125 -7.765625 C 1.65625 -9.816406 2.796875 -11.472656 4.453125 -12.734375 C 6.117188 -13.992188 8.472656 -15.054688 11.515625 -15.921875 C 13.535156 -16.515625 15.09375 -17.101562 16.1875 -17.6875 C 17.289062 -18.269531 18.078125 -18.847656 18.546875 -19.421875 C 19.023438 -20.003906 19.398438 -20.726562 19.671875 -21.59375 C 19.816406 -22.1875 19.890625 -22.675781 19.890625 -23.0625 C 19.890625 -23.894531 19.632812 -24.5625 19.125 -25.0625 C 18.625 -25.570312 17.941406 -25.828125 17.078125 -25.828125 C 16.847656 -25.828125 16.4375 -25.769531 15.84375 -25.65625 C 15.863281 -25.46875 15.875 -25.195312 15.875 -24.84375 C 15.875 -22.820312 15.265625 -21.304688 14.046875 -20.296875 C 12.828125 -19.285156 11.296875 -18.78125 9.453125 -18.78125 C 8.085938 -18.78125 7.003906 -19.132812 6.203125 -19.84375 C 5.398438 -20.5625 5 -21.53125 5 -22.75 C 5 -23.34375 5.070312 -23.878906 5.21875 -24.359375 C 5.75 -26.109375 7.097656 -27.4375 9.265625 -28.34375 C 11.441406 -29.25 14.226562 -29.703125 17.625 -29.703125 Z M 17.625 -29.703125 "/></g></g></g><g fill="#ffa500" fill-opacity="1"><g transform="translate(196.219176, 200.623443)"><g><path d="M 16.6875 -29.984375 C 18.351562 -29.984375 19.890625 -29.78125 21.296875 -29.375 C 22.710938 -28.96875 24.148438 -28.335938 25.609375 -27.484375 L 26.625 -28.328125 C 27.34375 -28.890625 27.929688 -29.273438 28.390625 -29.484375 C 28.847656 -29.691406 29.378906 -29.796875 29.984375 -29.796875 C 30.691406 -29.796875 31.253906 -29.640625 31.671875 -29.328125 C 32.085938 -29.015625 32.296875 -28.5625 32.296875 -27.96875 C 32.296875 -27.726562 32.25 -27.476562 32.15625 -27.21875 L 30.296875 -21.0625 C 30.085938 -20.34375 29.828125 -19.832031 29.515625 -19.53125 C 29.203125 -19.238281 28.734375 -19.09375 28.109375 -19.09375 C 27.453125 -19.09375 26.878906 -19.289062 26.390625 -19.6875 C 25.898438 -20.09375 25.132812 -20.921875 24.09375 -22.171875 C 23.050781 -23.359375 22.101562 -24.195312 21.25 -24.6875 C 20.40625 -25.175781 19.535156 -25.421875 18.640625 -25.421875 C 17.992188 -25.421875 17.445312 -25.207031 17 -24.78125 C 16.550781 -24.351562 16.328125 -23.828125 16.328125 -23.203125 C 16.328125 -22.484375 16.679688 -21.816406 17.390625 -21.203125 C 18.109375 -20.597656 19.226562 -19.835938 20.75 -18.921875 C 22.289062 -17.992188 23.566406 -17.15625 24.578125 -16.40625 C 25.585938 -15.664062 26.445312 -14.742188 27.15625 -13.640625 C 27.875 -12.546875 28.234375 -11.285156 28.234375 -9.859375 C 28.234375 -8.929688 28.085938 -8.007812 27.796875 -7.09375 C 27.078125 -4.71875 25.691406 -2.910156 23.640625 -1.671875 C 21.585938 -0.441406 19.191406 0.171875 16.453125 0.171875 C 14.398438 0.171875 12.675781 -0.0625 11.28125 -0.53125 C 9.882812 -1.007812 8.457031 -1.8125 7 -2.9375 L 5.390625 -1.609375 C 4.648438 -0.984375 4.039062 -0.554688 3.5625 -0.328125 C 3.09375 -0.109375 2.5625 0 1.96875 0 C 1.28125 0 0.734375 -0.160156 0.328125 -0.484375 C -0.0664062 -0.816406 -0.265625 -1.265625 -0.265625 -1.828125 C -0.265625 -2.128906 -0.207031 -2.441406 -0.09375 -2.765625 L 2.09375 -9.40625 C 2.332031 -10.1875 2.660156 -10.738281 3.078125 -11.0625 C 3.492188 -11.382812 4.03125 -11.546875 4.6875 -11.546875 C 5.363281 -11.546875 5.976562 -11.304688 6.53125 -10.828125 C 7.082031 -10.359375 7.804688 -9.5 8.703125 -8.25 C 9.648438 -6.882812 10.53125 -5.929688 11.34375 -5.390625 C 12.164062 -4.859375 13.144531 -4.59375 14.28125 -4.59375 C 15.082031 -4.59375 15.695312 -4.71875 16.125 -4.96875 C 16.550781 -5.226562 16.859375 -5.640625 17.046875 -6.203125 C 17.097656 -6.347656 17.125 -6.570312 17.125 -6.875 C 17.125 -7.582031 16.78125 -8.234375 16.09375 -8.828125 C 15.414062 -9.421875 14.363281 -10.132812 12.9375 -10.96875 C 11.414062 -11.894531 10.179688 -12.722656 9.234375 -13.453125 C 8.285156 -14.179688 7.457031 -15.09375 6.75 -16.1875 C 6.050781 -17.289062 5.703125 -18.585938 5.703125 -20.078125 C 5.703125 -21.117188 5.867188 -22.144531 6.203125 -23.15625 C 6.828125 -25.207031 8.101562 -26.859375 10.03125 -28.109375 C 11.96875 -29.359375 14.1875 -29.984375 16.6875 -29.984375 Z M 16.6875 -29.984375 "/></g></g></g><g fill="#ffa500" fill-opacity="1"><g transform="translate(226.954195, 200.623443)"><g><path d="M 16.1875 -23.828125 C 18.007812 -23.828125 19.601562 -23.566406 20.96875 -23.046875 C 22.332031 -22.523438 23.394531 -21.804688 24.15625 -20.890625 C 24.914062 -19.984375 25.296875 -18.984375 25.296875 -17.890625 C 25.296875 -16.703125 24.882812 -15.71875 24.0625 -14.9375 C 23.25 -14.164062 22.144531 -13.78125 20.75 -13.78125 C 19.320312 -13.78125 18.203125 -14.144531 17.390625 -14.875 C 16.585938 -15.601562 16.1875 -16.59375 16.1875 -17.84375 C 16.1875 -18.4375 16.273438 -19.0625 16.453125 -19.71875 C 15.210938 -19.394531 14.109375 -18.75 13.140625 -17.78125 C 12.171875 -16.8125 11.523438 -15.539062 11.203125 -13.96875 C 11.015625 -13.070312 10.921875 -12.265625 10.921875 -11.546875 C 10.921875 -9.941406 11.367188 -8.722656 12.265625 -7.890625 C 13.160156 -7.054688 14.441406 -6.640625 16.109375 -6.640625 C 17.054688 -6.640625 17.867188 -6.738281 18.546875 -6.9375 C 19.234375 -7.132812 19.9375 -7.394531 20.65625 -7.71875 C 21.25 -8.007812 21.679688 -8.15625 21.953125 -8.15625 C 22.128906 -8.15625 22.242188 -8.117188 22.296875 -8.046875 C 22.359375 -7.972656 22.390625 -7.816406 22.390625 -7.578125 C 22.421875 -6.484375 21.96875 -5.332031 21.03125 -4.125 C 20.09375 -2.914062 18.796875 -1.898438 17.140625 -1.078125 C 15.492188 -0.265625 13.644531 0.140625 11.59375 0.140625 C 9.457031 0.140625 7.5625 -0.253906 5.90625 -1.046875 C 4.257812 -1.835938 2.984375 -2.96875 2.078125 -4.4375 C 1.171875 -5.90625 0.71875 -7.625 0.71875 -9.59375 C 0.71875 -10.507812 0.835938 -11.535156 1.078125 -12.671875 C 1.878906 -16.359375 3.65625 -19.140625 6.40625 -21.015625 C 9.15625 -22.890625 12.414062 -23.828125 16.1875 -23.828125 Z M 16.1875 -23.828125 "/></g></g></g><g fill="#ffa500" fill-opacity="1"><g transform="translate(251.131806, 200.623443)"><g><path d="M 27.34375 -6.15625 C 27.28125 -6.039062 27.25 -5.863281 27.25 -5.625 C 27.25 -5.414062 27.300781 -5.25 27.40625 -5.125 C 27.507812 -5.007812 27.65625 -4.953125 27.84375 -4.953125 C 28.195312 -4.953125 28.5 -5.109375 28.75 -5.421875 C 29 -5.734375 29.171875 -5.890625 29.265625 -5.890625 C 29.410156 -5.890625 29.523438 -5.789062 29.609375 -5.59375 C 29.703125 -5.40625 29.75 -5.175781 29.75 -4.90625 C 29.78125 -4.039062 29.5 -3.195312 28.90625 -2.375 C 28.3125 -1.5625 27.441406 -0.894531 26.296875 -0.375 C 25.148438 0.144531 23.773438 0.40625 22.171875 0.40625 C 20.210938 0.40625 18.648438 -0.046875 17.484375 -0.953125 C 16.328125 -1.859375 15.734375 -3.070312 15.703125 -4.59375 C 15.703125 -5.695312 15.96875 -6.929688 16.5 -8.296875 L 18.953125 -14.71875 C 19.109375 -15.101562 19.1875 -15.414062 19.1875 -15.65625 C 19.1875 -16.039062 19.054688 -16.34375 18.796875 -16.5625 C 18.546875 -16.789062 18.242188 -16.90625 17.890625 -16.90625 C 17.328125 -16.90625 16.753906 -16.644531 16.171875 -16.125 C 15.585938 -15.601562 15.117188 -14.765625 14.765625 -13.609375 L 14.765625 -13.6875 L 11.953125 -4.640625 C 11.867188 -4.285156 11.828125 -3.972656 11.828125 -3.703125 C 11.828125 -3.316406 11.898438 -3.007812 12.046875 -2.78125 C 12.191406 -2.5625 12.398438 -2.347656 12.671875 -2.140625 C 12.878906 -1.929688 13.023438 -1.757812 13.109375 -1.625 C 13.203125 -1.488281 13.21875 -1.316406 13.15625 -1.109375 C 13.007812 -0.722656 12.710938 -0.441406 12.265625 -0.265625 C 11.816406 -0.0859375 11.132812 0 10.21875 0 L 0.046875 0 C -0.722656 0 -1.285156 -0.125 -1.640625 -0.375 C -2.003906 -0.632812 -2.125 -0.972656 -2 -1.390625 C -1.882812 -1.742188 -1.578125 -2.050781 -1.078125 -2.3125 C -0.628906 -2.550781 -0.257812 -2.832031 0.03125 -3.15625 C 0.332031 -3.488281 0.585938 -4.015625 0.796875 -4.734375 L 7.578125 -26.984375 C 7.671875 -27.253906 7.71875 -27.476562 7.71875 -27.65625 C 7.71875 -27.988281 7.632812 -28.253906 7.46875 -28.453125 C 7.3125 -28.660156 7.097656 -28.867188 6.828125 -29.078125 C 6.523438 -29.316406 6.304688 -29.523438 6.171875 -29.703125 C 6.046875 -29.890625 6.023438 -30.128906 6.109375 -30.421875 C 6.285156 -31.109375 7.222656 -31.703125 8.921875 -32.203125 C 10.617188 -32.710938 12.390625 -32.96875 14.234375 -32.96875 C 15.953125 -32.96875 17.21875 -32.640625 18.03125 -31.984375 C 18.851562 -31.328125 19.265625 -30.4375 19.265625 -29.3125 C 19.265625 -28.65625 19.160156 -28.015625 18.953125 -27.390625 L 16.546875 -19.53125 C 17.710938 -21.050781 18.941406 -22.109375 20.234375 -22.703125 C 21.523438 -23.296875 22.929688 -23.59375 24.453125 -23.59375 C 26.265625 -23.59375 27.726562 -23.039062 28.84375 -21.9375 C 29.957031 -20.84375 30.515625 -19.421875 30.515625 -17.671875 C 30.515625 -16.742188 30.363281 -15.832031 30.0625 -14.9375 Z M 27.34375 -6.15625 "/></g></g></g><g fill="#ffa500" fill-opacity="1"><g transform="translate(282.803619, 200.623443)"><g><path d="M 17.265625 -23.59375 C 21.304688 -23.59375 24.285156 -22.773438 26.203125 -21.140625 C 28.117188 -19.503906 29.078125 -17.363281 29.078125 -14.71875 C 29.078125 -13.820312 28.960938 -12.828125 28.734375 -11.734375 C 28.160156 -9.296875 27.097656 -7.160156 25.546875 -5.328125 C 24.003906 -3.503906 22.109375 -2.09375 19.859375 -1.09375 C 17.617188 -0.09375 15.191406 0.40625 12.578125 0.40625 C 8.441406 0.40625 5.382812 -0.414062 3.40625 -2.0625 C 1.4375 -3.71875 0.453125 -5.914062 0.453125 -8.65625 C 0.453125 -9.570312 0.566406 -10.597656 0.796875 -11.734375 C 1.367188 -14.054688 2.445312 -16.113281 4.03125 -17.90625 C 5.625 -19.707031 7.570312 -21.101562 9.875 -22.09375 C 12.1875 -23.09375 14.648438 -23.59375 17.265625 -23.59375 Z M 17.125 -19.625 C 16.5 -19.625 15.835938 -19.066406 15.140625 -17.953125 C 14.441406 -16.835938 13.617188 -14.734375 12.671875 -11.640625 C 11.710938 -8.546875 11.234375 -6.375 11.234375 -5.125 C 11.234375 -4.476562 11.335938 -4.039062 11.546875 -3.8125 C 11.753906 -3.59375 12.039062 -3.484375 12.40625 -3.484375 C 13.03125 -3.421875 13.675781 -3.953125 14.34375 -5.078125 C 15.007812 -6.210938 15.847656 -8.414062 16.859375 -11.6875 C 17.785156 -14.570312 18.25 -16.671875 18.25 -17.984375 C 18.25 -18.609375 18.148438 -19.035156 17.953125 -19.265625 C 17.765625 -19.503906 17.488281 -19.625 17.125 -19.625 Z M 17.125 -19.625 "/></g></g></g><g fill="#ffa500" fill-opacity="1"><g transform="translate(312.066571, 200.623443)"><g><path d="M 17.265625 -23.59375 C 21.304688 -23.59375 24.285156 -22.773438 26.203125 -21.140625 C 28.117188 -19.503906 29.078125 -17.363281 29.078125 -14.71875 C 29.078125 -13.820312 28.960938 -12.828125 28.734375 -11.734375 C 28.160156 -9.296875 27.097656 -7.160156 25.546875 -5.328125 C 24.003906 -3.503906 22.109375 -2.09375 19.859375 -1.09375 C 17.617188 -0.09375 15.191406 0.40625 12.578125 0.40625 C 8.441406 0.40625 5.382812 -0.414062 3.40625 -2.0625 C 1.4375 -3.71875 0.453125 -5.914062 0.453125 -8.65625 C 0.453125 -9.570312 0.566406 -10.597656 0.796875 -11.734375 C 1.367188 -14.054688 2.445312 -16.113281 4.03125 -17.90625 C 5.625 -19.707031 7.570312 -21.101562 9.875 -22.09375 C 12.1875 -23.09375 14.648438 -23.59375 17.265625 -23.59375 Z M 17.125 -19.625 C 16.5 -19.625 15.835938 -19.066406 15.140625 -17.953125 C 14.441406 -16.835938 13.617188 -14.734375 12.671875 -11.640625 C 11.710938 -8.546875 11.234375 -6.375 11.234375 -5.125 C 11.234375 -4.476562 11.335938 -4.039062 11.546875 -3.8125 C 11.753906 -3.59375 12.039062 -3.484375 12.40625 -3.484375 C 13.03125 -3.421875 13.675781 -3.953125 14.34375 -5.078125 C 15.007812 -6.210938 15.847656 -8.414062 16.859375 -11.6875 C 17.785156 -14.570312 18.25 -16.671875 18.25 -17.984375 C 18.25 -18.609375 18.148438 -19.035156 17.953125 -19.265625 C 17.765625 -19.503906 17.488281 -19.625 17.125 -19.625 Z M 17.125 -19.625 "/></g></g></g><g fill="#ffa500" fill-opacity="1"><g transform="translate(341.329523, 200.623443)"><g><path d="M 14.234375 -32.96875 C 15.953125 -32.96875 17.21875 -32.640625 18.03125 -31.984375 C 18.851562 -31.328125 19.265625 -30.4375 19.265625 -29.3125 C 19.265625 -28.65625 19.160156 -28.015625 18.953125 -27.390625 L 11.953125 -4.640625 C 11.867188 -4.285156 11.828125 -3.972656 11.828125 -3.703125 C 11.828125 -3.316406 11.898438 -3.007812 12.046875 -2.78125 C 12.191406 -2.5625 12.398438 -2.347656 12.671875 -2.140625 C 12.878906 -1.929688 13.023438 -1.757812 13.109375 -1.625 C 13.203125 -1.488281 13.21875 -1.316406 13.15625 -1.109375 C 13.007812 -0.722656 12.710938 -0.441406 12.265625 -0.265625 C 11.816406 -0.0859375 11.132812 0 10.21875 0 L 0.046875 0 C -0.722656 0 -1.285156 -0.125 -1.640625 -0.375 C -2.003906 -0.632812 -2.125 -0.972656 -2 -1.390625 C -1.882812 -1.742188 -1.578125 -2.050781 -1.078125 -2.3125 C -0.628906 -2.550781 -0.257812 -2.832031 0.03125 -3.15625 C 0.332031 -3.488281 0.585938 -4.015625 0.796875 -4.734375 L 7.578125 -26.984375 C 7.671875 -27.253906 7.71875 -27.476562 7.71875 -27.65625 C 7.71875 -27.988281 7.632812 -28.253906 7.46875 -28.453125 C 7.3125 -28.660156 7.097656 -28.867188 6.828125 -29.078125 C 6.523438 -29.316406 6.304688 -29.523438 6.171875 -29.703125 C 6.046875 -29.890625 6.023438 -30.128906 6.109375 -30.421875 C 6.285156 -31.109375 7.222656 -31.703125 8.921875 -32.203125 C 10.617188 -32.710938 12.390625 -32.96875 14.234375 -32.96875 Z M 14.234375 -32.96875 "/></g></g></g></svg>