<svg
  xmlns="http://www.w3.org/2000/svg"
  viewBox="0 0 64 64"
  width="200"
  height="200"
>
  <path
    d="M48 4H16C10.5 4 6 8.5 6 14V50C6 55.5 10.5 60 16 60H48C53.5 60 58 55.5 58 50V14C58 8.5 53.5 4 48 4zM32 58C25.9 58 20.6 54.4 18.2 50H45.8C43.4 54.4 38.1 58 32 58zM56 50H8V14C8 9.6 11.6 6 16 6H48C52.4 6 56 9.6 56 14V50z"
    fill="#bf09bd"
  />
  <path
    d="M16 10H48C49.1 10 50 10.9 50 12V14H14V12C14 10.9 14.9 10 16 10zM10 50C9.5 48.3 10 46.5 10 44H54c0 2.5 0.5 4.3-0.1 6H10z"
    fill="#bf09bd"
  />
</svg>
