<svg xmlns="http://www.w3.org/2000/svg" xmlns:xlink="http://www.w3.org/1999/xlink" width="1080" zoomAndPan="magnify" viewBox="0 0 810 809.999993" height="1080" preserveAspectRatio="xMidYMid meet" version="1.0"><path fill="#000000" d="M 206.105469 336.9375 C 221.773438 388.175781 251.691406 471.441406 297.988281 551.152344 C 295.851562 591.003906 296.5625 629.4375 298.699219 661.460938 C 242.429688 629.4375 177.613281 582.464844 145.5625 523.394531 C 72.195312 391.734375 123.480469 198.160156 139.863281 144.78125 C 142 137.664062 150.546875 134.820312 156.957031 139.089844 C 191.859375 164 293 238.011719 348.558594 315.585938 C 325.054688 363.980469 311.519531 421.625 304.398438 479.273438 C 273.769531 422.335938 241.71875 368.25 219.636719 331.953125 C 215.363281 324.125 203.96875 329.109375 206.105469 336.9375 Z M 206.105469 336.9375 " fill-opacity="1" fill-rule="nonzero"/><path fill="#000000" d="M 376.339844 326.972656 C 321.492188 438.707031 324.34375 605.238281 331.464844 697.046875 C 332.175781 709.855469 349.984375 712.703125 354.96875 700.605469 C 370.640625 659.328125 389.871094 613.777344 412.664062 567.519531 C 461.097656 469.308594 525.203125 359 562.953125 297.792969 C 567.941406 289.964844 580.046875 294.945312 577.910156 304.199219 C 558.679688 367.539062 520.929688 474.289062 461.097656 576.058594 C 427.621094 630.859375 399.128906 681.386719 374.914062 724.089844 C 369.214844 734.054688 379.898438 746.152344 390.582031 741.167969 C 463.949219 707.007812 594.292969 635.128906 649.140625 536.207031 C 738.171875 374.65625 674.070312 136.953125 654.835938 74.328125 C 652.699219 66.5 643.441406 63.652344 636.320312 67.921875 C 589.308594 101.371094 429.757812 218.085938 376.339844 326.972656 Z M 376.339844 326.972656 " fill-opacity="1" fill-rule="nonzero"/></svg>