<svg xmlns="http://www.w3.org/2000/svg" xmlns:xlink="http://www.w3.org/1999/xlink" width="1080" zoomAndPan="magnify" viewBox="0 0 810 809.999993" height="1080" preserveAspectRatio="xMidYMid meet" version="1.0"><defs><clipPath id="dd826edd3f"><path d="M 32.332031 32.332031 L 777.832031 32.332031 L 777.832031 777.832031 L 32.332031 777.832031 Z M 32.332031 32.332031 " clip-rule="nonzero"/></clipPath></defs><g clip-path="url(#dd826edd3f)"><path fill="#ffa500" d="M 32.332031 404.996094 C 32.332031 199.210938 199.210938 32.332031 404.996094 32.332031 C 610.777344 32.332031 777.65625 199.210938 777.65625 404.996094 C 777.65625 610.777344 610.777344 777.65625 404.996094 777.65625 C 199.210938 777.65625 32.332031 610.777344 32.332031 404.996094 Z M 32.332031 404.996094 " fill-opacity="1" fill-rule="nonzero"/></g><path fill="#f8f9fa" d="M 614.683594 359.632812 C 516.898438 359.632812 418.964844 359.632812 321.179688 359.632812 C 338.601562 342.207031 356.027344 324.785156 373.449219 307.359375 C 413.707031 267.105469 351.070312 204.917969 310.664062 245.324219 C 268.15625 287.832031 225.648438 330.34375 183.140625 372.851562 C 166.015625 389.972656 166.464844 418.363281 183.441406 435.1875 C 225.949219 477.695312 268.457031 520.203125 310.964844 562.710938 C 351.21875 602.964844 413.40625 540.332031 373 499.925781 C 355.726562 482.652344 338.304688 465.226562 321.027344 447.953125 C 418.664062 447.953125 516.296875 447.953125 613.929688 447.953125 C 671.011719 447.953125 671.460938 359.632812 614.683594 359.632812 Z M 614.683594 359.632812 " fill-opacity="1" fill-rule="nonzero"/></svg>