<svg xmlns="http://www.w3.org/2000/svg" xmlns:xlink="http://www.w3.org/1999/xlink" width="500" zoomAndPan="magnify" viewBox="0 0 375 374.999991" height="500" preserveAspectRatio="xMidYMid meet" version="1.0"><defs><g/></defs><g fill="#ffa500" fill-opacity="0.4"><g transform="translate(146.925743, 233.210947)"><g><path d="M 50.53125 -90.78125 C 55.570312 -90.78125 60.226562 -90.171875 64.5 -88.953125 C 68.78125 -87.742188 73.128906 -85.832031 77.546875 -83.21875 L 80.65625 -85.78125 C 82.8125 -87.488281 84.585938 -88.660156 85.984375 -89.296875 C 87.378906 -89.929688 88.976562 -90.25 90.78125 -90.25 C 92.945312 -90.25 94.660156 -89.773438 95.921875 -88.828125 C 97.179688 -87.878906 97.8125 -86.503906 97.8125 -84.703125 C 97.8125 -83.984375 97.675781 -83.21875 97.40625 -82.40625 L 91.734375 -63.765625 C 91.097656 -61.597656 90.304688 -60.0625 89.359375 -59.15625 C 88.421875 -58.257812 87.003906 -57.8125 85.109375 -57.8125 C 83.128906 -57.8125 81.394531 -58.421875 79.90625 -59.640625 C 78.414062 -60.859375 76.097656 -63.359375 72.953125 -67.140625 C 69.796875 -70.742188 66.929688 -73.285156 64.359375 -74.765625 C 61.796875 -76.253906 59.164062 -77 56.46875 -77 C 54.488281 -77 52.820312 -76.34375 51.46875 -75.03125 C 50.113281 -73.726562 49.4375 -72.132812 49.4375 -70.25 C 49.4375 -68.082031 50.515625 -66.078125 52.671875 -64.234375 C 54.835938 -62.390625 58.21875 -60.070312 62.8125 -57.28125 C 67.5 -54.488281 71.375 -51.96875 74.4375 -49.71875 C 77.5 -47.46875 80.109375 -44.675781 82.265625 -41.34375 C 84.429688 -38.007812 85.515625 -34.179688 85.515625 -29.859375 C 85.515625 -27.066406 85.0625 -24.273438 84.15625 -21.484375 C 82 -14.273438 77.8125 -8.800781 71.59375 -5.0625 C 65.382812 -1.320312 58.132812 0.546875 49.84375 0.546875 C 43.632812 0.546875 38.410156 -0.171875 34.171875 -1.609375 C 29.941406 -3.054688 25.617188 -5.492188 21.203125 -8.921875 L 16.34375 -4.859375 C 14.09375 -2.972656 12.242188 -1.691406 10.796875 -1.015625 C 9.359375 -0.335938 7.738281 0 5.9375 0 C 3.875 0 2.234375 -0.492188 1.015625 -1.484375 C -0.203125 -2.472656 -0.8125 -3.820312 -0.8125 -5.53125 C -0.8125 -6.4375 -0.628906 -7.382812 -0.265625 -8.375 L 6.34375 -28.5 C 7.070312 -30.84375 8.066406 -32.507812 9.328125 -33.5 C 10.585938 -34.488281 12.207031 -34.984375 14.1875 -34.984375 C 16.257812 -34.984375 18.128906 -34.265625 19.796875 -32.828125 C 21.460938 -31.390625 23.644531 -28.78125 26.34375 -25 C 29.226562 -20.851562 31.90625 -17.96875 34.375 -16.34375 C 36.851562 -14.726562 39.804688 -13.921875 43.234375 -13.921875 C 45.660156 -13.921875 47.523438 -14.300781 48.828125 -15.0625 C 50.140625 -15.832031 51.066406 -17.070312 51.609375 -18.78125 C 51.785156 -19.226562 51.875 -19.898438 51.875 -20.796875 C 51.875 -22.960938 50.835938 -24.945312 48.765625 -26.75 C 46.691406 -28.550781 43.492188 -30.710938 39.171875 -33.234375 C 34.578125 -36.023438 30.835938 -38.523438 27.953125 -40.734375 C 25.078125 -42.941406 22.582031 -45.707031 20.46875 -49.03125 C 18.351562 -52.363281 17.296875 -56.285156 17.296875 -60.796875 C 17.296875 -63.941406 17.789062 -67.046875 18.78125 -70.109375 C 20.664062 -76.328125 24.535156 -81.328125 30.390625 -85.109375 C 36.242188 -88.890625 42.957031 -90.78125 50.53125 -90.78125 Z M 50.53125 -90.78125 "/></g></g></g><g fill="#ffa500" fill-opacity="1"><g transform="translate(140.955348, 227.240551)"><g><path d="M 50.53125 -90.78125 C 55.570312 -90.78125 60.226562 -90.171875 64.5 -88.953125 C 68.78125 -87.742188 73.128906 -85.832031 77.546875 -83.21875 L 80.65625 -85.78125 C 82.8125 -87.488281 84.585938 -88.660156 85.984375 -89.296875 C 87.378906 -89.929688 88.976562 -90.25 90.78125 -90.25 C 92.945312 -90.25 94.660156 -89.773438 95.921875 -88.828125 C 97.179688 -87.878906 97.8125 -86.503906 97.8125 -84.703125 C 97.8125 -83.984375 97.675781 -83.21875 97.40625 -82.40625 L 91.734375 -63.765625 C 91.097656 -61.597656 90.304688 -60.0625 89.359375 -59.15625 C 88.421875 -58.257812 87.003906 -57.8125 85.109375 -57.8125 C 83.128906 -57.8125 81.394531 -58.421875 79.90625 -59.640625 C 78.414062 -60.859375 76.097656 -63.359375 72.953125 -67.140625 C 69.796875 -70.742188 66.929688 -73.285156 64.359375 -74.765625 C 61.796875 -76.253906 59.164062 -77 56.46875 -77 C 54.488281 -77 52.820312 -76.34375 51.46875 -75.03125 C 50.113281 -73.726562 49.4375 -72.132812 49.4375 -70.25 C 49.4375 -68.082031 50.515625 -66.078125 52.671875 -64.234375 C 54.835938 -62.390625 58.21875 -60.070312 62.8125 -57.28125 C 67.5 -54.488281 71.375 -51.96875 74.4375 -49.71875 C 77.5 -47.46875 80.109375 -44.675781 82.265625 -41.34375 C 84.429688 -38.007812 85.515625 -34.179688 85.515625 -29.859375 C 85.515625 -27.066406 85.0625 -24.273438 84.15625 -21.484375 C 82 -14.273438 77.8125 -8.800781 71.59375 -5.0625 C 65.382812 -1.320312 58.132812 0.546875 49.84375 0.546875 C 43.632812 0.546875 38.410156 -0.171875 34.171875 -1.609375 C 29.941406 -3.054688 25.617188 -5.492188 21.203125 -8.921875 L 16.34375 -4.859375 C 14.09375 -2.972656 12.242188 -1.691406 10.796875 -1.015625 C 9.359375 -0.335938 7.738281 0 5.9375 0 C 3.875 0 2.234375 -0.492188 1.015625 -1.484375 C -0.203125 -2.472656 -0.8125 -3.820312 -0.8125 -5.53125 C -0.8125 -6.4375 -0.628906 -7.382812 -0.265625 -8.375 L 6.34375 -28.5 C 7.070312 -30.84375 8.066406 -32.507812 9.328125 -33.5 C 10.585938 -34.488281 12.207031 -34.984375 14.1875 -34.984375 C 16.257812 -34.984375 18.128906 -34.265625 19.796875 -32.828125 C 21.460938 -31.390625 23.644531 -28.78125 26.34375 -25 C 29.226562 -20.851562 31.90625 -17.96875 34.375 -16.34375 C 36.851562 -14.726562 39.804688 -13.921875 43.234375 -13.921875 C 45.660156 -13.921875 47.523438 -14.300781 48.828125 -15.0625 C 50.140625 -15.832031 51.066406 -17.070312 51.609375 -18.78125 C 51.785156 -19.226562 51.875 -19.898438 51.875 -20.796875 C 51.875 -22.960938 50.835938 -24.945312 48.765625 -26.75 C 46.691406 -28.550781 43.492188 -30.710938 39.171875 -33.234375 C 34.578125 -36.023438 30.835938 -38.523438 27.953125 -40.734375 C 25.078125 -42.941406 22.582031 -45.707031 20.46875 -49.03125 C 18.351562 -52.363281 17.296875 -56.285156 17.296875 -60.796875 C 17.296875 -63.941406 17.789062 -67.046875 18.78125 -70.109375 C 20.664062 -76.328125 24.535156 -81.328125 30.390625 -85.109375 C 36.242188 -88.890625 42.957031 -90.78125 50.53125 -90.78125 Z M 50.53125 -90.78125 "/></g></g></g></svg>