<svg xmlns="http://www.w3.org/2000/svg" xmlns:xlink="http://www.w3.org/1999/xlink" width="500" zoomAndPan="magnify" viewBox="0 0 375 374.999991" height="500" preserveAspectRatio="xMidYMid meet" version="1.0"><defs><g/></defs><g fill="#ffa500" fill-opacity="0.4"><g transform="translate(12.130119, 202.092125)"><g><path d="M 16.125 -28.984375 C 17.738281 -28.984375 19.226562 -28.785156 20.59375 -28.390625 C 21.957031 -28.003906 23.34375 -27.394531 24.75 -26.5625 L 25.75 -27.390625 C 26.4375 -27.929688 27.003906 -28.300781 27.453125 -28.5 C 27.898438 -28.707031 28.410156 -28.8125 28.984375 -28.8125 C 29.671875 -28.8125 30.210938 -28.660156 30.609375 -28.359375 C 31.015625 -28.054688 31.21875 -27.617188 31.21875 -27.046875 C 31.21875 -26.804688 31.175781 -26.5625 31.09375 -26.3125 L 29.28125 -20.359375 C 29.082031 -19.660156 28.832031 -19.164062 28.53125 -18.875 C 28.226562 -18.59375 27.773438 -18.453125 27.171875 -18.453125 C 26.535156 -18.453125 25.976562 -18.644531 25.5 -19.03125 C 25.03125 -19.425781 24.289062 -20.226562 23.28125 -21.4375 C 22.28125 -22.582031 21.367188 -23.390625 20.546875 -23.859375 C 19.722656 -24.335938 18.882812 -24.578125 18.03125 -24.578125 C 17.394531 -24.578125 16.859375 -24.367188 16.421875 -23.953125 C 15.992188 -23.535156 15.78125 -23.023438 15.78125 -22.421875 C 15.78125 -21.734375 16.125 -21.09375 16.8125 -20.5 C 17.507812 -19.914062 18.585938 -19.175781 20.046875 -18.28125 C 21.546875 -17.394531 22.785156 -16.59375 23.765625 -15.875 C 24.742188 -15.15625 25.578125 -14.257812 26.265625 -13.1875 C 26.953125 -12.125 27.296875 -10.90625 27.296875 -9.53125 C 27.296875 -8.632812 27.148438 -7.742188 26.859375 -6.859375 C 26.171875 -4.554688 24.832031 -2.804688 22.84375 -1.609375 C 20.863281 -0.421875 18.550781 0.171875 15.90625 0.171875 C 13.925781 0.171875 12.257812 -0.0546875 10.90625 -0.515625 C 9.5625 -0.972656 8.179688 -1.75 6.765625 -2.84375 L 5.21875 -1.546875 C 4.5 -0.941406 3.910156 -0.53125 3.453125 -0.3125 C 2.992188 -0.101562 2.472656 0 1.890625 0 C 1.234375 0 0.707031 -0.15625 0.3125 -0.46875 C -0.0703125 -0.789062 -0.265625 -1.222656 -0.265625 -1.765625 C -0.265625 -2.054688 -0.207031 -2.359375 -0.09375 -2.671875 L 2.03125 -9.09375 C 2.257812 -9.84375 2.570312 -10.375 2.96875 -10.6875 C 3.375 -11.007812 3.894531 -11.171875 4.53125 -11.171875 C 5.1875 -11.171875 5.78125 -10.941406 6.3125 -10.484375 C 6.84375 -10.023438 7.539062 -9.191406 8.40625 -7.984375 C 9.332031 -6.660156 10.1875 -5.738281 10.96875 -5.21875 C 11.757812 -4.695312 12.703125 -4.4375 13.796875 -4.4375 C 14.578125 -4.4375 15.175781 -4.554688 15.59375 -4.796875 C 16.007812 -5.046875 16.300781 -5.445312 16.46875 -6 C 16.53125 -6.132812 16.5625 -6.347656 16.5625 -6.640625 C 16.5625 -7.328125 16.226562 -7.957031 15.5625 -8.53125 C 14.90625 -9.113281 13.882812 -9.804688 12.5 -10.609375 C 11.039062 -11.503906 9.847656 -12.300781 8.921875 -13 C 8.003906 -13.707031 7.207031 -14.59375 6.53125 -15.65625 C 5.851562 -16.71875 5.515625 -17.96875 5.515625 -19.40625 C 5.515625 -20.414062 5.675781 -21.40625 6 -22.375 C 6.601562 -24.363281 7.835938 -25.960938 9.703125 -27.171875 C 11.566406 -28.378906 13.707031 -28.984375 16.125 -28.984375 Z M 16.125 -28.984375 "/></g></g></g><g fill="#ffa500" fill-opacity="0.4"><g transform="translate(41.841159, 202.092125)"><g><path d="M 26.6875 -5.953125 C 26.632812 -5.835938 26.609375 -5.664062 26.609375 -5.4375 C 26.609375 -5.226562 26.65625 -5.066406 26.75 -4.953125 C 26.851562 -4.835938 26.992188 -4.78125 27.171875 -4.78125 C 27.515625 -4.78125 27.804688 -4.929688 28.046875 -5.234375 C 28.296875 -5.535156 28.460938 -5.6875 28.546875 -5.6875 C 28.691406 -5.6875 28.804688 -5.59375 28.890625 -5.40625 C 28.972656 -5.21875 29.015625 -5 29.015625 -4.75 C 29.046875 -3.914062 28.773438 -3.101562 28.203125 -2.3125 C 27.628906 -1.519531 26.785156 -0.867188 25.671875 -0.359375 C 24.566406 0.140625 23.238281 0.390625 21.6875 0.390625 C 19.789062 0.390625 18.28125 -0.046875 17.15625 -0.921875 C 16.039062 -1.804688 15.46875 -2.976562 15.4375 -4.4375 C 15.4375 -5.5 15.695312 -6.691406 16.21875 -8.015625 L 18.59375 -14.234375 C 18.726562 -14.609375 18.796875 -14.910156 18.796875 -15.140625 C 18.796875 -15.515625 18.671875 -15.804688 18.421875 -16.015625 C 18.179688 -16.234375 17.890625 -16.34375 17.546875 -16.34375 C 16.921875 -16.34375 16.316406 -16.046875 15.734375 -15.453125 C 15.160156 -14.867188 14.742188 -14.144531 14.484375 -13.28125 L 11.8125 -4.484375 C 11.695312 -4.171875 11.640625 -3.867188 11.640625 -3.578125 C 11.640625 -3.234375 11.710938 -2.953125 11.859375 -2.734375 C 12.003906 -2.523438 12.207031 -2.300781 12.46875 -2.0625 C 12.664062 -1.894531 12.804688 -1.738281 12.890625 -1.59375 C 12.984375 -1.445312 13 -1.273438 12.9375 -1.078125 C 12.820312 -0.703125 12.546875 -0.425781 12.109375 -0.25 C 11.679688 -0.0820312 11.007812 0 10.09375 0 L 0.265625 0 C -0.484375 0 -1.023438 -0.117188 -1.359375 -0.359375 C -1.691406 -0.609375 -1.8125 -0.9375 -1.71875 -1.34375 C -1.601562 -1.6875 -1.300781 -1.988281 -0.8125 -2.25 C -0.382812 -2.476562 -0.03125 -2.75 0.25 -3.0625 C 0.539062 -3.375 0.785156 -3.878906 0.984375 -4.578125 L 4.828125 -17.03125 C 4.890625 -17.175781 4.921875 -17.378906 4.921875 -17.640625 C 4.921875 -17.953125 4.851562 -18.191406 4.71875 -18.359375 C 4.59375 -18.535156 4.382812 -18.753906 4.09375 -19.015625 C 3.8125 -19.242188 3.613281 -19.441406 3.5 -19.609375 C 3.382812 -19.785156 3.367188 -20.019531 3.453125 -20.3125 C 3.617188 -20.96875 4.519531 -21.546875 6.15625 -22.046875 C 7.800781 -22.554688 9.515625 -22.8125 11.296875 -22.8125 C 12.734375 -22.8125 13.867188 -22.414062 14.703125 -21.625 C 15.535156 -20.832031 15.910156 -19.734375 15.828125 -18.328125 C 17.003906 -20.023438 18.253906 -21.195312 19.578125 -21.84375 C 20.898438 -22.488281 22.335938 -22.8125 23.890625 -22.8125 C 25.640625 -22.8125 27.050781 -22.28125 28.125 -21.21875 C 29.207031 -20.15625 29.75 -18.773438 29.75 -17.078125 C 29.75 -16.179688 29.609375 -15.304688 29.328125 -14.453125 Z M 26.6875 -5.953125 "/></g></g></g><g fill="#ffa500" fill-opacity="0.4"><g transform="translate(72.716493, 202.092125)"><g><path d="M 15.390625 -22.8125 C 18.703125 -22.8125 21.347656 -22.195312 23.328125 -20.96875 C 25.316406 -19.75 26.3125 -17.890625 26.3125 -15.390625 C 26.3125 -14.441406 26.132812 -13.363281 25.78125 -12.15625 L 24.015625 -6.203125 C 23.992188 -6.085938 23.984375 -5.945312 23.984375 -5.78125 C 23.984375 -5.320312 24.164062 -5.09375 24.53125 -5.09375 C 24.882812 -5.09375 25.179688 -5.242188 25.421875 -5.546875 C 25.660156 -5.847656 25.828125 -6 25.921875 -6 C 26.066406 -6 26.1875 -5.894531 26.28125 -5.6875 C 26.382812 -5.488281 26.4375 -5.257812 26.4375 -5 C 26.46875 -4.226562 26.171875 -3.4375 25.546875 -2.625 C 24.929688 -1.820312 24.101562 -1.160156 23.0625 -0.640625 C 22.03125 -0.128906 20.898438 0.125 19.671875 0.125 C 18.171875 0.125 16.890625 -0.144531 15.828125 -0.6875 C 14.765625 -1.238281 14.03125 -2.046875 13.625 -3.109375 C 12.757812 -2.066406 11.738281 -1.265625 10.5625 -0.703125 C 9.382812 -0.148438 8.117188 0.125 6.765625 0.125 C 5.242188 0.125 3.960938 -0.164062 2.921875 -0.75 C 1.890625 -1.34375 1.125 -2.101562 0.625 -3.03125 C 0.125 -3.96875 -0.125 -4.957031 -0.125 -6 C -0.125 -6.457031 -0.0820312 -6.898438 0 -7.328125 C 0.457031 -9.316406 1.453125 -10.8125 2.984375 -11.8125 C 4.523438 -12.820312 6.363281 -13.328125 8.5 -13.328125 C 10.882812 -13.328125 13.226562 -12.953125 15.53125 -12.203125 L 16.609375 -15.046875 C 16.972656 -16.253906 17.15625 -17.191406 17.15625 -17.859375 C 17.132812 -18.546875 16.90625 -19.0625 16.46875 -19.40625 C 16.039062 -19.75 15.378906 -19.921875 14.484375 -19.921875 C 14.660156 -19.460938 14.75 -18.988281 14.75 -18.5 C 14.75 -17.4375 14.34375 -16.515625 13.53125 -15.734375 C 12.726562 -14.960938 11.582031 -14.578125 10.09375 -14.578125 C 8.6875 -14.578125 7.585938 -14.882812 6.796875 -15.5 C 6.003906 -16.125 5.609375 -16.894531 5.609375 -17.8125 C 5.609375 -19.25 6.410156 -20.441406 8.015625 -21.390625 C 9.628906 -22.335938 12.085938 -22.8125 15.390625 -22.8125 Z M 12.984375 -9.75 C 12.171875 -9.75 11.515625 -9.4375 11.015625 -8.8125 C 10.515625 -8.195312 10.265625 -7.53125 10.265625 -6.8125 C 10.265625 -6.351562 10.367188 -5.976562 10.578125 -5.6875 C 10.796875 -5.40625 11.109375 -5.265625 11.515625 -5.265625 C 11.890625 -5.265625 12.296875 -5.414062 12.734375 -5.71875 C 13.179688 -6.019531 13.507812 -6.472656 13.71875 -7.078125 L 14.625 -9.609375 C 14.132812 -9.703125 13.585938 -9.75 12.984375 -9.75 Z M 12.984375 -9.75 "/></g></g></g><g fill="#ffa500" fill-opacity="0.4"><g transform="translate(100.918264, 202.092125)"><g><path d="M 15.65625 -23.03125 C 17.40625 -23.03125 18.941406 -22.773438 20.265625 -22.265625 C 21.585938 -21.765625 22.613281 -21.078125 23.34375 -20.203125 C 24.082031 -19.328125 24.453125 -18.359375 24.453125 -17.296875 C 24.453125 -16.140625 24.054688 -15.1875 23.265625 -14.4375 C 22.472656 -13.695312 21.398438 -13.328125 20.046875 -13.328125 C 18.671875 -13.328125 17.59375 -13.675781 16.8125 -14.375 C 16.039062 -15.082031 15.65625 -16.039062 15.65625 -17.25 C 15.65625 -17.820312 15.738281 -18.425781 15.90625 -19.0625 C 14.707031 -18.75 13.640625 -18.125 12.703125 -17.1875 C 11.765625 -16.25 11.140625 -15.019531 10.828125 -13.5 C 10.648438 -12.632812 10.5625 -11.859375 10.5625 -11.171875 C 10.5625 -9.617188 10.992188 -8.4375 11.859375 -7.625 C 12.722656 -6.820312 13.957031 -6.421875 15.5625 -6.421875 C 16.488281 -6.421875 17.28125 -6.515625 17.9375 -6.703125 C 18.601562 -6.890625 19.28125 -7.140625 19.96875 -7.453125 C 20.539062 -7.742188 20.957031 -7.890625 21.21875 -7.890625 C 21.382812 -7.890625 21.5 -7.851562 21.5625 -7.78125 C 21.625 -7.707031 21.65625 -7.554688 21.65625 -7.328125 C 21.675781 -6.265625 21.234375 -5.148438 20.328125 -3.984375 C 19.421875 -2.828125 18.171875 -1.851562 16.578125 -1.0625 C 14.984375 -0.269531 13.195312 0.125 11.21875 0.125 C 9.144531 0.125 7.3125 -0.253906 5.71875 -1.015625 C 4.125 -1.773438 2.882812 -2.863281 2 -4.28125 C 1.125 -5.707031 0.6875 -7.367188 0.6875 -9.265625 C 0.6875 -10.160156 0.800781 -11.15625 1.03125 -12.25 C 1.8125 -15.8125 3.53125 -18.5 6.1875 -20.3125 C 8.84375 -22.125 12 -23.03125 15.65625 -23.03125 Z M 15.65625 -23.03125 "/></g></g></g><g fill="#ffa500" fill-opacity="0.4"><g transform="translate(124.29037, 202.092125)"><g><path d="M 25.578125 -22.8125 C 27.210938 -22.8125 28.523438 -22.359375 29.515625 -21.453125 C 30.503906 -20.546875 31 -19.445312 31 -18.15625 C 31 -16.769531 30.582031 -15.6875 29.75 -14.90625 C 28.914062 -14.132812 27.828125 -13.75 26.484375 -13.75 C 25.273438 -13.75 24.335938 -14.054688 23.671875 -14.671875 C 23.015625 -15.296875 22.703125 -16 22.734375 -16.78125 C 22.441406 -16.832031 22.191406 -16.710938 21.984375 -16.421875 C 21.785156 -16.140625 21.570312 -15.582031 21.34375 -14.75 C 21.195312 -14.195312 20.925781 -13.691406 20.53125 -13.234375 C 22.476562 -13.097656 23.925781 -12.65625 24.875 -11.90625 C 25.832031 -11.15625 26.3125 -10.191406 26.3125 -9.015625 C 26.3125 -8.441406 26.207031 -7.863281 26 -7.28125 L 25.65625 -5.953125 C 25.601562 -5.804688 25.578125 -5.617188 25.578125 -5.390625 C 25.578125 -4.984375 25.765625 -4.78125 26.140625 -4.78125 C 26.484375 -4.78125 26.773438 -4.929688 27.015625 -5.234375 C 27.265625 -5.535156 27.429688 -5.6875 27.515625 -5.6875 C 27.660156 -5.6875 27.773438 -5.59375 27.859375 -5.40625 C 27.941406 -5.21875 27.984375 -5 27.984375 -4.75 C 28.015625 -3.914062 27.765625 -3.101562 27.234375 -2.3125 C 26.703125 -1.519531 25.894531 -0.867188 24.8125 -0.359375 C 23.738281 0.140625 22.441406 0.390625 20.921875 0.390625 C 19.078125 0.390625 17.539062 -0.0664062 16.3125 -0.984375 C 15.09375 -1.910156 14.484375 -3.117188 14.484375 -4.609375 C 14.484375 -5.160156 14.597656 -5.78125 14.828125 -6.46875 L 15.65625 -8.625 C 15.800781 -9.144531 15.875 -9.519531 15.875 -9.75 C 15.875 -10.125 15.75 -10.394531 15.5 -10.5625 C 15.257812 -10.738281 14.878906 -10.828125 14.359375 -10.828125 L 13.5 -10.828125 L 11.5625 -4.484375 C 11.46875 -4.140625 11.421875 -3.835938 11.421875 -3.578125 C 11.421875 -3.203125 11.492188 -2.90625 11.640625 -2.6875 C 11.785156 -2.476562 11.988281 -2.269531 12.25 -2.0625 C 12.445312 -1.863281 12.585938 -1.695312 12.671875 -1.5625 C 12.765625 -1.4375 12.78125 -1.273438 12.71875 -1.078125 C 12.570312 -0.703125 12.285156 -0.425781 11.859375 -0.25 C 11.429688 -0.0820312 10.769531 0 9.875 0 L 0.046875 0 C -0.703125 0 -1.25 -0.117188 -1.59375 -0.359375 C -1.9375 -0.609375 -2.050781 -0.9375 -1.9375 -1.34375 C -1.820312 -1.6875 -1.519531 -1.988281 -1.03125 -2.25 C -0.601562 -2.476562 -0.25 -2.75 0.03125 -3.0625 C 0.320312 -3.375 0.570312 -3.878906 0.78125 -4.578125 L 7.328125 -26.09375 C 7.410156 -26.351562 7.453125 -26.566406 7.453125 -26.734375 C 7.453125 -27.054688 7.375 -27.316406 7.21875 -27.515625 C 7.0625 -27.710938 6.851562 -27.914062 6.59375 -28.125 C 6.3125 -28.351562 6.101562 -28.550781 5.96875 -28.71875 C 5.84375 -28.894531 5.820312 -29.125 5.90625 -29.40625 C 6.082031 -30.070312 6.988281 -30.648438 8.625 -31.140625 C 10.257812 -31.628906 11.96875 -31.875 13.75 -31.875 C 15.425781 -31.875 16.648438 -31.5625 17.421875 -30.9375 C 18.203125 -30.320312 18.59375 -29.46875 18.59375 -28.375 C 18.59375 -27.71875 18.488281 -27.085938 18.28125 -26.484375 L 14.53125 -14.234375 L 15.953125 -14.234375 C 16.523438 -14.234375 16.988281 -14.40625 17.34375 -14.75 C 17.707031 -15.09375 17.992188 -15.597656 18.203125 -16.265625 C 18.921875 -18.390625 19.851562 -20.007812 21 -21.125 C 22.15625 -22.25 23.679688 -22.8125 25.578125 -22.8125 Z M 25.578125 -22.8125 "/></g></g></g><g fill="#ffa500" fill-opacity="0.4"><g transform="translate(154.432626, 202.092125)"><g><path d="M 14.1875 -23.203125 C 16.570312 -23.203125 18.632812 -22.984375 20.375 -22.546875 C 22.113281 -22.117188 23.445312 -21.515625 24.375 -20.734375 C 25.3125 -19.960938 25.78125 -19.085938 25.78125 -18.109375 C 25.78125 -17.109375 25.382812 -16.289062 24.59375 -15.65625 C 23.8125 -15.019531 22.710938 -14.703125 21.296875 -14.703125 C 19.859375 -14.703125 18.644531 -15.0625 17.65625 -15.78125 C 16.664062 -16.5 16.171875 -17.40625 16.171875 -18.5 C 16.171875 -18.875 16.226562 -19.234375 16.34375 -19.578125 C 15.820312 -19.722656 15.363281 -19.796875 14.96875 -19.796875 C 14.25 -19.796875 13.648438 -19.625 13.171875 -19.28125 C 12.703125 -18.9375 12.476562 -18.445312 12.5 -17.8125 C 12.5 -17.0625 12.875 -16.425781 13.625 -15.90625 C 14.375 -15.394531 15.582031 -14.75 17.25 -13.96875 C 18.6875 -13.34375 19.867188 -12.757812 20.796875 -12.21875 C 21.734375 -11.6875 22.523438 -11.019531 23.171875 -10.21875 C 23.828125 -9.414062 24.15625 -8.46875 24.15625 -7.375 C 24.15625 -7.144531 24.097656 -6.710938 23.984375 -6.078125 C 23.515625 -4.148438 22.226562 -2.625 20.125 -1.5 C 18.03125 -0.382812 15.273438 0.171875 11.859375 0.171875 C 8.003906 0.171875 4.945312 -0.34375 2.6875 -1.375 C 0.4375 -2.414062 -0.6875 -3.84375 -0.6875 -5.65625 C -0.6875 -6.882812 -0.316406 -7.816406 0.421875 -8.453125 C 1.171875 -9.085938 2.164062 -9.40625 3.40625 -9.40625 C 4.84375 -9.40625 6.070312 -8.957031 7.09375 -8.0625 C 8.113281 -7.175781 8.625 -6.039062 8.625 -4.65625 C 8.625 -4.28125 8.582031 -3.894531 8.5 -3.5 C 9.1875 -3.320312 9.847656 -3.234375 10.484375 -3.234375 C 11.222656 -3.234375 11.835938 -3.429688 12.328125 -3.828125 C 12.816406 -4.234375 13.0625 -4.796875 13.0625 -5.515625 C 13.039062 -6.179688 12.710938 -6.75 12.078125 -7.21875 C 11.441406 -7.695312 10.4375 -8.265625 9.0625 -8.921875 C 7.757812 -9.523438 6.691406 -10.09375 5.859375 -10.625 C 5.023438 -11.15625 4.3125 -11.820312 3.71875 -12.625 C 3.132812 -13.4375 2.84375 -14.390625 2.84375 -15.484375 C 2.84375 -17.835938 3.828125 -19.710938 5.796875 -21.109375 C 7.765625 -22.503906 10.5625 -23.203125 14.1875 -23.203125 Z M 14.1875 -23.203125 "/></g></g></g><g fill="#ffa500" fill-opacity="0.4"><g transform="translate(180.003953, 202.092125)"><g><path d="M 17.03125 -28.71875 C 19.90625 -28.71875 22.398438 -28.304688 24.515625 -27.484375 C 26.628906 -26.671875 28.238281 -25.601562 29.34375 -24.28125 C 30.445312 -22.957031 31 -21.546875 31 -20.046875 C 31 -19.503906 30.914062 -18.945312 30.75 -18.375 C 30.34375 -17.164062 29.664062 -16.210938 28.71875 -15.515625 C 27.769531 -14.828125 26.316406 -14.203125 24.359375 -13.640625 C 22.410156 -13.085938 19.410156 -12.421875 15.359375 -11.640625 C 12.910156 -11.179688 11.070312 -10.769531 9.84375 -10.40625 C 8.625 -10.050781 7.773438 -9.671875 7.296875 -9.265625 C 6.828125 -8.867188 6.566406 -8.351562 6.515625 -7.71875 L 18.9375 -7.71875 C 20.65625 -7.71875 21.957031 -7.945312 22.84375 -8.40625 C 23.738281 -8.863281 24.578125 -9.484375 25.359375 -10.265625 C 25.703125 -10.640625 25.976562 -10.90625 26.1875 -11.0625 C 26.40625 -11.21875 26.660156 -11.296875 26.953125 -11.296875 C 27.472656 -11.296875 27.945312 -10.941406 28.375 -10.234375 C 28.800781 -9.535156 29.015625 -8.640625 29.015625 -7.546875 C 29.015625 -6.828125 28.890625 -6.007812 28.640625 -5.09375 C 28.054688 -3.25 27.015625 -1.9375 25.515625 -1.15625 C 24.023438 -0.382812 21.773438 0 18.765625 0 L 3.53125 0 C 2.613281 0 1.875 -0.382812 1.3125 -1.15625 C 0.75 -1.9375 0.46875 -2.988281 0.46875 -4.3125 C 0.46875 -5.289062 0.640625 -6.351562 0.984375 -7.5 C 1.585938 -9.488281 2.695312 -11.09375 4.3125 -12.3125 C 5.925781 -13.53125 8.195312 -14.554688 11.125 -15.390625 C 13.082031 -15.972656 14.59375 -16.539062 15.65625 -17.09375 C 16.71875 -17.65625 17.476562 -18.21875 17.9375 -18.78125 C 18.394531 -19.34375 18.753906 -20.039062 19.015625 -20.875 C 19.160156 -21.445312 19.234375 -21.921875 19.234375 -22.296875 C 19.234375 -23.097656 18.988281 -23.742188 18.5 -24.234375 C 18.007812 -24.722656 17.347656 -24.96875 16.515625 -24.96875 C 16.285156 -24.96875 15.882812 -24.910156 15.3125 -24.796875 C 15.34375 -24.617188 15.359375 -24.359375 15.359375 -24.015625 C 15.359375 -22.066406 14.765625 -20.601562 13.578125 -19.625 C 12.398438 -18.644531 10.921875 -18.15625 9.140625 -18.15625 C 7.816406 -18.15625 6.765625 -18.5 5.984375 -19.1875 C 5.210938 -19.875 4.828125 -20.8125 4.828125 -22 C 4.828125 -22.570312 4.898438 -23.085938 5.046875 -23.546875 C 5.566406 -25.242188 6.875 -26.53125 8.96875 -27.40625 C 11.070312 -28.28125 13.757812 -28.71875 17.03125 -28.71875 Z M 17.03125 -28.71875 "/></g></g></g><g fill="#ffa500" fill-opacity="0.4"><g transform="translate(210.620556, 202.092125)"><g><path d="M 16.125 -28.984375 C 17.738281 -28.984375 19.226562 -28.785156 20.59375 -28.390625 C 21.957031 -28.003906 23.34375 -27.394531 24.75 -26.5625 L 25.75 -27.390625 C 26.4375 -27.929688 27.003906 -28.300781 27.453125 -28.5 C 27.898438 -28.707031 28.410156 -28.8125 28.984375 -28.8125 C 29.671875 -28.8125 30.210938 -28.660156 30.609375 -28.359375 C 31.015625 -28.054688 31.21875 -27.617188 31.21875 -27.046875 C 31.21875 -26.804688 31.175781 -26.5625 31.09375 -26.3125 L 29.28125 -20.359375 C 29.082031 -19.660156 28.832031 -19.164062 28.53125 -18.875 C 28.226562 -18.59375 27.773438 -18.453125 27.171875 -18.453125 C 26.535156 -18.453125 25.976562 -18.644531 25.5 -19.03125 C 25.03125 -19.425781 24.289062 -20.226562 23.28125 -21.4375 C 22.28125 -22.582031 21.367188 -23.390625 20.546875 -23.859375 C 19.722656 -24.335938 18.882812 -24.578125 18.03125 -24.578125 C 17.394531 -24.578125 16.859375 -24.367188 16.421875 -23.953125 C 15.992188 -23.535156 15.78125 -23.023438 15.78125 -22.421875 C 15.78125 -21.734375 16.125 -21.09375 16.8125 -20.5 C 17.507812 -19.914062 18.585938 -19.175781 20.046875 -18.28125 C 21.546875 -17.394531 22.785156 -16.59375 23.765625 -15.875 C 24.742188 -15.15625 25.578125 -14.257812 26.265625 -13.1875 C 26.953125 -12.125 27.296875 -10.90625 27.296875 -9.53125 C 27.296875 -8.632812 27.148438 -7.742188 26.859375 -6.859375 C 26.171875 -4.554688 24.832031 -2.804688 22.84375 -1.609375 C 20.863281 -0.421875 18.550781 0.171875 15.90625 0.171875 C 13.925781 0.171875 12.257812 -0.0546875 10.90625 -0.515625 C 9.5625 -0.972656 8.179688 -1.75 6.765625 -2.84375 L 5.21875 -1.546875 C 4.5 -0.941406 3.910156 -0.53125 3.453125 -0.3125 C 2.992188 -0.101562 2.472656 0 1.890625 0 C 1.234375 0 0.707031 -0.15625 0.3125 -0.46875 C -0.0703125 -0.789062 -0.265625 -1.222656 -0.265625 -1.765625 C -0.265625 -2.054688 -0.207031 -2.359375 -0.09375 -2.671875 L 2.03125 -9.09375 C 2.257812 -9.84375 2.570312 -10.375 2.96875 -10.6875 C 3.375 -11.007812 3.894531 -11.171875 4.53125 -11.171875 C 5.1875 -11.171875 5.78125 -10.941406 6.3125 -10.484375 C 6.84375 -10.023438 7.539062 -9.191406 8.40625 -7.984375 C 9.332031 -6.660156 10.1875 -5.738281 10.96875 -5.21875 C 11.757812 -4.695312 12.703125 -4.4375 13.796875 -4.4375 C 14.578125 -4.4375 15.175781 -4.554688 15.59375 -4.796875 C 16.007812 -5.046875 16.300781 -5.445312 16.46875 -6 C 16.53125 -6.132812 16.5625 -6.347656 16.5625 -6.640625 C 16.5625 -7.328125 16.226562 -7.957031 15.5625 -8.53125 C 14.90625 -9.113281 13.882812 -9.804688 12.5 -10.609375 C 11.039062 -11.503906 9.847656 -12.300781 8.921875 -13 C 8.003906 -13.707031 7.207031 -14.59375 6.53125 -15.65625 C 5.851562 -16.71875 5.515625 -17.96875 5.515625 -19.40625 C 5.515625 -20.414062 5.675781 -21.40625 6 -22.375 C 6.601562 -24.363281 7.835938 -25.960938 9.703125 -27.171875 C 11.566406 -28.378906 13.707031 -28.984375 16.125 -28.984375 Z M 16.125 -28.984375 "/></g></g></g><g fill="#ffa500" fill-opacity="0.4"><g transform="translate(240.331591, 202.092125)"><g><path d="M 15.65625 -23.03125 C 17.40625 -23.03125 18.941406 -22.773438 20.265625 -22.265625 C 21.585938 -21.765625 22.613281 -21.078125 23.34375 -20.203125 C 24.082031 -19.328125 24.453125 -18.359375 24.453125 -17.296875 C 24.453125 -16.140625 24.054688 -15.1875 23.265625 -14.4375 C 22.472656 -13.695312 21.398438 -13.328125 20.046875 -13.328125 C 18.671875 -13.328125 17.59375 -13.675781 16.8125 -14.375 C 16.039062 -15.082031 15.65625 -16.039062 15.65625 -17.25 C 15.65625 -17.820312 15.738281 -18.425781 15.90625 -19.0625 C 14.707031 -18.75 13.640625 -18.125 12.703125 -17.1875 C 11.765625 -16.25 11.140625 -15.019531 10.828125 -13.5 C 10.648438 -12.632812 10.5625 -11.859375 10.5625 -11.171875 C 10.5625 -9.617188 10.992188 -8.4375 11.859375 -7.625 C 12.722656 -6.820312 13.957031 -6.421875 15.5625 -6.421875 C 16.488281 -6.421875 17.28125 -6.515625 17.9375 -6.703125 C 18.601562 -6.890625 19.28125 -7.140625 19.96875 -7.453125 C 20.539062 -7.742188 20.957031 -7.890625 21.21875 -7.890625 C 21.382812 -7.890625 21.5 -7.851562 21.5625 -7.78125 C 21.625 -7.707031 21.65625 -7.554688 21.65625 -7.328125 C 21.675781 -6.265625 21.234375 -5.148438 20.328125 -3.984375 C 19.421875 -2.828125 18.171875 -1.851562 16.578125 -1.0625 C 14.984375 -0.269531 13.195312 0.125 11.21875 0.125 C 9.144531 0.125 7.3125 -0.253906 5.71875 -1.015625 C 4.125 -1.773438 2.882812 -2.863281 2 -4.28125 C 1.125 -5.707031 0.6875 -7.367188 0.6875 -9.265625 C 0.6875 -10.160156 0.800781 -11.15625 1.03125 -12.25 C 1.8125 -15.8125 3.53125 -18.5 6.1875 -20.3125 C 8.84375 -22.125 12 -23.03125 15.65625 -23.03125 Z M 15.65625 -23.03125 "/></g></g></g><g fill="#ffa500" fill-opacity="0.4"><g transform="translate(263.703705, 202.092125)"><g><path d="M 26.4375 -5.953125 C 26.375 -5.835938 26.34375 -5.664062 26.34375 -5.4375 C 26.34375 -5.226562 26.394531 -5.066406 26.5 -4.953125 C 26.601562 -4.835938 26.738281 -4.78125 26.90625 -4.78125 C 27.25 -4.78125 27.539062 -4.929688 27.78125 -5.234375 C 28.03125 -5.535156 28.203125 -5.6875 28.296875 -5.6875 C 28.429688 -5.6875 28.539062 -5.59375 28.625 -5.40625 C 28.71875 -5.21875 28.765625 -5 28.765625 -4.75 C 28.796875 -3.914062 28.519531 -3.101562 27.9375 -2.3125 C 27.363281 -1.519531 26.523438 -0.867188 25.421875 -0.359375 C 24.316406 0.140625 22.988281 0.390625 21.4375 0.390625 C 19.539062 0.390625 18.03125 -0.046875 16.90625 -0.921875 C 15.78125 -1.804688 15.207031 -2.976562 15.1875 -4.4375 C 15.1875 -5.5 15.441406 -6.691406 15.953125 -8.015625 L 18.328125 -14.234375 C 18.472656 -14.609375 18.546875 -14.910156 18.546875 -15.140625 C 18.546875 -15.515625 18.421875 -15.804688 18.171875 -16.015625 C 17.929688 -16.234375 17.640625 -16.34375 17.296875 -16.34375 C 16.742188 -16.34375 16.1875 -16.085938 15.625 -15.578125 C 15.070312 -15.078125 14.625 -14.269531 14.28125 -13.15625 L 14.28125 -13.234375 L 11.5625 -4.484375 C 11.46875 -4.140625 11.421875 -3.835938 11.421875 -3.578125 C 11.421875 -3.203125 11.492188 -2.90625 11.640625 -2.6875 C 11.785156 -2.476562 11.988281 -2.269531 12.25 -2.0625 C 12.445312 -1.863281 12.585938 -1.695312 12.671875 -1.5625 C 12.765625 -1.4375 12.78125 -1.273438 12.71875 -1.078125 C 12.570312 -0.703125 12.285156 -0.425781 11.859375 -0.25 C 11.429688 -0.0820312 10.769531 0 9.875 0 L 0.046875 0 C -0.703125 0 -1.25 -0.117188 -1.59375 -0.359375 C -1.9375 -0.609375 -2.050781 -0.9375 -1.9375 -1.34375 C -1.820312 -1.6875 -1.519531 -1.988281 -1.03125 -2.25 C -0.601562 -2.476562 -0.25 -2.75 0.03125 -3.0625 C 0.320312 -3.375 0.570312 -3.878906 0.78125 -4.578125 L 7.328125 -26.09375 C 7.410156 -26.351562 7.453125 -26.566406 7.453125 -26.734375 C 7.453125 -27.054688 7.375 -27.316406 7.21875 -27.515625 C 7.0625 -27.710938 6.851562 -27.914062 6.59375 -28.125 C 6.3125 -28.351562 6.101562 -28.550781 5.96875 -28.71875 C 5.84375 -28.894531 5.820312 -29.125 5.90625 -29.40625 C 6.082031 -30.070312 6.988281 -30.648438 8.625 -31.140625 C 10.257812 -31.628906 11.96875 -31.875 13.75 -31.875 C 15.425781 -31.875 16.65625 -31.554688 17.4375 -30.921875 C 18.226562 -30.285156 18.625 -29.421875 18.625 -28.328125 C 18.625 -27.703125 18.523438 -27.085938 18.328125 -26.484375 L 16 -18.890625 C 17.125 -20.359375 18.3125 -21.378906 19.5625 -21.953125 C 20.8125 -22.523438 22.164062 -22.8125 23.625 -22.8125 C 25.382812 -22.8125 26.800781 -22.28125 27.875 -21.21875 C 28.957031 -20.15625 29.5 -18.773438 29.5 -17.078125 C 29.5 -16.179688 29.351562 -15.304688 29.0625 -14.453125 Z M 26.4375 -5.953125 "/></g></g></g><g fill="#ffa500" fill-opacity="0.4"><g transform="translate(294.320308, 202.092125)"><g><path d="M 16.6875 -22.8125 C 20.59375 -22.8125 23.472656 -22.019531 25.328125 -20.4375 C 27.191406 -18.851562 28.125 -16.785156 28.125 -14.234375 C 28.125 -13.367188 28.003906 -12.40625 27.765625 -11.34375 C 27.222656 -8.988281 26.203125 -6.925781 24.703125 -5.15625 C 23.210938 -3.382812 21.378906 -2.015625 19.203125 -1.046875 C 17.035156 -0.0859375 14.6875 0.390625 12.15625 0.390625 C 8.164062 0.390625 5.210938 -0.40625 3.296875 -2 C 1.390625 -3.601562 0.4375 -5.722656 0.4375 -8.359375 C 0.4375 -9.253906 0.550781 -10.25 0.78125 -11.34375 C 1.320312 -13.582031 2.359375 -15.570312 3.890625 -17.3125 C 5.429688 -19.050781 7.316406 -20.398438 9.546875 -21.359375 C 11.773438 -22.328125 14.15625 -22.8125 16.6875 -22.8125 Z M 16.5625 -18.96875 C 15.957031 -18.96875 15.316406 -18.425781 14.640625 -17.34375 C 13.960938 -16.269531 13.164062 -14.238281 12.25 -11.25 C 11.332031 -8.257812 10.875 -6.160156 10.875 -4.953125 C 10.875 -4.328125 10.972656 -3.90625 11.171875 -3.6875 C 11.367188 -3.46875 11.640625 -3.359375 11.984375 -3.359375 C 12.585938 -3.304688 13.210938 -3.828125 13.859375 -4.921875 C 14.503906 -6.015625 15.316406 -8.140625 16.296875 -11.296875 C 17.191406 -14.085938 17.640625 -16.113281 17.640625 -17.375 C 17.640625 -17.976562 17.546875 -18.394531 17.359375 -18.625 C 17.171875 -18.851562 16.90625 -18.96875 16.5625 -18.96875 Z M 16.5625 -18.96875 "/></g></g></g><g fill="#ffa500" fill-opacity="0.4"><g transform="translate(322.608321, 202.092125)"><g><path d="M 16.6875 -22.8125 C 20.59375 -22.8125 23.472656 -22.019531 25.328125 -20.4375 C 27.191406 -18.851562 28.125 -16.785156 28.125 -14.234375 C 28.125 -13.367188 28.003906 -12.40625 27.765625 -11.34375 C 27.222656 -8.988281 26.203125 -6.925781 24.703125 -5.15625 C 23.210938 -3.382812 21.378906 -2.015625 19.203125 -1.046875 C 17.035156 -0.0859375 14.6875 0.390625 12.15625 0.390625 C 8.164062 0.390625 5.210938 -0.40625 3.296875 -2 C 1.390625 -3.601562 0.4375 -5.722656 0.4375 -8.359375 C 0.4375 -9.253906 0.550781 -10.25 0.78125 -11.34375 C 1.320312 -13.582031 2.359375 -15.570312 3.890625 -17.3125 C 5.429688 -19.050781 7.316406 -20.398438 9.546875 -21.359375 C 11.773438 -22.328125 14.15625 -22.8125 16.6875 -22.8125 Z M 16.5625 -18.96875 C 15.957031 -18.96875 15.316406 -18.425781 14.640625 -17.34375 C 13.960938 -16.269531 13.164062 -14.238281 12.25 -11.25 C 11.332031 -8.257812 10.875 -6.160156 10.875 -4.953125 C 10.875 -4.328125 10.972656 -3.90625 11.171875 -3.6875 C 11.367188 -3.46875 11.640625 -3.359375 11.984375 -3.359375 C 12.585938 -3.304688 13.210938 -3.828125 13.859375 -4.921875 C 14.503906 -6.015625 15.316406 -8.140625 16.296875 -11.296875 C 17.191406 -14.085938 17.640625 -16.113281 17.640625 -17.375 C 17.640625 -17.976562 17.546875 -18.394531 17.359375 -18.625 C 17.171875 -18.851562 16.90625 -18.96875 16.5625 -18.96875 Z M 16.5625 -18.96875 "/></g></g></g><g fill="#ffa500" fill-opacity="0.4"><g transform="translate(350.896333, 202.092125)"><g><path d="M 13.75 -31.875 C 15.425781 -31.875 16.65625 -31.554688 17.4375 -30.921875 C 18.226562 -30.285156 18.625 -29.421875 18.625 -28.328125 C 18.625 -27.703125 18.523438 -27.085938 18.328125 -26.484375 L 11.5625 -4.484375 C 11.46875 -4.140625 11.421875 -3.835938 11.421875 -3.578125 C 11.421875 -3.203125 11.492188 -2.90625 11.640625 -2.6875 C 11.785156 -2.476562 11.988281 -2.269531 12.25 -2.0625 C 12.445312 -1.863281 12.585938 -1.695312 12.671875 -1.5625 C 12.765625 -1.4375 12.78125 -1.273438 12.71875 -1.078125 C 12.570312 -0.703125 12.285156 -0.425781 11.859375 -0.25 C 11.429688 -0.0820312 10.769531 0 9.875 0 L 0.046875 0 C -0.703125 0 -1.25 -0.117188 -1.59375 -0.359375 C -1.9375 -0.609375 -2.050781 -0.9375 -1.9375 -1.34375 C -1.820312 -1.6875 -1.519531 -1.988281 -1.03125 -2.25 C -0.601562 -2.476562 -0.25 -2.75 0.03125 -3.0625 C 0.320312 -3.375 0.570312 -3.878906 0.78125 -4.578125 L 7.328125 -26.09375 C 7.410156 -26.351562 7.453125 -26.566406 7.453125 -26.734375 C 7.453125 -27.054688 7.375 -27.316406 7.21875 -27.515625 C 7.0625 -27.710938 6.851562 -27.914062 6.59375 -28.125 C 6.3125 -28.351562 6.101562 -28.550781 5.96875 -28.71875 C 5.84375 -28.894531 5.820312 -29.125 5.90625 -29.40625 C 6.082031 -30.070312 6.988281 -30.648438 8.625 -31.140625 C 10.257812 -31.628906 11.96875 -31.875 13.75 -31.875 Z M 13.75 -31.875 "/></g></g></g><g fill="#ffa500" fill-opacity="1"><g transform="translate(10.224213, 200.186215)"><g><path d="M 16.125 -28.984375 C 17.738281 -28.984375 19.226562 -28.785156 20.59375 -28.390625 C 21.957031 -28.003906 23.34375 -27.394531 24.75 -26.5625 L 25.75 -27.390625 C 26.4375 -27.929688 27.003906 -28.300781 27.453125 -28.5 C 27.898438 -28.707031 28.410156 -28.8125 28.984375 -28.8125 C 29.671875 -28.8125 30.210938 -28.660156 30.609375 -28.359375 C 31.015625 -28.054688 31.21875 -27.617188 31.21875 -27.046875 C 31.21875 -26.804688 31.175781 -26.5625 31.09375 -26.3125 L 29.28125 -20.359375 C 29.082031 -19.660156 28.832031 -19.164062 28.53125 -18.875 C 28.226562 -18.59375 27.773438 -18.453125 27.171875 -18.453125 C 26.535156 -18.453125 25.976562 -18.644531 25.5 -19.03125 C 25.03125 -19.425781 24.289062 -20.226562 23.28125 -21.4375 C 22.28125 -22.582031 21.367188 -23.390625 20.546875 -23.859375 C 19.722656 -24.335938 18.882812 -24.578125 18.03125 -24.578125 C 17.394531 -24.578125 16.859375 -24.367188 16.421875 -23.953125 C 15.992188 -23.535156 15.78125 -23.023438 15.78125 -22.421875 C 15.78125 -21.734375 16.125 -21.09375 16.8125 -20.5 C 17.507812 -19.914062 18.585938 -19.175781 20.046875 -18.28125 C 21.546875 -17.394531 22.785156 -16.59375 23.765625 -15.875 C 24.742188 -15.15625 25.578125 -14.257812 26.265625 -13.1875 C 26.953125 -12.125 27.296875 -10.90625 27.296875 -9.53125 C 27.296875 -8.632812 27.148438 -7.742188 26.859375 -6.859375 C 26.171875 -4.554688 24.832031 -2.804688 22.84375 -1.609375 C 20.863281 -0.421875 18.550781 0.171875 15.90625 0.171875 C 13.925781 0.171875 12.257812 -0.0546875 10.90625 -0.515625 C 9.5625 -0.972656 8.179688 -1.75 6.765625 -2.84375 L 5.21875 -1.546875 C 4.5 -0.941406 3.910156 -0.53125 3.453125 -0.3125 C 2.992188 -0.101562 2.472656 0 1.890625 0 C 1.234375 0 0.707031 -0.15625 0.3125 -0.46875 C -0.0703125 -0.789062 -0.265625 -1.222656 -0.265625 -1.765625 C -0.265625 -2.054688 -0.207031 -2.359375 -0.09375 -2.671875 L 2.03125 -9.09375 C 2.257812 -9.84375 2.570312 -10.375 2.96875 -10.6875 C 3.375 -11.007812 3.894531 -11.171875 4.53125 -11.171875 C 5.1875 -11.171875 5.78125 -10.941406 6.3125 -10.484375 C 6.84375 -10.023438 7.539062 -9.191406 8.40625 -7.984375 C 9.332031 -6.660156 10.1875 -5.738281 10.96875 -5.21875 C 11.757812 -4.695312 12.703125 -4.4375 13.796875 -4.4375 C 14.578125 -4.4375 15.175781 -4.554688 15.59375 -4.796875 C 16.007812 -5.046875 16.300781 -5.445312 16.46875 -6 C 16.53125 -6.132812 16.5625 -6.347656 16.5625 -6.640625 C 16.5625 -7.328125 16.226562 -7.957031 15.5625 -8.53125 C 14.90625 -9.113281 13.882812 -9.804688 12.5 -10.609375 C 11.039062 -11.503906 9.847656 -12.300781 8.921875 -13 C 8.003906 -13.707031 7.207031 -14.59375 6.53125 -15.65625 C 5.851562 -16.71875 5.515625 -17.96875 5.515625 -19.40625 C 5.515625 -20.414062 5.675781 -21.40625 6 -22.375 C 6.601562 -24.363281 7.835938 -25.960938 9.703125 -27.171875 C 11.566406 -28.378906 13.707031 -28.984375 16.125 -28.984375 Z M 16.125 -28.984375 "/></g></g></g><g fill="#ffa500" fill-opacity="1"><g transform="translate(39.935253, 200.186215)"><g><path d="M 26.6875 -5.953125 C 26.632812 -5.835938 26.609375 -5.664062 26.609375 -5.4375 C 26.609375 -5.226562 26.65625 -5.066406 26.75 -4.953125 C 26.851562 -4.835938 26.992188 -4.78125 27.171875 -4.78125 C 27.515625 -4.78125 27.804688 -4.929688 28.046875 -5.234375 C 28.296875 -5.535156 28.460938 -5.6875 28.546875 -5.6875 C 28.691406 -5.6875 28.804688 -5.59375 28.890625 -5.40625 C 28.972656 -5.21875 29.015625 -5 29.015625 -4.75 C 29.046875 -3.914062 28.773438 -3.101562 28.203125 -2.3125 C 27.628906 -1.519531 26.785156 -0.867188 25.671875 -0.359375 C 24.566406 0.140625 23.238281 0.390625 21.6875 0.390625 C 19.789062 0.390625 18.28125 -0.046875 17.15625 -0.921875 C 16.039062 -1.804688 15.46875 -2.976562 15.4375 -4.4375 C 15.4375 -5.5 15.695312 -6.691406 16.21875 -8.015625 L 18.59375 -14.234375 C 18.726562 -14.609375 18.796875 -14.910156 18.796875 -15.140625 C 18.796875 -15.515625 18.671875 -15.804688 18.421875 -16.015625 C 18.179688 -16.234375 17.890625 -16.34375 17.546875 -16.34375 C 16.921875 -16.34375 16.316406 -16.046875 15.734375 -15.453125 C 15.160156 -14.867188 14.742188 -14.144531 14.484375 -13.28125 L 11.8125 -4.484375 C 11.695312 -4.171875 11.640625 -3.867188 11.640625 -3.578125 C 11.640625 -3.234375 11.710938 -2.953125 11.859375 -2.734375 C 12.003906 -2.523438 12.207031 -2.300781 12.46875 -2.0625 C 12.664062 -1.894531 12.804688 -1.738281 12.890625 -1.59375 C 12.984375 -1.445312 13 -1.273438 12.9375 -1.078125 C 12.820312 -0.703125 12.546875 -0.425781 12.109375 -0.25 C 11.679688 -0.0820312 11.007812 0 10.09375 0 L 0.265625 0 C -0.484375 0 -1.023438 -0.117188 -1.359375 -0.359375 C -1.691406 -0.609375 -1.8125 -0.9375 -1.71875 -1.34375 C -1.601562 -1.6875 -1.300781 -1.988281 -0.8125 -2.25 C -0.382812 -2.476562 -0.03125 -2.75 0.25 -3.0625 C 0.539062 -3.375 0.785156 -3.878906 0.984375 -4.578125 L 4.828125 -17.03125 C 4.890625 -17.175781 4.921875 -17.378906 4.921875 -17.640625 C 4.921875 -17.953125 4.851562 -18.191406 4.71875 -18.359375 C 4.59375 -18.535156 4.382812 -18.753906 4.09375 -19.015625 C 3.8125 -19.242188 3.613281 -19.441406 3.5 -19.609375 C 3.382812 -19.785156 3.367188 -20.019531 3.453125 -20.3125 C 3.617188 -20.96875 4.519531 -21.546875 6.15625 -22.046875 C 7.800781 -22.554688 9.515625 -22.8125 11.296875 -22.8125 C 12.734375 -22.8125 13.867188 -22.414062 14.703125 -21.625 C 15.535156 -20.832031 15.910156 -19.734375 15.828125 -18.328125 C 17.003906 -20.023438 18.253906 -21.195312 19.578125 -21.84375 C 20.898438 -22.488281 22.335938 -22.8125 23.890625 -22.8125 C 25.640625 -22.8125 27.050781 -22.28125 28.125 -21.21875 C 29.207031 -20.15625 29.75 -18.773438 29.75 -17.078125 C 29.75 -16.179688 29.609375 -15.304688 29.328125 -14.453125 Z M 26.6875 -5.953125 "/></g></g></g><g fill="#ffa500" fill-opacity="1"><g transform="translate(70.810587, 200.186215)"><g><path d="M 15.390625 -22.8125 C 18.703125 -22.8125 21.347656 -22.195312 23.328125 -20.96875 C 25.316406 -19.75 26.3125 -17.890625 26.3125 -15.390625 C 26.3125 -14.441406 26.132812 -13.363281 25.78125 -12.15625 L 24.015625 -6.203125 C 23.992188 -6.085938 23.984375 -5.945312 23.984375 -5.78125 C 23.984375 -5.320312 24.164062 -5.09375 24.53125 -5.09375 C 24.882812 -5.09375 25.179688 -5.242188 25.421875 -5.546875 C 25.660156 -5.847656 25.828125 -6 25.921875 -6 C 26.066406 -6 26.1875 -5.894531 26.28125 -5.6875 C 26.382812 -5.488281 26.4375 -5.257812 26.4375 -5 C 26.46875 -4.226562 26.171875 -3.4375 25.546875 -2.625 C 24.929688 -1.820312 24.101562 -1.160156 23.0625 -0.640625 C 22.03125 -0.128906 20.898438 0.125 19.671875 0.125 C 18.171875 0.125 16.890625 -0.144531 15.828125 -0.6875 C 14.765625 -1.238281 14.03125 -2.046875 13.625 -3.109375 C 12.757812 -2.066406 11.738281 -1.265625 10.5625 -0.703125 C 9.382812 -0.148438 8.117188 0.125 6.765625 0.125 C 5.242188 0.125 3.960938 -0.164062 2.921875 -0.75 C 1.890625 -1.34375 1.125 -2.101562 0.625 -3.03125 C 0.125 -3.96875 -0.125 -4.957031 -0.125 -6 C -0.125 -6.457031 -0.0820312 -6.898438 0 -7.328125 C 0.457031 -9.316406 1.453125 -10.8125 2.984375 -11.8125 C 4.523438 -12.820312 6.363281 -13.328125 8.5 -13.328125 C 10.882812 -13.328125 13.226562 -12.953125 15.53125 -12.203125 L 16.609375 -15.046875 C 16.972656 -16.253906 17.15625 -17.191406 17.15625 -17.859375 C 17.132812 -18.546875 16.90625 -19.0625 16.46875 -19.40625 C 16.039062 -19.75 15.378906 -19.921875 14.484375 -19.921875 C 14.660156 -19.460938 14.75 -18.988281 14.75 -18.5 C 14.75 -17.4375 14.34375 -16.515625 13.53125 -15.734375 C 12.726562 -14.960938 11.582031 -14.578125 10.09375 -14.578125 C 8.6875 -14.578125 7.585938 -14.882812 6.796875 -15.5 C 6.003906 -16.125 5.609375 -16.894531 5.609375 -17.8125 C 5.609375 -19.25 6.410156 -20.441406 8.015625 -21.390625 C 9.628906 -22.335938 12.085938 -22.8125 15.390625 -22.8125 Z M 12.984375 -9.75 C 12.171875 -9.75 11.515625 -9.4375 11.015625 -8.8125 C 10.515625 -8.195312 10.265625 -7.53125 10.265625 -6.8125 C 10.265625 -6.351562 10.367188 -5.976562 10.578125 -5.6875 C 10.796875 -5.40625 11.109375 -5.265625 11.515625 -5.265625 C 11.890625 -5.265625 12.296875 -5.414062 12.734375 -5.71875 C 13.179688 -6.019531 13.507812 -6.472656 13.71875 -7.078125 L 14.625 -9.609375 C 14.132812 -9.703125 13.585938 -9.75 12.984375 -9.75 Z M 12.984375 -9.75 "/></g></g></g><g fill="#ffa500" fill-opacity="1"><g transform="translate(99.012358, 200.186215)"><g><path d="M 15.65625 -23.03125 C 17.40625 -23.03125 18.941406 -22.773438 20.265625 -22.265625 C 21.585938 -21.765625 22.613281 -21.078125 23.34375 -20.203125 C 24.082031 -19.328125 24.453125 -18.359375 24.453125 -17.296875 C 24.453125 -16.140625 24.054688 -15.1875 23.265625 -14.4375 C 22.472656 -13.695312 21.398438 -13.328125 20.046875 -13.328125 C 18.671875 -13.328125 17.59375 -13.675781 16.8125 -14.375 C 16.039062 -15.082031 15.65625 -16.039062 15.65625 -17.25 C 15.65625 -17.820312 15.738281 -18.425781 15.90625 -19.0625 C 14.707031 -18.75 13.640625 -18.125 12.703125 -17.1875 C 11.765625 -16.25 11.140625 -15.019531 10.828125 -13.5 C 10.648438 -12.632812 10.5625 -11.859375 10.5625 -11.171875 C 10.5625 -9.617188 10.992188 -8.4375 11.859375 -7.625 C 12.722656 -6.820312 13.957031 -6.421875 15.5625 -6.421875 C 16.488281 -6.421875 17.28125 -6.515625 17.9375 -6.703125 C 18.601562 -6.890625 19.28125 -7.140625 19.96875 -7.453125 C 20.539062 -7.742188 20.957031 -7.890625 21.21875 -7.890625 C 21.382812 -7.890625 21.5 -7.851562 21.5625 -7.78125 C 21.625 -7.707031 21.65625 -7.554688 21.65625 -7.328125 C 21.675781 -6.265625 21.234375 -5.148438 20.328125 -3.984375 C 19.421875 -2.828125 18.171875 -1.851562 16.578125 -1.0625 C 14.984375 -0.269531 13.195312 0.125 11.21875 0.125 C 9.144531 0.125 7.3125 -0.253906 5.71875 -1.015625 C 4.125 -1.773438 2.882812 -2.863281 2 -4.28125 C 1.125 -5.707031 0.6875 -7.367188 0.6875 -9.265625 C 0.6875 -10.160156 0.800781 -11.15625 1.03125 -12.25 C 1.8125 -15.8125 3.53125 -18.5 6.1875 -20.3125 C 8.84375 -22.125 12 -23.03125 15.65625 -23.03125 Z M 15.65625 -23.03125 "/></g></g></g><g fill="#ffa500" fill-opacity="1"><g transform="translate(122.384464, 200.186215)"><g><path d="M 25.578125 -22.8125 C 27.210938 -22.8125 28.523438 -22.359375 29.515625 -21.453125 C 30.503906 -20.546875 31 -19.445312 31 -18.15625 C 31 -16.769531 30.582031 -15.6875 29.75 -14.90625 C 28.914062 -14.132812 27.828125 -13.75 26.484375 -13.75 C 25.273438 -13.75 24.335938 -14.054688 23.671875 -14.671875 C 23.015625 -15.296875 22.703125 -16 22.734375 -16.78125 C 22.441406 -16.832031 22.191406 -16.710938 21.984375 -16.421875 C 21.785156 -16.140625 21.570312 -15.582031 21.34375 -14.75 C 21.195312 -14.195312 20.925781 -13.691406 20.53125 -13.234375 C 22.476562 -13.097656 23.925781 -12.65625 24.875 -11.90625 C 25.832031 -11.15625 26.3125 -10.191406 26.3125 -9.015625 C 26.3125 -8.441406 26.207031 -7.863281 26 -7.28125 L 25.65625 -5.953125 C 25.601562 -5.804688 25.578125 -5.617188 25.578125 -5.390625 C 25.578125 -4.984375 25.765625 -4.78125 26.140625 -4.78125 C 26.484375 -4.78125 26.773438 -4.929688 27.015625 -5.234375 C 27.265625 -5.535156 27.429688 -5.6875 27.515625 -5.6875 C 27.660156 -5.6875 27.773438 -5.59375 27.859375 -5.40625 C 27.941406 -5.21875 27.984375 -5 27.984375 -4.75 C 28.015625 -3.914062 27.765625 -3.101562 27.234375 -2.3125 C 26.703125 -1.519531 25.894531 -0.867188 24.8125 -0.359375 C 23.738281 0.140625 22.441406 0.390625 20.921875 0.390625 C 19.078125 0.390625 17.539062 -0.0664062 16.3125 -0.984375 C 15.09375 -1.910156 14.484375 -3.117188 14.484375 -4.609375 C 14.484375 -5.160156 14.597656 -5.78125 14.828125 -6.46875 L 15.65625 -8.625 C 15.800781 -9.144531 15.875 -9.519531 15.875 -9.75 C 15.875 -10.125 15.75 -10.394531 15.5 -10.5625 C 15.257812 -10.738281 14.878906 -10.828125 14.359375 -10.828125 L 13.5 -10.828125 L 11.5625 -4.484375 C 11.46875 -4.140625 11.421875 -3.835938 11.421875 -3.578125 C 11.421875 -3.203125 11.492188 -2.90625 11.640625 -2.6875 C 11.785156 -2.476562 11.988281 -2.269531 12.25 -2.0625 C 12.445312 -1.863281 12.585938 -1.695312 12.671875 -1.5625 C 12.765625 -1.4375 12.78125 -1.273438 12.71875 -1.078125 C 12.570312 -0.703125 12.285156 -0.425781 11.859375 -0.25 C 11.429688 -0.0820312 10.769531 0 9.875 0 L 0.046875 0 C -0.703125 0 -1.25 -0.117188 -1.59375 -0.359375 C -1.9375 -0.609375 -2.050781 -0.9375 -1.9375 -1.34375 C -1.820312 -1.6875 -1.519531 -1.988281 -1.03125 -2.25 C -0.601562 -2.476562 -0.25 -2.75 0.03125 -3.0625 C 0.320312 -3.375 0.570312 -3.878906 0.78125 -4.578125 L 7.328125 -26.09375 C 7.410156 -26.351562 7.453125 -26.566406 7.453125 -26.734375 C 7.453125 -27.054688 7.375 -27.316406 7.21875 -27.515625 C 7.0625 -27.710938 6.851562 -27.914062 6.59375 -28.125 C 6.3125 -28.351562 6.101562 -28.550781 5.96875 -28.71875 C 5.84375 -28.894531 5.820312 -29.125 5.90625 -29.40625 C 6.082031 -30.070312 6.988281 -30.648438 8.625 -31.140625 C 10.257812 -31.628906 11.96875 -31.875 13.75 -31.875 C 15.425781 -31.875 16.648438 -31.5625 17.421875 -30.9375 C 18.203125 -30.320312 18.59375 -29.46875 18.59375 -28.375 C 18.59375 -27.71875 18.488281 -27.085938 18.28125 -26.484375 L 14.53125 -14.234375 L 15.953125 -14.234375 C 16.523438 -14.234375 16.988281 -14.40625 17.34375 -14.75 C 17.707031 -15.09375 17.992188 -15.597656 18.203125 -16.265625 C 18.921875 -18.390625 19.851562 -20.007812 21 -21.125 C 22.15625 -22.25 23.679688 -22.8125 25.578125 -22.8125 Z M 25.578125 -22.8125 "/></g></g></g><g fill="#ffa500" fill-opacity="1"><g transform="translate(152.52672, 200.186215)"><g><path d="M 14.1875 -23.203125 C 16.570312 -23.203125 18.632812 -22.984375 20.375 -22.546875 C 22.113281 -22.117188 23.445312 -21.515625 24.375 -20.734375 C 25.3125 -19.960938 25.78125 -19.085938 25.78125 -18.109375 C 25.78125 -17.109375 25.382812 -16.289062 24.59375 -15.65625 C 23.8125 -15.019531 22.710938 -14.703125 21.296875 -14.703125 C 19.859375 -14.703125 18.644531 -15.0625 17.65625 -15.78125 C 16.664062 -16.5 16.171875 -17.40625 16.171875 -18.5 C 16.171875 -18.875 16.226562 -19.234375 16.34375 -19.578125 C 15.820312 -19.722656 15.363281 -19.796875 14.96875 -19.796875 C 14.25 -19.796875 13.648438 -19.625 13.171875 -19.28125 C 12.703125 -18.9375 12.476562 -18.445312 12.5 -17.8125 C 12.5 -17.0625 12.875 -16.425781 13.625 -15.90625 C 14.375 -15.394531 15.582031 -14.75 17.25 -13.96875 C 18.6875 -13.34375 19.867188 -12.757812 20.796875 -12.21875 C 21.734375 -11.6875 22.523438 -11.019531 23.171875 -10.21875 C 23.828125 -9.414062 24.15625 -8.46875 24.15625 -7.375 C 24.15625 -7.144531 24.097656 -6.710938 23.984375 -6.078125 C 23.515625 -4.148438 22.226562 -2.625 20.125 -1.5 C 18.03125 -0.382812 15.273438 0.171875 11.859375 0.171875 C 8.003906 0.171875 4.945312 -0.34375 2.6875 -1.375 C 0.4375 -2.414062 -0.6875 -3.84375 -0.6875 -5.65625 C -0.6875 -6.882812 -0.316406 -7.816406 0.421875 -8.453125 C 1.171875 -9.085938 2.164062 -9.40625 3.40625 -9.40625 C 4.84375 -9.40625 6.070312 -8.957031 7.09375 -8.0625 C 8.113281 -7.175781 8.625 -6.039062 8.625 -4.65625 C 8.625 -4.28125 8.582031 -3.894531 8.5 -3.5 C 9.1875 -3.320312 9.847656 -3.234375 10.484375 -3.234375 C 11.222656 -3.234375 11.835938 -3.429688 12.328125 -3.828125 C 12.816406 -4.234375 13.0625 -4.796875 13.0625 -5.515625 C 13.039062 -6.179688 12.710938 -6.75 12.078125 -7.21875 C 11.441406 -7.695312 10.4375 -8.265625 9.0625 -8.921875 C 7.757812 -9.523438 6.691406 -10.09375 5.859375 -10.625 C 5.023438 -11.15625 4.3125 -11.820312 3.71875 -12.625 C 3.132812 -13.4375 2.84375 -14.390625 2.84375 -15.484375 C 2.84375 -17.835938 3.828125 -19.710938 5.796875 -21.109375 C 7.765625 -22.503906 10.5625 -23.203125 14.1875 -23.203125 Z M 14.1875 -23.203125 "/></g></g></g><g fill="#ffa500" fill-opacity="1"><g transform="translate(178.098047, 200.186215)"><g><path d="M 17.03125 -28.71875 C 19.90625 -28.71875 22.398438 -28.304688 24.515625 -27.484375 C 26.628906 -26.671875 28.238281 -25.601562 29.34375 -24.28125 C 30.445312 -22.957031 31 -21.546875 31 -20.046875 C 31 -19.503906 30.914062 -18.945312 30.75 -18.375 C 30.34375 -17.164062 29.664062 -16.210938 28.71875 -15.515625 C 27.769531 -14.828125 26.316406 -14.203125 24.359375 -13.640625 C 22.410156 -13.085938 19.410156 -12.421875 15.359375 -11.640625 C 12.910156 -11.179688 11.070312 -10.769531 9.84375 -10.40625 C 8.625 -10.050781 7.773438 -9.671875 7.296875 -9.265625 C 6.828125 -8.867188 6.566406 -8.351562 6.515625 -7.71875 L 18.9375 -7.71875 C 20.65625 -7.71875 21.957031 -7.945312 22.84375 -8.40625 C 23.738281 -8.863281 24.578125 -9.484375 25.359375 -10.265625 C 25.703125 -10.640625 25.976562 -10.90625 26.1875 -11.0625 C 26.40625 -11.21875 26.660156 -11.296875 26.953125 -11.296875 C 27.472656 -11.296875 27.945312 -10.941406 28.375 -10.234375 C 28.800781 -9.535156 29.015625 -8.640625 29.015625 -7.546875 C 29.015625 -6.828125 28.890625 -6.007812 28.640625 -5.09375 C 28.054688 -3.25 27.015625 -1.9375 25.515625 -1.15625 C 24.023438 -0.382812 21.773438 0 18.765625 0 L 3.53125 0 C 2.613281 0 1.875 -0.382812 1.3125 -1.15625 C 0.75 -1.9375 0.46875 -2.988281 0.46875 -4.3125 C 0.46875 -5.289062 0.640625 -6.351562 0.984375 -7.5 C 1.585938 -9.488281 2.695312 -11.09375 4.3125 -12.3125 C 5.925781 -13.53125 8.195312 -14.554688 11.125 -15.390625 C 13.082031 -15.972656 14.59375 -16.539062 15.65625 -17.09375 C 16.71875 -17.65625 17.476562 -18.21875 17.9375 -18.78125 C 18.394531 -19.34375 18.753906 -20.039062 19.015625 -20.875 C 19.160156 -21.445312 19.234375 -21.921875 19.234375 -22.296875 C 19.234375 -23.097656 18.988281 -23.742188 18.5 -24.234375 C 18.007812 -24.722656 17.347656 -24.96875 16.515625 -24.96875 C 16.285156 -24.96875 15.882812 -24.910156 15.3125 -24.796875 C 15.34375 -24.617188 15.359375 -24.359375 15.359375 -24.015625 C 15.359375 -22.066406 14.765625 -20.601562 13.578125 -19.625 C 12.398438 -18.644531 10.921875 -18.15625 9.140625 -18.15625 C 7.816406 -18.15625 6.765625 -18.5 5.984375 -19.1875 C 5.210938 -19.875 4.828125 -20.8125 4.828125 -22 C 4.828125 -22.570312 4.898438 -23.085938 5.046875 -23.546875 C 5.566406 -25.242188 6.875 -26.53125 8.96875 -27.40625 C 11.070312 -28.28125 13.757812 -28.71875 17.03125 -28.71875 Z M 17.03125 -28.71875 "/></g></g></g><g fill="#ffa500" fill-opacity="1"><g transform="translate(208.71465, 200.186215)"><g><path d="M 16.125 -28.984375 C 17.738281 -28.984375 19.226562 -28.785156 20.59375 -28.390625 C 21.957031 -28.003906 23.34375 -27.394531 24.75 -26.5625 L 25.75 -27.390625 C 26.4375 -27.929688 27.003906 -28.300781 27.453125 -28.5 C 27.898438 -28.707031 28.410156 -28.8125 28.984375 -28.8125 C 29.671875 -28.8125 30.210938 -28.660156 30.609375 -28.359375 C 31.015625 -28.054688 31.21875 -27.617188 31.21875 -27.046875 C 31.21875 -26.804688 31.175781 -26.5625 31.09375 -26.3125 L 29.28125 -20.359375 C 29.082031 -19.660156 28.832031 -19.164062 28.53125 -18.875 C 28.226562 -18.59375 27.773438 -18.453125 27.171875 -18.453125 C 26.535156 -18.453125 25.976562 -18.644531 25.5 -19.03125 C 25.03125 -19.425781 24.289062 -20.226562 23.28125 -21.4375 C 22.28125 -22.582031 21.367188 -23.390625 20.546875 -23.859375 C 19.722656 -24.335938 18.882812 -24.578125 18.03125 -24.578125 C 17.394531 -24.578125 16.859375 -24.367188 16.421875 -23.953125 C 15.992188 -23.535156 15.78125 -23.023438 15.78125 -22.421875 C 15.78125 -21.734375 16.125 -21.09375 16.8125 -20.5 C 17.507812 -19.914062 18.585938 -19.175781 20.046875 -18.28125 C 21.546875 -17.394531 22.785156 -16.59375 23.765625 -15.875 C 24.742188 -15.15625 25.578125 -14.257812 26.265625 -13.1875 C 26.953125 -12.125 27.296875 -10.90625 27.296875 -9.53125 C 27.296875 -8.632812 27.148438 -7.742188 26.859375 -6.859375 C 26.171875 -4.554688 24.832031 -2.804688 22.84375 -1.609375 C 20.863281 -0.421875 18.550781 0.171875 15.90625 0.171875 C 13.925781 0.171875 12.257812 -0.0546875 10.90625 -0.515625 C 9.5625 -0.972656 8.179688 -1.75 6.765625 -2.84375 L 5.21875 -1.546875 C 4.5 -0.941406 3.910156 -0.53125 3.453125 -0.3125 C 2.992188 -0.101562 2.472656 0 1.890625 0 C 1.234375 0 0.707031 -0.15625 0.3125 -0.46875 C -0.0703125 -0.789062 -0.265625 -1.222656 -0.265625 -1.765625 C -0.265625 -2.054688 -0.207031 -2.359375 -0.09375 -2.671875 L 2.03125 -9.09375 C 2.257812 -9.84375 2.570312 -10.375 2.96875 -10.6875 C 3.375 -11.007812 3.894531 -11.171875 4.53125 -11.171875 C 5.1875 -11.171875 5.78125 -10.941406 6.3125 -10.484375 C 6.84375 -10.023438 7.539062 -9.191406 8.40625 -7.984375 C 9.332031 -6.660156 10.1875 -5.738281 10.96875 -5.21875 C 11.757812 -4.695312 12.703125 -4.4375 13.796875 -4.4375 C 14.578125 -4.4375 15.175781 -4.554688 15.59375 -4.796875 C 16.007812 -5.046875 16.300781 -5.445312 16.46875 -6 C 16.53125 -6.132812 16.5625 -6.347656 16.5625 -6.640625 C 16.5625 -7.328125 16.226562 -7.957031 15.5625 -8.53125 C 14.90625 -9.113281 13.882812 -9.804688 12.5 -10.609375 C 11.039062 -11.503906 9.847656 -12.300781 8.921875 -13 C 8.003906 -13.707031 7.207031 -14.59375 6.53125 -15.65625 C 5.851562 -16.71875 5.515625 -17.96875 5.515625 -19.40625 C 5.515625 -20.414062 5.675781 -21.40625 6 -22.375 C 6.601562 -24.363281 7.835938 -25.960938 9.703125 -27.171875 C 11.566406 -28.378906 13.707031 -28.984375 16.125 -28.984375 Z M 16.125 -28.984375 "/></g></g></g><g fill="#ffa500" fill-opacity="1"><g transform="translate(238.425685, 200.186215)"><g><path d="M 15.65625 -23.03125 C 17.40625 -23.03125 18.941406 -22.773438 20.265625 -22.265625 C 21.585938 -21.765625 22.613281 -21.078125 23.34375 -20.203125 C 24.082031 -19.328125 24.453125 -18.359375 24.453125 -17.296875 C 24.453125 -16.140625 24.054688 -15.1875 23.265625 -14.4375 C 22.472656 -13.695312 21.398438 -13.328125 20.046875 -13.328125 C 18.671875 -13.328125 17.59375 -13.675781 16.8125 -14.375 C 16.039062 -15.082031 15.65625 -16.039062 15.65625 -17.25 C 15.65625 -17.820312 15.738281 -18.425781 15.90625 -19.0625 C 14.707031 -18.75 13.640625 -18.125 12.703125 -17.1875 C 11.765625 -16.25 11.140625 -15.019531 10.828125 -13.5 C 10.648438 -12.632812 10.5625 -11.859375 10.5625 -11.171875 C 10.5625 -9.617188 10.992188 -8.4375 11.859375 -7.625 C 12.722656 -6.820312 13.957031 -6.421875 15.5625 -6.421875 C 16.488281 -6.421875 17.28125 -6.515625 17.9375 -6.703125 C 18.601562 -6.890625 19.28125 -7.140625 19.96875 -7.453125 C 20.539062 -7.742188 20.957031 -7.890625 21.21875 -7.890625 C 21.382812 -7.890625 21.5 -7.851562 21.5625 -7.78125 C 21.625 -7.707031 21.65625 -7.554688 21.65625 -7.328125 C 21.675781 -6.265625 21.234375 -5.148438 20.328125 -3.984375 C 19.421875 -2.828125 18.171875 -1.851562 16.578125 -1.0625 C 14.984375 -0.269531 13.195312 0.125 11.21875 0.125 C 9.144531 0.125 7.3125 -0.253906 5.71875 -1.015625 C 4.125 -1.773438 2.882812 -2.863281 2 -4.28125 C 1.125 -5.707031 0.6875 -7.367188 0.6875 -9.265625 C 0.6875 -10.160156 0.800781 -11.15625 1.03125 -12.25 C 1.8125 -15.8125 3.53125 -18.5 6.1875 -20.3125 C 8.84375 -22.125 12 -23.03125 15.65625 -23.03125 Z M 15.65625 -23.03125 "/></g></g></g><g fill="#ffa500" fill-opacity="1"><g transform="translate(261.797799, 200.186215)"><g><path d="M 26.4375 -5.953125 C 26.375 -5.835938 26.34375 -5.664062 26.34375 -5.4375 C 26.34375 -5.226562 26.394531 -5.066406 26.5 -4.953125 C 26.601562 -4.835938 26.738281 -4.78125 26.90625 -4.78125 C 27.25 -4.78125 27.539062 -4.929688 27.78125 -5.234375 C 28.03125 -5.535156 28.203125 -5.6875 28.296875 -5.6875 C 28.429688 -5.6875 28.539062 -5.59375 28.625 -5.40625 C 28.71875 -5.21875 28.765625 -5 28.765625 -4.75 C 28.796875 -3.914062 28.519531 -3.101562 27.9375 -2.3125 C 27.363281 -1.519531 26.523438 -0.867188 25.421875 -0.359375 C 24.316406 0.140625 22.988281 0.390625 21.4375 0.390625 C 19.539062 0.390625 18.03125 -0.046875 16.90625 -0.921875 C 15.78125 -1.804688 15.207031 -2.976562 15.1875 -4.4375 C 15.1875 -5.5 15.441406 -6.691406 15.953125 -8.015625 L 18.328125 -14.234375 C 18.472656 -14.609375 18.546875 -14.910156 18.546875 -15.140625 C 18.546875 -15.515625 18.421875 -15.804688 18.171875 -16.015625 C 17.929688 -16.234375 17.640625 -16.34375 17.296875 -16.34375 C 16.742188 -16.34375 16.1875 -16.085938 15.625 -15.578125 C 15.070312 -15.078125 14.625 -14.269531 14.28125 -13.15625 L 14.28125 -13.234375 L 11.5625 -4.484375 C 11.46875 -4.140625 11.421875 -3.835938 11.421875 -3.578125 C 11.421875 -3.203125 11.492188 -2.90625 11.640625 -2.6875 C 11.785156 -2.476562 11.988281 -2.269531 12.25 -2.0625 C 12.445312 -1.863281 12.585938 -1.695312 12.671875 -1.5625 C 12.765625 -1.4375 12.78125 -1.273438 12.71875 -1.078125 C 12.570312 -0.703125 12.285156 -0.425781 11.859375 -0.25 C 11.429688 -0.0820312 10.769531 0 9.875 0 L 0.046875 0 C -0.703125 0 -1.25 -0.117188 -1.59375 -0.359375 C -1.9375 -0.609375 -2.050781 -0.9375 -1.9375 -1.34375 C -1.820312 -1.6875 -1.519531 -1.988281 -1.03125 -2.25 C -0.601562 -2.476562 -0.25 -2.75 0.03125 -3.0625 C 0.320312 -3.375 0.570312 -3.878906 0.78125 -4.578125 L 7.328125 -26.09375 C 7.410156 -26.351562 7.453125 -26.566406 7.453125 -26.734375 C 7.453125 -27.054688 7.375 -27.316406 7.21875 -27.515625 C 7.0625 -27.710938 6.851562 -27.914062 6.59375 -28.125 C 6.3125 -28.351562 6.101562 -28.550781 5.96875 -28.71875 C 5.84375 -28.894531 5.820312 -29.125 5.90625 -29.40625 C 6.082031 -30.070312 6.988281 -30.648438 8.625 -31.140625 C 10.257812 -31.628906 11.96875 -31.875 13.75 -31.875 C 15.425781 -31.875 16.65625 -31.554688 17.4375 -30.921875 C 18.226562 -30.285156 18.625 -29.421875 18.625 -28.328125 C 18.625 -27.703125 18.523438 -27.085938 18.328125 -26.484375 L 16 -18.890625 C 17.125 -20.359375 18.3125 -21.378906 19.5625 -21.953125 C 20.8125 -22.523438 22.164062 -22.8125 23.625 -22.8125 C 25.382812 -22.8125 26.800781 -22.28125 27.875 -21.21875 C 28.957031 -20.15625 29.5 -18.773438 29.5 -17.078125 C 29.5 -16.179688 29.351562 -15.304688 29.0625 -14.453125 Z M 26.4375 -5.953125 "/></g></g></g><g fill="#ffa500" fill-opacity="1"><g transform="translate(292.414402, 200.186215)"><g><path d="M 16.6875 -22.8125 C 20.59375 -22.8125 23.472656 -22.019531 25.328125 -20.4375 C 27.191406 -18.851562 28.125 -16.785156 28.125 -14.234375 C 28.125 -13.367188 28.003906 -12.40625 27.765625 -11.34375 C 27.222656 -8.988281 26.203125 -6.925781 24.703125 -5.15625 C 23.210938 -3.382812 21.378906 -2.015625 19.203125 -1.046875 C 17.035156 -0.0859375 14.6875 0.390625 12.15625 0.390625 C 8.164062 0.390625 5.210938 -0.40625 3.296875 -2 C 1.390625 -3.601562 0.4375 -5.722656 0.4375 -8.359375 C 0.4375 -9.253906 0.550781 -10.25 0.78125 -11.34375 C 1.320312 -13.582031 2.359375 -15.570312 3.890625 -17.3125 C 5.429688 -19.050781 7.316406 -20.398438 9.546875 -21.359375 C 11.773438 -22.328125 14.15625 -22.8125 16.6875 -22.8125 Z M 16.5625 -18.96875 C 15.957031 -18.96875 15.316406 -18.425781 14.640625 -17.34375 C 13.960938 -16.269531 13.164062 -14.238281 12.25 -11.25 C 11.332031 -8.257812 10.875 -6.160156 10.875 -4.953125 C 10.875 -4.328125 10.972656 -3.90625 11.171875 -3.6875 C 11.367188 -3.46875 11.640625 -3.359375 11.984375 -3.359375 C 12.585938 -3.304688 13.210938 -3.828125 13.859375 -4.921875 C 14.503906 -6.015625 15.316406 -8.140625 16.296875 -11.296875 C 17.191406 -14.085938 17.640625 -16.113281 17.640625 -17.375 C 17.640625 -17.976562 17.546875 -18.394531 17.359375 -18.625 C 17.171875 -18.851562 16.90625 -18.96875 16.5625 -18.96875 Z M 16.5625 -18.96875 "/></g></g></g><g fill="#ffa500" fill-opacity="1"><g transform="translate(320.702415, 200.186215)"><g><path d="M 16.6875 -22.8125 C 20.59375 -22.8125 23.472656 -22.019531 25.328125 -20.4375 C 27.191406 -18.851562 28.125 -16.785156 28.125 -14.234375 C 28.125 -13.367188 28.003906 -12.40625 27.765625 -11.34375 C 27.222656 -8.988281 26.203125 -6.925781 24.703125 -5.15625 C 23.210938 -3.382812 21.378906 -2.015625 19.203125 -1.046875 C 17.035156 -0.0859375 14.6875 0.390625 12.15625 0.390625 C 8.164062 0.390625 5.210938 -0.40625 3.296875 -2 C 1.390625 -3.601562 0.4375 -5.722656 0.4375 -8.359375 C 0.4375 -9.253906 0.550781 -10.25 0.78125 -11.34375 C 1.320312 -13.582031 2.359375 -15.570312 3.890625 -17.3125 C 5.429688 -19.050781 7.316406 -20.398438 9.546875 -21.359375 C 11.773438 -22.328125 14.15625 -22.8125 16.6875 -22.8125 Z M 16.5625 -18.96875 C 15.957031 -18.96875 15.316406 -18.425781 14.640625 -17.34375 C 13.960938 -16.269531 13.164062 -14.238281 12.25 -11.25 C 11.332031 -8.257812 10.875 -6.160156 10.875 -4.953125 C 10.875 -4.328125 10.972656 -3.90625 11.171875 -3.6875 C 11.367188 -3.46875 11.640625 -3.359375 11.984375 -3.359375 C 12.585938 -3.304688 13.210938 -3.828125 13.859375 -4.921875 C 14.503906 -6.015625 15.316406 -8.140625 16.296875 -11.296875 C 17.191406 -14.085938 17.640625 -16.113281 17.640625 -17.375 C 17.640625 -17.976562 17.546875 -18.394531 17.359375 -18.625 C 17.171875 -18.851562 16.90625 -18.96875 16.5625 -18.96875 Z M 16.5625 -18.96875 "/></g></g></g><g fill="#ffa500" fill-opacity="1"><g transform="translate(348.990427, 200.186215)"><g><path d="M 13.75 -31.875 C 15.425781 -31.875 16.65625 -31.554688 17.4375 -30.921875 C 18.226562 -30.285156 18.625 -29.421875 18.625 -28.328125 C 18.625 -27.703125 18.523438 -27.085938 18.328125 -26.484375 L 11.5625 -4.484375 C 11.46875 -4.140625 11.421875 -3.835938 11.421875 -3.578125 C 11.421875 -3.203125 11.492188 -2.90625 11.640625 -2.6875 C 11.785156 -2.476562 11.988281 -2.269531 12.25 -2.0625 C 12.445312 -1.863281 12.585938 -1.695312 12.671875 -1.5625 C 12.765625 -1.4375 12.78125 -1.273438 12.71875 -1.078125 C 12.570312 -0.703125 12.285156 -0.425781 11.859375 -0.25 C 11.429688 -0.0820312 10.769531 0 9.875 0 L 0.046875 0 C -0.703125 0 -1.25 -0.117188 -1.59375 -0.359375 C -1.9375 -0.609375 -2.050781 -0.9375 -1.9375 -1.34375 C -1.820312 -1.6875 -1.519531 -1.988281 -1.03125 -2.25 C -0.601562 -2.476562 -0.25 -2.75 0.03125 -3.0625 C 0.320312 -3.375 0.570312 -3.878906 0.78125 -4.578125 L 7.328125 -26.09375 C 7.410156 -26.351562 7.453125 -26.566406 7.453125 -26.734375 C 7.453125 -27.054688 7.375 -27.316406 7.21875 -27.515625 C 7.0625 -27.710938 6.851562 -27.914062 6.59375 -28.125 C 6.3125 -28.351562 6.101562 -28.550781 5.96875 -28.71875 C 5.84375 -28.894531 5.820312 -29.125 5.90625 -29.40625 C 6.082031 -30.070312 6.988281 -30.648438 8.625 -31.140625 C 10.257812 -31.628906 11.96875 -31.875 13.75 -31.875 Z M 13.75 -31.875 "/></g></g></g></svg>