<svg xmlns="http://www.w3.org/2000/svg" xmlns:xlink="http://www.w3.org/1999/xlink" width="1080" zoomAndPan="magnify" viewBox="0 0 810 809.999993" height="1080" preserveAspectRatio="xMidYMid meet" version="1.0"><defs><clipPath id="e135d89612"><path d="M 32.332031 32.332031 L 777.832031 32.332031 L 777.832031 777.832031 L 32.332031 777.832031 Z M 32.332031 32.332031 " clip-rule="nonzero"/></clipPath></defs><g clip-path="url(#e135d89612)"><path fill="#ffa500" d="M 32.332031 404.996094 C 32.332031 199.210938 199.210938 32.332031 404.996094 32.332031 C 610.777344 32.332031 777.65625 199.210938 777.65625 404.996094 C 777.65625 610.777344 610.777344 777.65625 404.996094 777.65625 C 199.210938 777.65625 32.332031 610.777344 32.332031 404.996094 Z M 32.332031 404.996094 " fill-opacity="1" fill-rule="nonzero"/></g><path fill="#f8f9fa" d="M 637.664062 372.398438 L 510.140625 244.875 C 469.882812 204.621094 407.699219 267.253906 448.105469 307.660156 L 500.074219 359.632812 L 207.171875 359.632812 C 150.246094 359.632812 149.644531 447.953125 206.570312 447.953125 L 500.074219 447.953125 L 447.804688 500.226562 C 407.546875 540.480469 470.183594 602.667969 510.589844 562.261719 L 638.113281 434.734375 C 655.089844 417.761719 654.636719 389.371094 637.664062 372.398438 " fill-opacity="1" fill-rule="nonzero"/></svg>