<svg xmlns="http://www.w3.org/2000/svg" xmlns:xlink="http://www.w3.org/1999/xlink" width="1080" zoomAndPan="magnify" viewBox="0 0 810 809.999993" height="1080" preserveAspectRatio="xMidYMid meet" version="1.0"><defs><clipPath id="97dd915d80"><path d="M 83 93.960938 L 727 93.960938 L 727 715.710938 L 83 715.710938 Z M 83 93.960938 " clip-rule="nonzero"/></clipPath></defs><g clip-path="url(#97dd915d80)"><path fill="#000000" d="M 503.757812 438.984375 L 624.363281 318.453125 C 625.757812 317.0625 627.277344 315.824219 628.917969 314.730469 C 630.554688 313.640625 632.289062 312.722656 634.109375 311.972656 C 635.929688 311.222656 637.808594 310.660156 639.742188 310.28125 C 641.675781 309.902344 643.628906 309.71875 645.597656 309.722656 L 645.597656 309.671875 C 647.570312 309.664062 649.523438 309.851562 651.460938 310.234375 C 653.394531 310.613281 655.273438 311.179688 657.097656 311.933594 C 658.917969 312.6875 660.652344 313.609375 662.292969 314.707031 C 663.929688 315.800781 665.449219 317.046875 666.839844 318.445312 C 670.300781 321.816406 672.808594 325.789062 674.359375 330.363281 C 675.136719 332.761719 675.578125 335.222656 675.6875 337.742188 C 669.585938 340.351562 664.1875 344.003906 659.492188 348.6875 L 533.117188 475 C 532.035156 470.1875 530.304688 465.625 527.921875 461.308594 C 525.539062 456.992188 522.597656 453.097656 519.097656 449.621094 C 514.628906 445.148438 509.515625 441.601562 503.757812 438.984375 Z M 340.789062 295.730469 C 321.101562 274.921875 310.25 253.722656 310.25 236.035156 L 310.25 146.605469 L 409.886719 93.960938 L 509.539062 146.605469 L 509.539062 236.042969 C 509.539062 253.714844 498.691406 274.921875 479.003906 295.742188 C 474.253906 300.851562 469.214844 305.660156 463.894531 310.175781 C 458.570312 314.6875 453 318.871094 447.183594 322.722656 C 441.363281 326.574219 435.339844 330.070312 429.105469 333.207031 C 422.871094 336.34375 416.472656 339.101562 409.914062 341.480469 C 403.347656 339.105469 396.949219 336.347656 390.710938 333.210938 C 384.472656 330.070312 378.445312 326.578125 372.621094 322.722656 C 366.800781 318.871094 361.226562 314.6875 355.902344 310.171875 C 350.578125 305.65625 345.539062 300.84375 340.789062 295.730469 Z M 345.546875 223.882812 C 345.292969 225.355469 345.335938 226.820312 345.675781 228.277344 C 346.011719 229.734375 346.617188 231.070312 347.488281 232.285156 L 371.015625 265.1875 C 371.386719 265.71875 371.800781 266.214844 372.261719 266.675781 C 372.785156 267.195312 373.355469 267.660156 373.96875 268.066406 C 374.585938 268.476562 375.234375 268.820312 375.914062 269.101562 C 376.597656 269.382812 377.300781 269.597656 378.027344 269.738281 C 378.75 269.882812 379.480469 269.957031 380.21875 269.957031 C 380.957031 269.957031 381.691406 269.882812 382.414062 269.738281 C 383.136719 269.597656 383.84375 269.382812 384.523438 269.101562 C 385.207031 268.820312 385.855469 268.476562 386.472656 268.066406 C 387.085938 267.660156 387.65625 267.195312 388.179688 266.675781 L 471.046875 183.75 C 471.566406 183.222656 472.03125 182.652344 472.4375 182.039062 C 472.847656 181.421875 473.191406 180.769531 473.472656 180.085938 C 473.753906 179.402344 473.964844 178.699219 474.105469 177.972656 C 474.246094 177.25 474.316406 176.515625 474.3125 175.777344 C 474.308594 175.039062 474.234375 174.304688 474.089844 173.582031 C 473.941406 172.859375 473.726562 172.15625 473.441406 171.472656 C 473.152344 170.792969 472.804688 170.144531 472.390625 169.53125 C 471.980469 168.917969 471.511719 168.351562 470.984375 167.832031 C 470.453125 167.324219 469.878906 166.875 469.257812 166.480469 C 468.640625 166.085938 467.988281 165.753906 467.308594 165.484375 C 466.625 165.210938 465.925781 165.007812 465.203125 164.871094 C 464.484375 164.734375 463.753906 164.667969 463.023438 164.671875 C 462.289062 164.671875 461.5625 164.742188 460.839844 164.882812 C 460.121094 165.023438 459.421875 165.230469 458.738281 165.507812 C 458.058594 165.78125 457.410156 166.117188 456.796875 166.515625 C 456.179688 166.914062 455.605469 167.367188 455.074219 167.875 L 381.621094 241.390625 L 365.851562 219.214844 C 365.203125 218.304688 364.441406 217.511719 363.558594 216.832031 C 362.675781 216.152344 361.714844 215.617188 360.675781 215.21875 C 359.632812 214.824219 358.554688 214.589844 357.445312 214.515625 C 356.335938 214.4375 355.234375 214.527344 354.148438 214.777344 C 353.066406 215.027344 352.039062 215.429688 351.074219 215.980469 C 350.105469 216.535156 349.242188 217.21875 348.480469 218.027344 C 347.714844 218.839844 347.085938 219.742188 346.589844 220.738281 C 346.09375 221.738281 345.753906 222.785156 345.570312 223.882812 Z M 726.3125 385.554688 C 726.316406 384.570312 726.269531 383.589844 726.175781 382.613281 C 726.082031 381.632812 725.941406 380.660156 725.753906 379.695312 C 725.5625 378.730469 725.328125 377.777344 725.042969 376.835938 C 724.761719 375.894531 724.429688 374.96875 724.054688 374.058594 C 723.679688 373.152344 723.261719 372.261719 722.800781 371.394531 C 722.335938 370.527344 721.832031 369.683594 721.285156 368.867188 C 720.742188 368.046875 720.15625 367.257812 719.53125 366.496094 C 718.910156 365.738281 718.25 365.007812 717.554688 364.3125 C 716.855469 363.617188 716.128906 362.960938 715.367188 362.335938 C 714.605469 361.710938 713.816406 361.128906 713 360.582031 C 712.179688 360.035156 711.335938 359.53125 710.46875 359.070312 C 709.601562 358.609375 708.710938 358.191406 707.800781 357.816406 C 706.894531 357.441406 705.964844 357.109375 705.023438 356.828125 C 704.082031 356.542969 703.128906 356.308594 702.164062 356.117188 C 701.199219 355.929688 700.226562 355.789062 699.246094 355.695312 C 698.265625 355.601562 697.285156 355.554688 696.300781 355.558594 L 696.300781 355.609375 C 694.332031 355.605469 692.378906 355.792969 690.445312 356.171875 C 688.511719 356.550781 686.632812 357.117188 684.808594 357.867188 C 682.988281 358.617188 681.253906 359.535156 679.613281 360.625 C 677.972656 361.71875 676.453125 362.957031 675.058594 364.347656 L 528.03125 511.296875 C 526.914062 513.34375 525.667969 515.304688 524.289062 517.1875 C 522.910156 519.066406 521.414062 520.84375 519.796875 522.523438 C 518.179688 524.203125 516.457031 525.765625 514.632812 527.214844 C 512.808594 528.664062 510.894531 529.984375 508.890625 531.179688 C 506.886719 532.371094 504.816406 533.429688 502.671875 534.34375 C 500.527344 535.261719 498.332031 536.03125 496.085938 536.652344 C 493.839844 537.277344 491.5625 537.75 489.253906 538.066406 C 486.941406 538.386719 484.621094 538.550781 482.289062 538.558594 L 312.324219 538.558594 C 311.597656 538.558594 310.878906 538.492188 310.167969 538.351562 C 309.457031 538.210938 308.765625 538 308.09375 537.726562 C 307.421875 537.449219 306.785156 537.109375 306.183594 536.707031 C 305.578125 536.304688 305.019531 535.847656 304.503906 535.335938 C 303.992188 534.820312 303.53125 534.265625 303.128906 533.660156 C 302.726562 533.058594 302.386719 532.421875 302.105469 531.753906 C 301.828125 531.082031 301.617188 530.390625 301.476562 529.679688 C 301.335938 528.96875 301.265625 528.25 301.265625 527.523438 C 301.265625 526.800781 301.335938 526.082031 301.476562 525.371094 C 301.617188 524.660156 301.828125 523.96875 302.105469 523.296875 C 302.386719 522.628906 302.726562 521.992188 303.128906 521.390625 C 303.53125 520.785156 303.992188 520.226562 304.503906 519.714844 C 305.019531 519.203125 305.578125 518.746094 306.183594 518.34375 C 306.785156 517.941406 307.421875 517.601562 308.09375 517.324219 C 308.765625 517.050781 309.457031 516.839844 310.167969 516.699219 C 310.878906 516.558594 311.597656 516.492188 312.324219 516.492188 L 482.289062 516.492188 C 483.273438 516.488281 484.253906 516.4375 485.230469 516.339844 C 486.207031 516.238281 487.175781 516.09375 488.136719 515.898438 C 489.101562 515.703125 490.050781 515.464844 490.992188 515.175781 C 491.929688 514.890625 492.851562 514.558594 493.757812 514.179688 C 494.667969 513.804688 495.550781 513.382812 496.417969 512.917969 C 497.28125 512.457031 498.125 511.953125 498.941406 511.40625 C 499.753906 510.859375 500.542969 510.273438 501.300781 509.652344 C 502.0625 509.027344 502.789062 508.371094 503.480469 507.675781 C 504.175781 506.984375 504.835938 506.257812 505.457031 505.496094 C 506.082031 504.738281 506.667969 503.953125 507.210938 503.136719 C 507.757812 502.320312 508.265625 501.480469 508.726562 500.617188 C 509.191406 499.75 509.613281 498.867188 509.988281 497.960938 C 510.367188 497.054688 510.699219 496.132812 510.988281 495.191406 C 511.273438 494.253906 511.515625 493.304688 511.707031 492.339844 C 511.902344 491.378906 512.050781 490.410156 512.148438 489.433594 C 512.246094 488.457031 512.296875 487.476562 512.300781 486.496094 L 512.355469 486.496094 C 512.34375 484.527344 512.144531 482.582031 511.75 480.652344 C 511.355469 478.722656 510.78125 476.851562 510.019531 475.035156 C 509.257812 473.222656 508.324219 471.5 507.222656 469.867188 C 506.121094 468.234375 504.871094 466.726562 503.472656 465.339844 L 503.472656 465.289062 C 502.089844 463.898438 500.578125 462.65625 498.945312 461.5625 C 497.316406 460.46875 495.589844 459.542969 493.777344 458.792969 C 491.960938 458.039062 490.089844 457.472656 488.164062 457.089844 C 486.234375 456.707031 484.289062 456.515625 482.324219 456.519531 L 482.324219 456.46875 L 238.140625 456.671875 C 237.671875 456.664062 237.210938 456.628906 236.746094 456.570312 C 236.539062 456.570312 236.332031 456.570312 236.125 456.570312 C 231.753906 456.265625 227.507812 456.867188 223.394531 458.375 C 219.574219 459.800781 216.195312 461.921875 213.25 464.738281 L 83.636719 594.1875 L 83.636719 715.597656 L 188.46875 715.597656 L 217 685.945312 C 218.515625 684.183594 220.402344 683.023438 222.660156 682.464844 L 500.9375 612.464844 C 508.019531 609.878906 514.515625 606.238281 520.425781 601.550781 C 528.140625 595.621094 535.355469 589.136719 542.070312 582.097656 C 542.332031 581.855469 542.589844 581.617188 542.847656 581.394531 C 543.105469 581.167969 543.15625 581.015625 543.328125 580.84375 L 717.535156 406.761719 C 718.925781 405.367188 720.167969 403.847656 721.261719 402.207031 C 722.351562 400.566406 723.273438 398.835938 724.023438 397.015625 C 724.773438 395.191406 725.335938 393.316406 725.714844 391.382812 C 726.097656 389.449219 726.285156 387.5 726.277344 385.527344 Z M 726.3125 385.554688 " fill-opacity="1" fill-rule="nonzero"/></g></svg>